<?xml version="1.0" encoding="UTF-8" standalone="no"?>
<!-- Created with Inkscape (http://www.inkscape.org/) -->

<svg
   width="275"
   height="190"
   viewBox="0 0 72.760415 50.270833"
   version="1.1"
   id="svg1"
   inkscape:version="1.4.1 (93de688d07, 2025-03-30)"
   sodipodi:docname="sitebox.svg"
   xmlns:inkscape="http://www.inkscape.org/namespaces/inkscape"
   xmlns:sodipodi="http://sodipodi.sourceforge.net/DTD/sodipodi-0.dtd"
   xmlns="http://www.w3.org/2000/svg"
   xmlns:svg="http://www.w3.org/2000/svg">
   <sodipodi:namedview
      id="namedview1"
      pagecolor="#505050"
      bordercolor="#eeeeee"
      borderopacity="1"
      inkscape:showpageshadow="0"
      inkscape:pageopacity="0"
      inkscape:pagecheckerboard="0"
      inkscape:deskcolor="#505050"
      inkscape:document-units="mm"
      inkscape:zoom="2.8542929"
      inkscape:cx="176.92648"
      inkscape:cy="84.959746"
      inkscape:window-width="1920"
      inkscape:window-height="1010"
      inkscape:window-x="0"
      inkscape:window-y="0"
      inkscape:window-maximized="1"
      inkscape:current-layer="layer1" />
   <defs
      id="defs1" />
   <g
      inkscape:groupmode="layer"
      id="layer2"
      inkscape:label="Layer 2">
      <path
         id="rect3"
         style="fill:#1d1f20;stroke-width:0.264583"
         d="M -0.27808988,-0.37078652 H 72.674158 V 50.519663 H -0.27808988 Z" />
   </g>
   <g
      inkscape:label="Layer 1"
      inkscape:groupmode="layer"
      id="layer1">
      <g
         id="text4"
         style="font-size:3.88056px;font-family:'Inter Variable';-inkscape-font-specification:'Inter Variable';fill:#ffffff;stroke-width:0.264583"
         aria-label="basically a modern website, but with soul&#10;because it's not owned by a souless&#10;fortune 500 megacorp">
         <path
            d="m 2.792793,22.891597 q -0.1288467,0 -0.2463246,-0.0379 -0.1174779,-0.036 -0.2160077,-0.111794 -0.09853,-0.07579 -0.1705325,-0.191375 h -0.00379 v 0.303169 H 1.8416011 v -2.823259 h 0.3221168 v 1.117934 h 0.00379 q 0.064423,-0.111793 0.1610584,-0.18569 0.096635,-0.0739 0.2160077,-0.109899 0.1193727,-0.0379 0.2482194,-0.0379 0.261483,0 0.4566479,0.130741 0.1951649,0.130742 0.3031688,0.365698 0.1080038,0.233061 0.1080038,0.541914 0,0.306958 -0.1080038,0.541914 -0.1080039,0.233061 -0.3031688,0.365697 -0.1951649,0.130742 -0.4566479,0.130742 z m -0.049265,-0.289905 q 0.174322,0 0.3069583,-0.08527 0.1326364,-0.08527 0.2084285,-0.252009 0.075792,-0.166742 0.075792,-0.411172 0,-0.246325 -0.075792,-0.413068 -0.075792,-0.166742 -0.2084285,-0.252009 -0.1326363,-0.08527 -0.3069583,-0.08527 -0.1856909,0 -0.3221168,0.09285 -0.1364259,0.09285 -0.2103233,0.261483 -0.073897,0.168637 -0.073897,0.396014 0,0.225482 0.073897,0.394119 0.073897,0.168638 0.2103233,0.261483 0.1364259,0.09285 0.3221168,0.09285 z m 1.921332,0.282326 q -0.1989545,0 -0.3562233,-0.06821 Q 4.151368,22.747592 4.0585226,22.61306 3.967572,22.476635 3.967572,22.27768 q 0,-0.172427 0.066318,-0.280431 0.068213,-0.108004 0.1800065,-0.168638 0.1136882,-0.06253 0.2557986,-0.09474 0.1440051,-0.03221 0.2936947,-0.05116 0.1913753,-0.02653 0.301274,-0.03979 0.1098986,-0.01326 0.1553739,-0.04358 0.04737,-0.03032 0.04737,-0.106109 v -0.01895 q 0,-0.109899 -0.053055,-0.19327 -0.05116,-0.08527 -0.1515844,-0.132637 -0.09853,-0.04926 -0.2387453,-0.04926 -0.1383208,0 -0.2463246,0.04737 -0.1061091,0.04547 -0.1705325,0.125057 -0.062528,0.07958 -0.070108,0.180006 H 4.0092577 q 0.00947,-0.183796 0.1136882,-0.325906 0.1042143,-0.144005 0.2842207,-0.227377 0.1800065,-0.08337 0.4168571,-0.08337 0.174322,0 0.3145375,0.04737 0.1421104,0.04737 0.2406402,0.134531 0.1004247,0.08716 0.1534792,0.208429 0.053055,0.121267 0.053055,0.269062 v 1.379418 H 5.2674079 V 22.56948 h -0.00758 q -0.036001,0.072 -0.106109,0.1459 -0.070108,0.072 -0.1894805,0.121267 -0.1174779,0.04737 -0.2993791,0.04737 z m 0.045475,-0.288011 q 0.1970597,0 0.320222,-0.07011 0.1231623,-0.072 0.1800064,-0.18569 0.056844,-0.113689 0.056844,-0.24443 v -0.250114 q -0.018948,0.01705 -0.070108,0.03221 -0.049265,0.01516 -0.1231623,0.03032 -0.072003,0.01326 -0.1572688,0.02653 -0.083371,0.01326 -0.1686376,0.02463 -0.1155831,0.01516 -0.2197974,0.05305 -0.1023194,0.036 -0.1667428,0.104215 -0.064423,0.06632 -0.064423,0.180006 0,0.09285 0.049265,0.161058 0.05116,0.06632 0.1440051,0.10232 0.092846,0.036 0.2197974,0.036 z m 2.0501786,0.303169 q -0.2141129,0 -0.3884349,-0.07011 Q 6.197757,22.75896 6.0897532,22.61685 5.9817493,22.472845 5.9684857,22.254942 h 0.3183272 q 0.017053,0.178112 0.1364259,0.272852 0.1193727,0.09474 0.329696,0.09474 0.2084285,0 0.3278012,-0.08716 0.1212675,-0.08716 0.1212675,-0.219797 0,-0.113688 -0.083371,-0.181901 -0.083371,-0.06821 -0.2179025,-0.09853 L 6.5786128,21.959353 Q 6.3000765,21.893035 6.1560713,21.750924 6.013961,21.608814 6.013961,21.390911 q 0,-0.170532 0.090951,-0.301273 0.092845,-0.132637 0.2557986,-0.206534 0.1648481,-0.07579 0.378961,-0.07579 0.2084285,0 0.3732765,0.07958 0.1667428,0.07769 0.2633778,0.221693 0.09853,0.144005 0.1042143,0.342959 H 7.1660022 q -0.00189,-0.159163 -0.1174779,-0.263378 -0.115583,-0.104214 -0.3088531,-0.104214 -0.1837961,0 -0.2936947,0.08906 -0.1098987,0.08906 -0.1098987,0.217902 0,0.113689 0.083371,0.183796 0.083371,0.06821 0.2273766,0.10232 l 0.3221167,0.07579 q 0.2880103,0.06821 0.4225415,0.204639 0.1345311,0.134531 0.1345311,0.350539 0,0.185691 -0.1004246,0.318327 -0.1004247,0.132636 -0.2747467,0.202744 -0.1724272,0.07011 -0.3903298,0.07011 z m 1.1444621,-0.04547 v -2.000914 h 0.3221168 v 2.000914 z m 0.1610584,-2.391244 q -0.090951,0 -0.155374,-0.06442 -0.064423,-0.06442 -0.064423,-0.155374 0,-0.09095 0.064423,-0.155374 0.064423,-0.06442 0.155374,-0.06442 0.090951,0 0.1553739,0.06442 0.064423,0.06442 0.064423,0.155374 0,0.09095 -0.064423,0.155374 -0.064423,0.06442 -0.1553739,0.06442 z m 1.4646841,2.436719 q -0.2766414,0 -0.4869647,-0.132636 -0.2084286,-0.134532 -0.3259064,-0.369487 -0.1155831,-0.234956 -0.1155831,-0.54002 0,-0.306958 0.1155831,-0.543809 0.1174778,-0.23685 0.3259064,-0.371381 0.2103233,-0.134531 0.4869647,-0.134531 0.1705325,0 0.3145376,0.05305 0.1459,0.05116 0.2557988,0.1459 0.111793,0.09285 0.181901,0.219797 0.07011,0.126952 0.09095,0.278537 H 10.048 q -0.01705,-0.08906 -0.058739,-0.162953 -0.041686,-0.0739 -0.1080039,-0.126952 -0.064423,-0.05495 -0.1515844,-0.08527 -0.087161,-0.03032 -0.1989545,-0.03032 -0.1875856,0 -0.3240115,0.09474 -0.1345312,0.09285 -0.2065338,0.263378 -0.072002,0.170532 -0.072002,0.399803 0,0.227377 0.072002,0.396015 0.072003,0.168637 0.2065338,0.261483 0.1345311,0.09284 0.3240115,0.09284 0.1117935,0 0.1970597,-0.02842 0.085266,-0.02842 0.1459,-0.08148 0.062529,-0.05495 0.1042142,-0.128846 0.041685,-0.07579 0.064424,-0.166743 h 0.331591 q -0.02084,0.147795 -0.09095,0.274747 -0.07011,0.126951 -0.181901,0.221692 -0.1117936,0.09474 -0.2576936,0.147794 -0.1440051,0.05306 -0.3126428,0.05306 z m 1.8322754,-0.01516 q -0.198954,0 -0.356223,-0.06821 -0.157269,-0.06821 -0.250114,-0.202745 -0.09095,-0.136425 -0.09095,-0.33538 0,-0.172427 0.06632,-0.280431 0.06821,-0.108004 0.180006,-0.168638 0.113688,-0.06253 0.255799,-0.09474 0.144005,-0.03221 0.293694,-0.05116 0.191376,-0.02653 0.301274,-0.03979 0.109899,-0.01326 0.155374,-0.04358 0.04737,-0.03032 0.04737,-0.106109 v -0.01895 q 0,-0.109899 -0.05305,-0.19327 -0.05116,-0.08527 -0.151585,-0.132637 -0.09853,-0.04926 -0.238745,-0.04926 -0.138321,0 -0.246325,0.04737 -0.106109,0.04547 -0.170532,0.125057 -0.06253,0.07958 -0.07011,0.180006 h -0.327801 q 0.0095,-0.183796 0.113688,-0.325906 0.104215,-0.144005 0.284221,-0.227377 0.180007,-0.08337 0.416857,-0.08337 0.174322,0 0.314538,0.04737 0.14211,0.04737 0.24064,0.134531 0.100424,0.08716 0.153479,0.208429 0.05306,0.121267 0.05306,0.269062 v 1.379418 H 11.965542 V 22.56948 h -0.0076 q -0.036,0.072 -0.106109,0.1459 -0.07011,0.072 -0.18948,0.121267 -0.117478,0.04737 -0.29938,0.04737 z m 0.04548,-0.288011 q 0.197059,0 0.320222,-0.07011 0.123162,-0.072 0.180006,-0.18569 0.05684,-0.113689 0.05684,-0.24443 v -0.250114 q -0.01895,0.01705 -0.07011,0.03221 -0.04927,0.01516 -0.123163,0.03032 -0.072,0.01326 -0.157268,0.02653 -0.08337,0.01326 -0.168638,0.02463 -0.115583,0.01516 -0.219797,0.05305 -0.10232,0.036 -0.166743,0.104215 -0.06442,0.06632 -0.06442,0.180006 0,0.09285 0.04927,0.161058 0.05116,0.06632 0.144005,0.10232 0.09285,0.036 0.219798,0.036 z m 1.675008,-2.565565 v 2.823259 h -0.322117 v -2.823259 z m 0.799607,0 v 2.823259 h -0.322117 v -2.823259 z m 0.511597,3.615287 v -0.284221 h 0.19706 q 0.06253,0 0.109899,-0.02653 0.04927,-0.02463 0.08906,-0.07769 0.03979,-0.05306 0.072,-0.136426 l 0.109899,-0.284221 -0.774975,-1.98386 h 0.348644 l 0.432015,1.152041 q 0.05495,0.144005 0.106109,0.28801 0.05116,0.144006 0.09853,0.288011 h -0.08527 q 0.04737,-0.144005 0.09853,-0.288011 0.05305,-0.144005 0.106109,-0.28801 l 0.424436,-1.152041 h 0.34296 l -0.92277,2.372295 q -0.05306,0.134531 -0.134531,0.227377 -0.08148,0.09474 -0.187586,0.144005 -0.106109,0.04926 -0.233061,0.04926 -0.04927,0 -0.09853,0 -0.04927,0 -0.09853,0 z m 3.550864,-0.761711 q -0.198954,0 -0.356223,-0.06821 -0.157269,-0.06821 -0.250114,-0.202745 -0.09095,-0.136425 -0.09095,-0.33538 0,-0.172427 0.06632,-0.280431 0.06821,-0.108004 0.180006,-0.168638 0.113688,-0.06253 0.255799,-0.09474 0.144005,-0.03221 0.293694,-0.05116 0.191376,-0.02653 0.301274,-0.03979 0.109899,-0.01326 0.155374,-0.04358 0.04737,-0.03032 0.04737,-0.106109 v -0.01895 q 0,-0.109899 -0.05305,-0.19327 -0.05116,-0.08527 -0.151585,-0.132637 -0.09853,-0.04926 -0.238745,-0.04926 -0.138321,0 -0.246325,0.04737 -0.106109,0.04547 -0.170532,0.125057 -0.06253,0.07958 -0.07011,0.180006 h -0.327801 q 0.0095,-0.183796 0.113688,-0.325906 0.104215,-0.144005 0.284221,-0.227377 0.180006,-0.08337 0.416857,-0.08337 0.174322,0 0.314538,0.04737 0.14211,0.04737 0.24064,0.134531 0.100424,0.08716 0.153479,0.208429 0.05306,0.121267 0.05306,0.269062 v 1.379418 H 18.548094 V 22.56948 h -0.0076 q -0.036,0.072 -0.106109,0.1459 -0.07011,0.072 -0.18948,0.121267 -0.117478,0.04737 -0.29938,0.04737 z m 0.04548,-0.288011 q 0.197059,0 0.320222,-0.07011 0.123162,-0.072 0.180006,-0.18569 0.05684,-0.113689 0.05684,-0.24443 v -0.250114 q -0.01895,0.01705 -0.07011,0.03221 -0.04926,0.01516 -0.123163,0.03032 -0.072,0.01326 -0.157269,0.02653 -0.08337,0.01326 -0.168637,0.02463 -0.115583,0.01516 -0.219797,0.05305 -0.10232,0.036 -0.166743,0.104215 -0.06442,0.06632 -0.06442,0.180006 0,0.09285 0.04927,0.161058 0.05116,0.06632 0.144005,0.10232 0.09285,0.036 0.219798,0.036 z m 2.323029,0.257694 v -2.000914 h 0.314538 v 0.409278 h -0.03979 q 0.05874,-0.1459 0.153479,-0.24443 0.09663,-0.100425 0.219798,-0.151584 0.123162,-0.05116 0.259588,-0.05116 0.234956,0 0.397909,0.134531 0.164848,0.132636 0.204639,0.312643 h -0.06632 q 0.04358,-0.123163 0.136426,-0.223587 0.09285,-0.10232 0.227377,-0.162953 0.136426,-0.06063 0.305064,-0.06063 0.183796,0 0.333485,0.07958 0.151584,0.07958 0.24064,0.24064 0.09095,0.161058 0.09095,0.407383 v 1.311205 h -0.322117 v -1.311205 q 0,-0.233061 -0.130741,-0.331591 -0.130742,-0.100425 -0.303169,-0.100425 -0.1459,0 -0.252009,0.06063 -0.106109,0.06063 -0.162953,0.166743 -0.05684,0.106109 -0.05684,0.242535 v 1.273309 h -0.322117 v -1.345312 q 0,-0.180006 -0.121268,-0.28801 -0.119372,-0.109899 -0.301274,-0.109899 -0.125057,0 -0.23685,0.05874 -0.109899,0.05874 -0.178112,0.176217 -0.06821,0.115583 -0.06821,0.28801 v 1.220255 z m 4.081411,0.04547 q -0.276642,0 -0.486965,-0.132636 -0.208428,-0.134532 -0.325906,-0.369487 -0.115583,-0.234956 -0.115583,-0.54002 0,-0.306958 0.115583,-0.543809 0.117478,-0.23685 0.325906,-0.371381 0.210323,-0.134531 0.486965,-0.134531 0.278536,0 0.486965,0.134531 0.208428,0.134531 0.324011,0.371381 0.117478,0.236851 0.117478,0.543809 0,0.305064 -0.117478,0.54002 -0.115583,0.234955 -0.324011,0.369487 -0.208429,0.132636 -0.486965,0.132636 z m 0,-0.2918 q 0.18948,0 0.324011,-0.09284 0.134532,-0.09285 0.206534,-0.261483 0.072,-0.170533 0.072,-0.396015 0,-0.229271 -0.072,-0.397909 -0.072,-0.170532 -0.206534,-0.265272 -0.134531,-0.09474 -0.324011,-0.09474 -0.187586,0 -0.324012,0.09474 -0.134531,0.09285 -0.206533,0.263378 -0.072,0.170532 -0.072,0.399803 0,0.227377 0.072,0.396015 0.072,0.168637 0.206533,0.261483 0.134531,0.09284 0.324012,0.09284 z m 2.069125,0.284221 q -0.259588,0 -0.456648,-0.130742 -0.195165,-0.132636 -0.303169,-0.365697 -0.108004,-0.234956 -0.108004,-0.541914 0,-0.308853 0.108004,-0.541914 0.108004,-0.234956 0.303169,-0.365698 0.19706,-0.130741 0.456648,-0.130741 0.130741,0 0.248219,0.0379 0.119373,0.036 0.216008,0.109899 0.09663,0.0739 0.161058,0.18569 h 0.0038 v -1.117934 h 0.322117 v 2.823259 h -0.314538 v -0.303169 h -0.0038 q -0.072,0.115583 -0.170533,0.191375 -0.09853,0.07579 -0.216007,0.111794 -0.115584,0.0379 -0.246325,0.0379 z m 0.04926,-0.289905 q 0.185691,0 0.322117,-0.09285 0.136426,-0.09284 0.210323,-0.261483 0.0739,-0.168637 0.0739,-0.394119 0,-0.227377 -0.0739,-0.396014 -0.0739,-0.168638 -0.210323,-0.261483 -0.136426,-0.09285 -0.322117,-0.09285 -0.172427,0 -0.306958,0.08527 -0.132637,0.08527 -0.208429,0.252009 -0.07579,0.166743 -0.07579,0.413068 0,0.24443 0.07579,0.411172 0.07579,0.166743 0.208429,0.252009 0.134531,0.08527 0.306958,0.08527 z m 2.205554,0.297484 q -0.293695,0 -0.502123,-0.134531 -0.206534,-0.134531 -0.316433,-0.369487 -0.109898,-0.236851 -0.109898,-0.538125 0,-0.305063 0.115583,-0.541914 0.115583,-0.23685 0.320222,-0.371381 0.204639,-0.136426 0.469911,-0.136426 0.208429,0 0.375172,0.07579 0.168637,0.07579 0.28801,0.216008 0.119373,0.140215 0.181901,0.333485 0.06442,0.191375 0.06442,0.424436 v 0.08906 h -1.644691 v -0.276641 h 1.464684 l -0.138321,0.09663 q 0,-0.204639 -0.0739,-0.354329 -0.072,-0.151584 -0.204639,-0.233061 -0.132636,-0.08337 -0.312643,-0.08337 -0.178111,0 -0.310748,0.08337 -0.130741,0.08148 -0.204639,0.233061 -0.072,0.14969 -0.072,0.354329 v 0.136426 q 0,0.206533 0.07011,0.365697 0.072,0.159164 0.208428,0.250114 0.136426,0.08906 0.331591,0.08906 0.14211,0 0.250114,-0.04358 0.108004,-0.04548 0.178112,-0.125058 0.072,-0.07958 0.102319,-0.183796 h 0.322117 q -0.0379,0.191376 -0.157269,0.337276 -0.119372,0.144005 -0.299379,0.225481 -0.178111,0.08148 -0.396014,0.08148 z m 1.254359,-0.04547 v -2.000914 h 0.306958 v 0.314538 h 0.0076 q 0.05495,-0.155374 0.174322,-0.250115 0.119372,-0.09474 0.306958,-0.09474 0.04358,0 0.07958,0.0038 0.0379,0.0038 0.05684,0.0076 v 0.322117 q -0.01895,-0.0057 -0.0739,-0.01326 -0.05305,-0.0095 -0.123163,-0.0095 -0.109898,0 -0.204639,0.05116 -0.09474,0.05116 -0.151584,0.159163 -0.05684,0.108004 -0.05684,0.278537 v 1.231623 z m 1.572689,-1.17099 v 1.17099 h -0.322117 v -2.000914 h 0.314538 v 0.48507 h -0.09095 q 0.09853,-0.270957 0.272852,-0.396014 0.176217,-0.126952 0.413068,-0.126952 0.202744,0 0.369486,0.08906 0.166743,0.08716 0.265273,0.263378 0.100425,0.176216 0.100425,0.443384 v 1.242992 h -0.322117 v -1.220255 q 0,-0.259588 -0.125057,-0.390329 -0.123162,-0.132637 -0.348644,-0.132637 -0.1459,0 -0.265273,0.05874 -0.119373,0.05874 -0.191375,0.185691 -0.07011,0.125057 -0.07011,0.327801 z m 3.209797,1.17099 -0.621495,-2.000914 h 0.337275 l 0.252009,0.879189 q 0.05874,0.202744 0.111793,0.414963 0.05495,0.212218 0.109899,0.416857 h -0.04547 q 0.05495,-0.204639 0.109898,-0.416857 0.05495,-0.212219 0.113689,-0.414963 l 0.253903,-0.879189 h 0.318328 l 0.250114,0.879189 q 0.05874,0.202744 0.111793,0.414963 0.05495,0.212218 0.109899,0.416857 h -0.05116 q 0.05684,-0.204639 0.111794,-0.416857 0.05684,-0.212219 0.115583,-0.414963 l 0.257693,-0.879189 h 0.337275 l -0.621496,2.000914 h -0.337275 l -0.263378,-0.909507 q -0.0379,-0.136426 -0.07579,-0.276641 -0.036,-0.140216 -0.072,-0.280431 -0.036,-0.142111 -0.0739,-0.278536 h 0.08527 q -0.0379,0.136425 -0.07579,0.278536 -0.036,0.140215 -0.0739,0.280431 -0.036,0.140215 -0.07579,0.276641 l -0.269063,0.909507 z m 3.234433,0.04547 q -0.293694,0 -0.502123,-0.134531 -0.206534,-0.134531 -0.316432,-0.369487 -0.109899,-0.236851 -0.109899,-0.538125 0,-0.305063 0.115583,-0.541914 0.115583,-0.23685 0.320222,-0.371381 0.204639,-0.136426 0.469912,-0.136426 0.208428,0 0.375171,0.07579 0.168638,0.07579 0.28801,0.216008 0.119373,0.140215 0.181902,0.333485 0.06442,0.191375 0.06442,0.424436 v 0.08906 h -1.644691 v -0.276641 h 1.464684 l -0.13832,0.09663 q 0,-0.204639 -0.0739,-0.354329 -0.072,-0.151584 -0.204639,-0.233061 -0.132636,-0.08337 -0.312642,-0.08337 -0.178112,0 -0.310748,0.08337 -0.130742,0.08148 -0.204639,0.233061 -0.072,0.14969 -0.072,0.354329 v 0.136426 q 0,0.206533 0.07011,0.365697 0.072,0.159164 0.208429,0.250114 0.136425,0.08906 0.33159,0.08906 0.142111,0 0.250115,-0.04358 0.108003,-0.04548 0.178111,-0.125058 0.072,-0.07958 0.10232,-0.183796 h 0.322116 q -0.0379,0.191376 -0.157268,0.337276 -0.119373,0.144005 -0.299379,0.225481 -0.178112,0.08148 -0.396015,0.08148 z m 2.205551,-0.0076 q -0.128846,0 -0.246324,-0.0379 -0.117478,-0.036 -0.216008,-0.111794 -0.09853,-0.07579 -0.170532,-0.191375 h -0.0038 v 0.303169 h -0.314538 v -2.823259 h 0.322117 v 1.117934 h 0.0038 q 0.06442,-0.111793 0.161058,-0.18569 0.09663,-0.0739 0.216008,-0.109899 0.119373,-0.0379 0.248219,-0.0379 0.261483,0 0.456648,0.130741 0.195165,0.130742 0.303169,0.365698 0.108004,0.233061 0.108004,0.541914 0,0.306958 -0.108004,0.541914 -0.108004,0.233061 -0.303169,0.365697 -0.195165,0.130742 -0.456648,0.130742 z m -0.04926,-0.289905 q 0.174322,0 0.306959,-0.08527 0.132636,-0.08527 0.208428,-0.252009 0.07579,-0.166742 0.07579,-0.411172 0,-0.246325 -0.07579,-0.413068 -0.07579,-0.166742 -0.208428,-0.252009 -0.132637,-0.08527 -0.306959,-0.08527 -0.18569,0 -0.322116,0.09285 -0.136426,0.09285 -0.210324,0.261483 -0.0739,0.168637 -0.0739,0.396014 0,0.225482 0.0739,0.394119 0.0739,0.168638 0.210324,0.261483 0.136426,0.09285 0.322116,0.09285 z m 1.989549,0.297484 q -0.214113,0 -0.388435,-0.07011 -0.174322,-0.07011 -0.282326,-0.212218 -0.108004,-0.144005 -0.121268,-0.361908 h 0.318328 q 0.01705,0.178112 0.136425,0.272852 0.119373,0.09474 0.329697,0.09474 0.208428,0 0.327801,-0.08716 0.121267,-0.08716 0.121267,-0.219797 0,-0.113688 -0.08337,-0.181901 -0.08337,-0.06821 -0.217903,-0.09853 l -0.322117,-0.07579 q -0.278536,-0.06632 -0.422541,-0.208429 -0.14211,-0.14211 -0.14211,-0.360013 0,-0.170532 0.09095,-0.301273 0.09285,-0.132637 0.255799,-0.206534 0.164848,-0.07579 0.378961,-0.07579 0.208428,0 0.373276,0.07958 0.166743,0.07769 0.263378,0.221693 0.09853,0.144005 0.104214,0.342959 h -0.314537 q -0.0019,-0.159163 -0.117478,-0.263378 -0.115583,-0.104214 -0.308853,-0.104214 -0.183796,0 -0.293695,0.08906 -0.109899,0.08906 -0.109899,0.217902 0,0.113689 0.08337,0.183796 0.08337,0.06821 0.227376,0.10232 l 0.322117,0.07579 q 0.288011,0.06821 0.422542,0.204639 0.134531,0.134531 0.134531,0.350539 0,0.185691 -0.100425,0.318327 -0.100424,0.132636 -0.274747,0.202744 -0.172427,0.07011 -0.390329,0.07011 z m 1.144459,-0.04547 v -2.000914 h 0.322117 v 2.000914 z m 0.161058,-2.391244 q -0.09095,0 -0.155374,-0.06442 -0.06442,-0.06442 -0.06442,-0.155374 0,-0.09095 0.06442,-0.155374 0.06442,-0.06442 0.155374,-0.06442 0.09095,0 0.155374,0.06442 0.06442,0.06442 0.06442,0.155374 0,0.09095 -0.06442,0.155374 -0.06442,0.06442 -0.155374,0.06442 z m 1.549952,0.39033 v 0.276641 H 43.90816 V 20.852787 Z M 44.264383,20.307083 H 44.5865 v 2.061548 q 0,0.115583 0.04737,0.162953 0.04926,0.04547 0.172427,0.04547 0.04358,0 0.09285,0 0.05116,0 0.09284,0 v 0.276642 q -0.04926,0 -0.108004,0 -0.05874,0 -0.108004,0 -0.257693,0 -0.384645,-0.111794 -0.126952,-0.113688 -0.126952,-0.33917 z m 1.849329,2.592093 q -0.293695,0 -0.502123,-0.134531 -0.206534,-0.134531 -0.316432,-0.369487 -0.109899,-0.236851 -0.109899,-0.538125 0,-0.305063 0.115583,-0.541914 0.115583,-0.23685 0.320222,-0.371381 0.204639,-0.136426 0.469911,-0.136426 0.208429,0 0.375172,0.07579 0.168637,0.07579 0.28801,0.216008 0.119373,0.140215 0.181901,0.333485 0.06442,0.191375 0.06442,0.424436 v 0.08906 H 45.35579 v -0.276641 h 1.464684 l -0.13832,0.09663 q 0,-0.204639 -0.0739,-0.354329 -0.072,-0.151584 -0.204639,-0.233061 -0.132636,-0.08337 -0.312643,-0.08337 -0.178111,0 -0.310747,0.08337 -0.130742,0.08148 -0.204639,0.233061 -0.072,0.14969 -0.072,0.354329 v 0.136426 q 0,0.206533 0.07011,0.365697 0.072,0.159164 0.208428,0.250114 0.136426,0.08906 0.331591,0.08906 0.142111,0 0.250114,-0.04358 0.108004,-0.04548 0.178112,-0.125058 0.072,-0.07958 0.102319,-0.183796 h 0.322117 q -0.0379,0.191376 -0.157269,0.337276 -0.119372,0.144005 -0.299379,0.225481 -0.178111,0.08148 -0.396014,0.08148 z m 1.121723,0.486965 0.166743,-0.92656 h 0.344854 l -0.276641,0.92656 z m 2.906632,-0.494544 q -0.128847,0 -0.246325,-0.0379 -0.117478,-0.036 -0.216008,-0.111794 -0.09853,-0.07579 -0.170532,-0.191375 h -0.0038 v 0.303169 h -0.314537 v -2.823259 h 0.322117 v 1.117934 h 0.0038 q 0.06442,-0.111793 0.161059,-0.18569 0.09663,-0.0739 0.216007,-0.109899 0.119373,-0.0379 0.24822,-0.0379 0.261483,0 0.456648,0.130741 0.195164,0.130742 0.303168,0.365698 0.108004,0.233061 0.108004,0.541914 0,0.306958 -0.108004,0.541914 -0.108004,0.233061 -0.303168,0.365697 -0.195165,0.130742 -0.456648,0.130742 z m -0.04926,-0.289905 q 0.174322,0 0.306958,-0.08527 0.132636,-0.08527 0.208429,-0.252009 0.07579,-0.166742 0.07579,-0.411172 0,-0.246325 -0.07579,-0.413068 -0.07579,-0.166742 -0.208429,-0.252009 -0.132636,-0.08527 -0.306958,-0.08527 -0.185691,0 -0.322117,0.09285 -0.136426,0.09285 -0.210323,0.261483 -0.0739,0.168637 -0.0739,0.396014 0,0.225482 0.0739,0.394119 0.0739,0.168638 0.210323,0.261483 0.136426,0.09285 0.322117,0.09285 z m 2.02744,0.289905 q -0.200849,0 -0.369487,-0.08716 -0.166742,-0.08906 -0.267167,-0.265273 -0.09853,-0.178112 -0.09853,-0.443384 v -1.242992 h 0.322117 v 1.220254 q 0,0.259588 0.125057,0.392225 0.125057,0.130741 0.348644,0.130741 0.1459,0 0.265273,-0.05874 0.119372,-0.05874 0.18948,-0.185691 0.072,-0.126952 0.072,-0.327801 v -1.170989 h 0.322117 v 2.000914 h -0.314538 v -0.48507 h 0.09095 q -0.09853,0.269062 -0.274747,0.396014 -0.174322,0.126952 -0.411173,0.126952 z m 2.260502,-2.03881 v 0.276641 h -1.083828 v -0.276641 z m -0.727605,-0.545704 h 0.322117 v 2.061548 q 0,0.115583 0.04737,0.162953 0.04926,0.04547 0.172427,0.04547 0.04358,0 0.09285,0 0.05116,0 0.09284,0 v 0.276642 q -0.04926,0 -0.108004,0 -0.05874,0 -0.108004,0 -0.257693,0 -0.384645,-0.111794 -0.126952,-0.113688 -0.126952,-0.33917 z m 2.470826,2.546618 -0.621496,-2.000914 h 0.337276 l 0.252009,0.879189 q 0.05874,0.202744 0.111793,0.414963 0.05495,0.212218 0.109899,0.416857 h -0.04547 q 0.05495,-0.204639 0.109898,-0.416857 0.05495,-0.212219 0.113688,-0.414963 l 0.253904,-0.879189 h 0.318327 l 0.250115,0.879189 q 0.05874,0.202744 0.111793,0.414963 0.05495,0.212218 0.109899,0.416857 h -0.05116 q 0.05684,-0.204639 0.111794,-0.416857 0.05684,-0.212219 0.115583,-0.414963 l 0.257693,-0.879189 h 0.337275 l -0.621496,2.000914 h -0.337275 l -0.263378,-0.909507 q -0.0379,-0.136426 -0.07579,-0.276641 -0.036,-0.140216 -0.072,-0.280431 -0.036,-0.142111 -0.0739,-0.278536 h 0.08527 q -0.0379,0.136425 -0.07579,0.278536 -0.036,0.140215 -0.0739,0.280431 -0.036,0.140215 -0.07579,0.276641 l -0.269063,0.909507 z m 2.478405,0 v -2.000914 h 0.322117 v 2.000914 z m 0.161058,-2.391244 q -0.09095,0 -0.155374,-0.06442 -0.06442,-0.06442 -0.06442,-0.155374 0,-0.09095 0.06442,-0.155374 0.06442,-0.06442 0.155374,-0.06442 0.09095,0 0.155374,0.06442 0.06442,0.06442 0.06442,0.155374 0,0.09095 -0.06442,0.155374 -0.06442,0.06442 -0.155374,0.06442 z m 1.549952,0.39033 v 0.276641 h -1.083828 v -0.276641 z m -0.727605,-0.545704 h 0.322117 v 2.061548 q 0,0.115583 0.04737,0.162953 0.04927,0.04547 0.172427,0.04547 0.04358,0 0.09285,0 0.05116,0 0.09285,0 v 0.276642 q -0.04927,0 -0.108004,0 -0.05874,0 -0.108003,0 -0.257694,0 -0.384646,-0.111794 -0.126952,-0.113688 -0.126952,-0.33917 z m 1.383206,1.375628 v 1.17099 h -0.322116 v -2.823259 h 0.322116 v 1.307415 h -0.09853 q 0.09853,-0.270957 0.272851,-0.396014 0.176217,-0.126952 0.413068,-0.126952 0.202744,0 0.369487,0.08906 0.166743,0.08716 0.265272,0.263378 0.100425,0.176216 0.100425,0.443384 v 1.242992 h -0.322117 v -1.220255 q 0,-0.259588 -0.125057,-0.390329 -0.123162,-0.132637 -0.348644,-0.132637 -0.1459,0 -0.265273,0.05874 -0.119372,0.05874 -0.191375,0.185691 -0.07011,0.125057 -0.07011,0.327801 z m 3.467491,1.216465 q -0.214113,0 -0.388435,-0.07011 -0.174322,-0.07011 -0.282326,-0.212218 -0.108004,-0.144005 -0.121267,-0.361908 h 0.318327 q 0.01705,0.178112 0.136426,0.272852 0.119373,0.09474 0.329696,0.09474 0.208428,0 0.327801,-0.08716 0.121268,-0.08716 0.121268,-0.219797 0,-0.113688 -0.08337,-0.181901 -0.08337,-0.06821 -0.217902,-0.09853 l -0.322117,-0.07579 q -0.278536,-0.06632 -0.422541,-0.208429 -0.142111,-0.14211 -0.142111,-0.360013 0,-0.170532 0.09095,-0.301273 0.09284,-0.132637 0.255798,-0.206534 0.164848,-0.07579 0.378961,-0.07579 0.208429,0 0.373277,0.07958 0.166743,0.07769 0.263378,0.221693 0.09853,0.144005 0.104214,0.342959 H 64.84196 q -0.0019,-0.159163 -0.117478,-0.263378 -0.115583,-0.104214 -0.308853,-0.104214 -0.183796,0 -0.293694,0.08906 -0.109899,0.08906 -0.109899,0.217902 0,0.113689 0.08337,0.183796 0.08337,0.06821 0.227377,0.10232 l 0.322117,0.07579 q 0.28801,0.06821 0.422541,0.204639 0.134531,0.134531 0.134531,0.350539 0,0.185691 -0.100424,0.318327 -0.100425,0.132636 -0.274747,0.202744 -0.172427,0.07011 -0.39033,0.07011 z m 1.970598,0 q -0.276641,0 -0.486965,-0.132636 -0.208428,-0.134532 -0.325906,-0.369487 -0.115583,-0.234956 -0.115583,-0.54002 0,-0.306958 0.115583,-0.543809 0.117478,-0.23685 0.325906,-0.371381 0.210324,-0.134531 0.486965,-0.134531 0.278536,0 0.486965,0.134531 0.208428,0.134531 0.324011,0.371381 0.117478,0.236851 0.117478,0.543809 0,0.305064 -0.117478,0.54002 -0.115583,0.234955 -0.324011,0.369487 -0.208429,0.132636 -0.486965,0.132636 z m 0,-0.2918 q 0.18948,0 0.324012,-0.09284 0.134531,-0.09285 0.206533,-0.261483 0.072,-0.170533 0.072,-0.396015 0,-0.229271 -0.072,-0.397909 -0.072,-0.170532 -0.206533,-0.265272 -0.134532,-0.09474 -0.324012,-0.09474 -0.187586,0 -0.324012,0.09474 -0.134531,0.09285 -0.206533,0.263378 -0.072,0.170532 -0.072,0.399803 0,0.227377 0.072,0.396015 0.072,0.168637 0.206533,0.261483 0.134532,0.09284 0.324012,0.09284 z m 2.03881,0.284221 q -0.200849,0 -0.369487,-0.08716 -0.166743,-0.08906 -0.267167,-0.265273 -0.09853,-0.178112 -0.09853,-0.443384 v -1.242992 h 0.322117 v 1.220254 q 0,0.259588 0.125057,0.392225 0.125057,0.130741 0.348644,0.130741 0.1459,0 0.265273,-0.05874 0.119372,-0.05874 0.18948,-0.185691 0.072,-0.126952 0.072,-0.327801 v -1.170989 h 0.322116 v 2.000914 h -0.314537 v -0.48507 h 0.09095 q -0.09853,0.269062 -0.274746,0.396014 -0.174322,0.126952 -0.411173,0.126952 z m 1.709117,-2.861155 v 2.823259 h -0.322116 v -2.823259 z"
            id="path5" />
         <path
            d="m 2.792793,27.742297 q -0.1288467,0 -0.2463246,-0.0379 -0.1174779,-0.036 -0.2160077,-0.111794 -0.09853,-0.07579 -0.1705325,-0.191375 h -0.00379 v 0.303169 H 1.8416011 v -2.823259 h 0.3221168 v 1.117934 h 0.00379 q 0.064423,-0.111793 0.1610584,-0.185691 0.096635,-0.0739 0.2160077,-0.109898 0.1193727,-0.0379 0.2482194,-0.0379 0.261483,0 0.4566479,0.130741 0.1951649,0.130742 0.3031688,0.365698 0.1080038,0.233061 0.1080038,0.541914 0,0.306958 -0.1080038,0.541914 -0.1080039,0.233061 -0.3031688,0.365697 -0.1951649,0.130742 -0.4566479,0.130742 z m -0.049265,-0.289905 q 0.174322,0 0.3069583,-0.08527 0.1326364,-0.08527 0.2084285,-0.252009 0.075792,-0.166743 0.075792,-0.411172 0,-0.246325 -0.075792,-0.413068 -0.075792,-0.166743 -0.2084285,-0.252009 -0.1326363,-0.08527 -0.3069583,-0.08527 -0.1856909,0 -0.3221168,0.09285 -0.1364259,0.09285 -0.2103233,0.261484 -0.073897,0.168637 -0.073897,0.396014 0,0.225481 0.073897,0.394119 0.073897,0.168638 0.2103233,0.261483 0.1364259,0.09285 0.3221168,0.09285 z m 2.1183916,0.297484 q -0.2936947,0 -0.5021232,-0.134531 -0.2065337,-0.134531 -0.3164324,-0.369487 -0.1098987,-0.236851 -0.1098987,-0.538125 0,-0.305063 0.1155831,-0.541914 0.1155831,-0.23685 0.320222,-0.371382 0.2046389,-0.136425 0.4699116,-0.136425 0.2084285,0 0.3751713,0.07579 0.1686376,0.07579 0.2880103,0.216007 0.1193727,0.140216 0.1819012,0.333486 0.064423,0.191375 0.064423,0.424436 v 0.08906 H 4.1039979 v -0.276641 h 1.464684 l -0.1383208,0.09664 q 0,-0.204639 -0.073897,-0.354329 -0.072002,-0.151584 -0.2046389,-0.233061 -0.1326363,-0.08337 -0.3126427,-0.08337 -0.1781117,0 -0.310748,0.08337 -0.1307415,0.08148 -0.2046389,0.233061 -0.072003,0.14969 -0.072003,0.354329 v 0.136426 q 0,0.206533 0.070108,0.365697 0.072003,0.159163 0.2084285,0.250114 0.1364259,0.08906 0.3315908,0.08906 0.1421104,0 0.2501142,-0.04358 0.1080039,-0.04547 0.1781117,-0.125057 0.072002,-0.07958 0.1023194,-0.183796 h 0.3221168 q -0.037896,0.191376 -0.1572688,0.337275 -0.1193727,0.144006 -0.2993791,0.225482 -0.1781116,0.08148 -0.3960142,0.08148 z m 2.0804954,0 q -0.2766415,0 -0.4869648,-0.132636 -0.2084285,-0.134532 -0.3259064,-0.369487 -0.1155831,-0.234956 -0.1155831,-0.54002 0,-0.306958 0.1155831,-0.543809 0.1174779,-0.23685 0.3259064,-0.371381 0.2103233,-0.134531 0.4869648,-0.134531 0.1705324,0 0.3145376,0.05305 0.1458999,0.05116 0.2557986,0.1459 0.1117935,0.09285 0.1819012,0.219797 0.070108,0.126952 0.090951,0.278537 H 7.4596967 q -0.017053,-0.08906 -0.058739,-0.162954 -0.041686,-0.0739 -0.1080039,-0.126951 -0.064423,-0.05495 -0.1515843,-0.08527 -0.087161,-0.03032 -0.1989545,-0.03032 -0.1875857,0 -0.3240116,0.09474 -0.1345311,0.09285 -0.2065337,0.263378 -0.072003,0.170532 -0.072003,0.399803 0,0.227377 0.072003,0.396014 0.072003,0.168638 0.2065337,0.261484 0.1345311,0.09284 0.3240116,0.09284 0.1117935,0 0.1970597,-0.02842 0.085266,-0.02842 0.1458999,-0.08148 0.062529,-0.05495 0.1042143,-0.128846 0.041686,-0.07579 0.064423,-0.166743 h 0.3315908 q -0.020843,0.147795 -0.090951,0.274746 -0.070108,0.126952 -0.1819012,0.221693 -0.1117935,0.09474 -0.2576935,0.147794 -0.1440051,0.05306 -0.3126427,0.05306 z m 1.8322763,-0.01516 q -0.1989545,0 -0.3562233,-0.06821 -0.1572688,-0.06821 -0.2501142,-0.202744 -0.090951,-0.136426 -0.090951,-0.33538 0,-0.172427 0.066318,-0.280431 0.068213,-0.108004 0.1800064,-0.168638 0.1136883,-0.06253 0.2557986,-0.09474 0.1440052,-0.03221 0.2936947,-0.05116 0.1913753,-0.02653 0.301274,-0.03979 0.1098987,-0.01326 0.155374,-0.04358 0.04737,-0.03032 0.04737,-0.106109 v -0.01895 q 0,-0.109899 -0.053055,-0.19327 -0.05116,-0.08527 -0.1515844,-0.132637 -0.09853,-0.04926 -0.2387454,-0.04926 -0.1383207,0 -0.2463246,0.04737 -0.1061091,0.04547 -0.1705324,0.125057 -0.062529,0.07958 -0.070108,0.180006 H 8.119089 q 0.00947,-0.183796 0.1136883,-0.325906 0.1042142,-0.144005 0.2842207,-0.227377 0.1800064,-0.08337 0.416857,-0.08337 0.174322,0 0.3145376,0.04737 0.1421103,0.04737 0.2406402,0.134531 0.1004246,0.08716 0.1534791,0.208428 0.053055,0.121268 0.053055,0.269063 v 1.379418 H 9.3772393 V 27.42018 h -0.00758 q -0.036001,0.072 -0.1061091,0.1459 -0.070108,0.072 -0.1894805,0.121267 -0.1174779,0.04737 -0.2993791,0.04737 z m 0.045475,-0.28801 q 0.1970597,0 0.320222,-0.07011 0.1231623,-0.072 0.1800064,-0.185691 0.056844,-0.113688 0.056844,-0.244429 v -0.250115 q -0.018948,0.01705 -0.070108,0.03221 -0.049265,0.01516 -0.1231623,0.03032 -0.072003,0.01326 -0.1572688,0.02653 -0.083371,0.01326 -0.1686376,0.02463 -0.1155831,0.01516 -0.2197973,0.05305 -0.1023195,0.036 -0.1667428,0.104215 -0.064423,0.06632 -0.064423,0.180006 0,0.09284 0.049265,0.161058 0.05116,0.06632 0.1440052,0.10232 0.092845,0.036 0.2197973,0.036 z m 2.0880743,0.29559 q -0.200849,0 -0.369486,-0.08716 -0.166743,-0.08906 -0.267168,-0.265273 -0.09853,-0.178112 -0.09853,-0.443384 v -1.242992 h 0.322117 v 1.220254 q 0,0.259588 0.125057,0.392225 0.125057,0.130741 0.348644,0.130741 0.1459,0 0.265273,-0.05874 0.119373,-0.05874 0.18948,-0.185691 0.072,-0.126952 0.072,-0.327801 v -1.170989 h 0.322117 v 2.000914 H 11.50321 v -0.48507 h 0.09095 q -0.09853,0.269062 -0.274747,0.396014 -0.174322,0.126952 -0.411173,0.126952 z m 2.084285,0.0076 q -0.214113,0 -0.388435,-0.07011 -0.174322,-0.07011 -0.282326,-0.212218 -0.108003,-0.144005 -0.121267,-0.361908 h 0.318327 q 0.01705,0.178112 0.136426,0.272852 0.119373,0.09474 0.329696,0.09474 0.208429,0 0.327801,-0.08716 0.121268,-0.08716 0.121268,-0.219797 0,-0.113688 -0.08337,-0.181901 -0.08337,-0.06821 -0.217902,-0.09853 l -0.322117,-0.07579 q -0.278536,-0.06632 -0.422541,-0.208429 -0.142111,-0.14211 -0.142111,-0.360013 0,-0.170532 0.09095,-0.301274 0.09285,-0.132636 0.255799,-0.206533 0.164848,-0.07579 0.37896,-0.07579 0.208429,0 0.373277,0.07958 0.166743,0.07769 0.263378,0.221692 0.09853,0.144006 0.104214,0.34296 h -0.314538 q -0.0019,-0.159163 -0.117477,-0.263378 -0.115583,-0.104214 -0.308854,-0.104214 -0.183796,0 -0.293694,0.08906 -0.109899,0.08906 -0.109899,0.217902 0,0.113689 0.08337,0.183796 0.08337,0.06821 0.227377,0.10232 l 0.322117,0.07579 q 0.28801,0.06821 0.422541,0.204639 0.134531,0.134531 0.134531,0.350539 0,0.185691 -0.100424,0.318327 -0.100425,0.132636 -0.274747,0.202744 -0.172427,0.07011 -0.39033,0.07011 z m 1.970597,0 q -0.293695,0 -0.502123,-0.134531 -0.206534,-0.134531 -0.316432,-0.369487 -0.109899,-0.236851 -0.109899,-0.538125 0,-0.305063 0.115583,-0.541914 0.115583,-0.23685 0.320222,-0.371382 0.204639,-0.136425 0.469912,-0.136425 0.208428,0 0.375171,0.07579 0.168637,0.07579 0.28801,0.216007 0.119373,0.140216 0.181901,0.333486 0.06442,0.191375 0.06442,0.424436 v 0.08906 h -1.644691 v -0.276641 h 1.464684 l -0.13832,0.09664 q 0,-0.204639 -0.0739,-0.354329 -0.072,-0.151584 -0.204639,-0.233061 -0.132636,-0.08337 -0.312642,-0.08337 -0.178112,0 -0.310748,0.08337 -0.130742,0.08148 -0.204639,0.233061 -0.072,0.14969 -0.072,0.354329 v 0.136426 q 0,0.206533 0.07011,0.365697 0.072,0.159163 0.208428,0.250114 0.136426,0.08906 0.331591,0.08906 0.142111,0 0.250114,-0.04358 0.108004,-0.04547 0.178112,-0.125057 0.072,-0.07958 0.102319,-0.183796 h 0.322117 q -0.0379,0.191376 -0.157269,0.337275 -0.119372,0.144006 -0.299379,0.225482 -0.178111,0.08148 -0.396014,0.08148 z m 2.224502,-0.04547 v -2.000914 h 0.322116 v 2.000914 z m 0.161058,-2.391244 q -0.09095,0 -0.155374,-0.06442 -0.06442,-0.06442 -0.06442,-0.155374 0,-0.09095 0.06442,-0.155374 0.06442,-0.06442 0.155374,-0.06442 0.09095,0 0.155374,0.06442 0.06442,0.06442 0.06442,0.155374 0,0.09095 -0.06442,0.155374 -0.06442,0.06442 -0.155374,0.06442 z m 1.54995,0.39033 v 0.276641 h -1.083828 v -0.276641 z m -0.727605,-0.545704 h 0.322117 v 2.061548 q 0,0.115583 0.04737,0.162953 0.04927,0.04547 0.172427,0.04547 0.04358,0 0.09285,0 0.05116,0 0.09285,0 v 0.276642 q -0.04927,0 -0.108004,0 -0.05874,0 -0.108004,0 -0.257693,0 -0.384645,-0.111794 -0.126952,-0.113688 -0.126952,-0.33917 z m 1.193728,0.68213 -0.0379,-0.958771 h 0.318328 l -0.0379,0.958771 z m 1.417313,1.909963 q -0.214113,0 -0.388435,-0.07011 -0.174322,-0.07011 -0.282326,-0.212218 -0.108004,-0.144005 -0.121268,-0.361908 h 0.318327 q 0.01705,0.178112 0.136426,0.272852 0.119373,0.09474 0.329696,0.09474 0.208429,0 0.327801,-0.08716 0.121268,-0.08716 0.121268,-0.219797 0,-0.113688 -0.08337,-0.181901 -0.08337,-0.06821 -0.217903,-0.09853 l -0.322117,-0.07579 q -0.278536,-0.06632 -0.422541,-0.208429 -0.142111,-0.14211 -0.142111,-0.360013 0,-0.170532 0.09095,-0.301274 0.09285,-0.132636 0.255799,-0.206533 0.164848,-0.07579 0.378961,-0.07579 0.208428,0 0.373276,0.07958 0.166743,0.07769 0.263378,0.221692 0.09853,0.144006 0.104214,0.34296 h -0.314537 q -0.0019,-0.159163 -0.117478,-0.263378 -0.115583,-0.104214 -0.308853,-0.104214 -0.183796,0 -0.293695,0.08906 -0.109899,0.08906 -0.109899,0.217902 0,0.113689 0.08337,0.183796 0.08337,0.06821 0.227376,0.10232 l 0.322117,0.07579 q 0.28801,0.06821 0.422541,0.204639 0.134532,0.134531 0.134532,0.350539 0,0.185691 -0.100425,0.318327 -0.100425,0.132636 -0.274747,0.202744 -0.172427,0.07011 -0.390329,0.07011 z m 2.436718,-1.216465 v 1.17099 H 22.89667 v -2.000914 h 0.314538 v 0.48507 h -0.09095 q 0.09853,-0.270957 0.272852,-0.396014 0.176217,-0.126952 0.413067,-0.126952 0.202744,0 0.369487,0.08906 0.166743,0.08716 0.265273,0.263377 0.100424,0.176217 0.100424,0.443385 v 1.242992 h -0.322116 v -1.220255 q 0,-0.259588 -0.125057,-0.390329 -0.123163,-0.132637 -0.348644,-0.132637 -0.1459,0 -0.265273,0.05874 -0.119373,0.05874 -0.191375,0.185691 -0.07011,0.125057 -0.07011,0.327801 z m 2.626199,1.216465 q -0.276642,0 -0.486965,-0.132636 -0.208429,-0.134532 -0.325906,-0.369487 -0.115583,-0.234956 -0.115583,-0.54002 0,-0.306958 0.115583,-0.543809 0.117477,-0.23685 0.325906,-0.371381 0.210323,-0.134531 0.486965,-0.134531 0.278536,0 0.486965,0.134531 0.208428,0.134531 0.324011,0.371381 0.117478,0.236851 0.117478,0.543809 0,0.305064 -0.117478,0.54002 -0.115583,0.234955 -0.324011,0.369487 -0.208429,0.132636 -0.486965,0.132636 z m 0,-0.2918 q 0.18948,0 0.324011,-0.09284 0.134532,-0.09285 0.206534,-0.261484 0.072,-0.170532 0.072,-0.396014 0,-0.229271 -0.072,-0.397909 -0.072,-0.170532 -0.206534,-0.265272 -0.134531,-0.09474 -0.324011,-0.09474 -0.187586,0 -0.324012,0.09474 -0.134531,0.09285 -0.206533,0.263378 -0.072,0.170532 -0.072,0.399803 0,0.227377 0.072,0.396014 0.072,0.168638 0.206533,0.261484 0.134531,0.09284 0.324012,0.09284 z m 2.177131,-1.754589 v 0.276641 h -1.083829 v -0.276641 z m -0.727605,-0.545704 h 0.322116 v 2.061548 q 0,0.115583 0.04737,0.162953 0.04926,0.04547 0.172427,0.04547 0.04358,0 0.09285,0 0.05116,0 0.09285,0 v 0.276642 q -0.04927,0 -0.108004,0 -0.05874,0 -0.108004,0 -0.257694,0 -0.384645,-0.111794 -0.126952,-0.113688 -0.126952,-0.33917 z m 2.857366,2.592093 q -0.276641,0 -0.486965,-0.132636 -0.208428,-0.134532 -0.325906,-0.369487 -0.115583,-0.234956 -0.115583,-0.54002 0,-0.306958 0.115583,-0.543809 0.117478,-0.23685 0.325906,-0.371381 0.210324,-0.134531 0.486965,-0.134531 0.278536,0 0.486965,0.134531 0.208429,0.134531 0.324012,0.371381 0.117477,0.236851 0.117477,0.543809 0,0.305064 -0.117477,0.54002 -0.115583,0.234955 -0.324012,0.369487 -0.208429,0.132636 -0.486965,0.132636 z m 0,-0.2918 q 0.189481,0 0.324012,-0.09284 0.134531,-0.09285 0.206534,-0.261484 0.072,-0.170532 0.072,-0.396014 0,-0.229271 -0.072,-0.397909 -0.072,-0.170532 -0.206534,-0.265272 -0.134531,-0.09474 -0.324012,-0.09474 -0.187585,0 -0.324011,0.09474 -0.134532,0.09285 -0.206534,0.263378 -0.072,0.170532 -0.072,0.399803 0,0.227377 0.072,0.396014 0.072,0.168638 0.206534,0.261484 0.134531,0.09284 0.324011,0.09284 z m 1.673112,0.246325 -0.621496,-2.000914 h 0.337276 l 0.252009,0.879189 q 0.05874,0.202744 0.111793,0.414962 0.05495,0.212219 0.109899,0.416857 h -0.04547 q 0.05495,-0.204638 0.109898,-0.416857 0.05495,-0.212218 0.113688,-0.414962 l 0.253904,-0.879189 h 0.318327 l 0.250115,0.879189 q 0.05874,0.202744 0.111793,0.414962 0.05495,0.212219 0.109899,0.416857 h -0.05116 q 0.05684,-0.204638 0.111794,-0.416857 0.05684,-0.212218 0.115583,-0.414962 l 0.257693,-0.879189 h 0.337275 l -0.621496,2.000914 h -0.337275 l -0.263378,-0.909507 q -0.0379,-0.136426 -0.07579,-0.276641 -0.036,-0.140216 -0.072,-0.280431 -0.036,-0.142111 -0.0739,-0.278537 h 0.08527 q -0.0379,0.136426 -0.07579,0.278537 -0.036,0.140215 -0.0739,0.280431 -0.036,0.140215 -0.07579,0.276641 l -0.269063,0.909507 z m 2.80052,-1.17099 v 1.17099 h -0.322117 v -2.000914 h 0.314538 v 0.48507 h -0.09095 q 0.09853,-0.270957 0.272852,-0.396014 0.176217,-0.126952 0.413067,-0.126952 0.202744,0 0.369487,0.08906 0.166743,0.08716 0.265273,0.263377 0.100424,0.176217 0.100424,0.443385 v 1.242992 h -0.322116 v -1.220255 q 0,-0.259588 -0.125057,-0.390329 -0.123163,-0.132637 -0.348644,-0.132637 -0.1459,0 -0.265273,0.05874 -0.119373,0.05874 -0.191375,0.185691 -0.07011,0.125057 -0.07011,0.327801 z m 2.626203,1.216465 q -0.293695,0 -0.502124,-0.134531 -0.206533,-0.134531 -0.316432,-0.369487 -0.109899,-0.236851 -0.109899,-0.538125 0,-0.305063 0.115583,-0.541914 0.115584,-0.23685 0.320222,-0.371382 0.204639,-0.136425 0.469912,-0.136425 0.208428,0 0.375171,0.07579 0.168638,0.07579 0.288011,0.216007 0.119372,0.140216 0.181901,0.333486 0.06442,0.191375 0.06442,0.424436 v 0.08906 h -1.64469 v -0.276641 h 1.464684 l -0.138321,0.09664 q 0,-0.204639 -0.0739,-0.354329 -0.072,-0.151584 -0.204639,-0.233061 -0.132637,-0.08337 -0.312643,-0.08337 -0.178112,0 -0.310748,0.08337 -0.130741,0.08148 -0.204639,0.233061 -0.072,0.14969 -0.072,0.354329 v 0.136426 q 0,0.206533 0.07011,0.365697 0.072,0.159163 0.208429,0.250114 0.136426,0.08906 0.331591,0.08906 0.14211,0 0.250114,-0.04358 0.108004,-0.04547 0.178111,-0.125057 0.072,-0.07958 0.10232,-0.183796 h 0.322117 q -0.0379,0.191376 -0.157269,0.337275 -0.119373,0.144006 -0.299379,0.225482 -0.178112,0.08148 -0.396014,0.08148 z m 2.01986,-0.0076 q -0.259588,0 -0.456648,-0.130742 -0.195165,-0.132636 -0.303169,-0.365697 -0.108004,-0.234956 -0.108004,-0.541914 0,-0.308853 0.108004,-0.541914 0.108004,-0.234956 0.303169,-0.365698 0.19706,-0.130741 0.456648,-0.130741 0.130741,0 0.248219,0.0379 0.119373,0.036 0.216008,0.109898 0.09663,0.0739 0.161058,0.185691 h 0.0038 v -1.117934 h 0.322117 v 2.823259 h -0.314538 v -0.303169 h -0.0038 q -0.072,0.115583 -0.170533,0.191375 -0.09853,0.07579 -0.216008,0.111794 -0.115583,0.0379 -0.246324,0.0379 z m 0.04927,-0.289905 q 0.185691,0 0.322117,-0.09285 0.136425,-0.09285 0.210323,-0.261483 0.0739,-0.168638 0.0739,-0.394119 0,-0.227377 -0.0739,-0.396014 -0.0739,-0.168638 -0.210323,-0.261484 -0.136426,-0.09285 -0.322117,-0.09285 -0.172427,0 -0.306959,0.08527 -0.132636,0.08527 -0.208428,0.252009 -0.07579,0.166743 -0.07579,0.413068 0,0.244429 0.07579,0.411172 0.07579,0.166743 0.208428,0.252009 0.134532,0.08527 0.306959,0.08527 z m 3.300748,0.289905 q -0.128847,0 -0.246325,-0.0379 -0.117478,-0.036 -0.216008,-0.111794 -0.09853,-0.07579 -0.170532,-0.191375 h -0.0038 v 0.303169 h -0.314537 v -2.823259 h 0.322116 v 1.117934 h 0.0038 q 0.06442,-0.111793 0.161058,-0.185691 0.09663,-0.0739 0.216008,-0.109898 0.119373,-0.0379 0.24822,-0.0379 0.261483,0 0.456647,0.130741 0.195165,0.130742 0.303169,0.365698 0.108004,0.233061 0.108004,0.541914 0,0.306958 -0.108004,0.541914 -0.108004,0.233061 -0.303169,0.365697 -0.195164,0.130742 -0.456647,0.130742 z m -0.04926,-0.289905 q 0.174322,0 0.306958,-0.08527 0.132636,-0.08527 0.208429,-0.252009 0.07579,-0.166743 0.07579,-0.411172 0,-0.246325 -0.07579,-0.413068 -0.07579,-0.166743 -0.208429,-0.252009 -0.132636,-0.08527 -0.306958,-0.08527 -0.185691,0 -0.322117,0.09285 -0.136426,0.09285 -0.210323,0.261484 -0.0739,0.168637 -0.0739,0.396014 0,0.225481 0.0739,0.394119 0.0739,0.168638 0.210323,0.261483 0.136426,0.09285 0.322117,0.09285 z m 1.231624,1.044037 v -0.284221 h 0.19706 q 0.06253,0 0.109898,-0.02653 0.04926,-0.02463 0.08906,-0.07769 0.03979,-0.05306 0.072,-0.136426 l 0.109898,-0.284221 -0.774975,-1.98386 h 0.348644 l 0.432016,1.152041 q 0.05495,0.144005 0.106109,0.28801 0.05116,0.144006 0.09853,0.288011 h -0.08527 q 0.04737,-0.144005 0.09853,-0.288011 0.05306,-0.144005 0.106109,-0.28801 l 0.424437,-1.152041 h 0.342959 l -0.92277,2.372295 q -0.05305,0.134531 -0.134531,0.227377 -0.08148,0.09474 -0.187585,0.144005 -0.106109,0.04926 -0.233061,0.04926 -0.04926,0 -0.09853,0 -0.04927,0 -0.09853,0 z m 3.550863,-0.761712 q -0.198954,0 -0.356223,-0.06821 -0.157269,-0.06821 -0.250114,-0.202744 -0.09095,-0.136426 -0.09095,-0.33538 0,-0.172427 0.06632,-0.280431 0.06821,-0.108004 0.180007,-0.168638 0.113688,-0.06253 0.255798,-0.09474 0.144005,-0.03221 0.293695,-0.05116 0.191375,-0.02653 0.301274,-0.03979 0.109899,-0.01326 0.155374,-0.04358 0.04737,-0.03032 0.04737,-0.106109 v -0.01895 q 0,-0.109899 -0.05306,-0.19327 -0.05116,-0.08527 -0.151584,-0.132637 -0.09853,-0.04926 -0.238745,-0.04926 -0.138321,0 -0.246325,0.04737 -0.106109,0.04547 -0.170532,0.125057 -0.06253,0.07958 -0.07011,0.180006 h -0.327801 q 0.0095,-0.183796 0.113688,-0.325906 0.104214,-0.144005 0.284221,-0.227377 0.180006,-0.08337 0.416857,-0.08337 0.174322,0 0.314537,0.04737 0.142111,0.04737 0.240641,0.134531 0.100424,0.08716 0.153479,0.208428 0.05305,0.121268 0.05305,0.269063 v 1.379418 H 47.957356 V 27.42018 h -0.0076 q -0.036,0.072 -0.106109,0.1459 -0.07011,0.072 -0.189481,0.121267 -0.117478,0.04737 -0.299379,0.04737 z m 0.04548,-0.28801 q 0.19706,0 0.320222,-0.07011 0.123163,-0.072 0.180007,-0.185691 0.05684,-0.113688 0.05684,-0.244429 v -0.250115 q -0.01895,0.01705 -0.07011,0.03221 -0.04926,0.01516 -0.123162,0.03032 -0.072,0.01326 -0.157269,0.02653 -0.08337,0.01326 -0.168637,0.02463 -0.115584,0.01516 -0.219798,0.05305 -0.102319,0.036 -0.166743,0.104215 -0.06442,0.06632 -0.06442,0.180006 0,0.09284 0.04927,0.161058 0.05116,0.06632 0.144005,0.10232 0.09285,0.036 0.219797,0.036 z m 3.02032,0.303169 q -0.214113,0 -0.388435,-0.07011 -0.174322,-0.07011 -0.282326,-0.212218 -0.108004,-0.144005 -0.121267,-0.361908 h 0.318327 q 0.01705,0.178112 0.136426,0.272852 0.119373,0.09474 0.329696,0.09474 0.208428,0 0.327801,-0.08716 0.121268,-0.08716 0.121268,-0.219797 0,-0.113688 -0.08337,-0.181901 -0.08337,-0.06821 -0.217902,-0.09853 l -0.322117,-0.07579 q -0.278536,-0.06632 -0.422542,-0.208429 -0.14211,-0.14211 -0.14211,-0.360013 0,-0.170532 0.09095,-0.301274 0.09285,-0.132636 0.255798,-0.206533 0.164848,-0.07579 0.378961,-0.07579 0.208429,0 0.373277,0.07958 0.166743,0.07769 0.263378,0.221692 0.09853,0.144006 0.104214,0.34296 h -0.314538 q -0.0019,-0.159163 -0.117478,-0.263378 -0.115583,-0.104214 -0.308853,-0.104214 -0.183796,0 -0.293695,0.08906 -0.109898,0.08906 -0.109898,0.217902 0,0.113689 0.08337,0.183796 0.08337,0.06821 0.227377,0.10232 l 0.322117,0.07579 q 0.28801,0.06821 0.422541,0.204639 0.134531,0.134531 0.134531,0.350539 0,0.185691 -0.100425,0.318327 -0.100424,0.132636 -0.274746,0.202744 -0.172427,0.07011 -0.39033,0.07011 z m 1.970598,0 q -0.276642,0 -0.486965,-0.132636 -0.208428,-0.134532 -0.325906,-0.369487 -0.115583,-0.234956 -0.115583,-0.54002 0,-0.306958 0.115583,-0.543809 0.117478,-0.23685 0.325906,-0.371381 0.210323,-0.134531 0.486965,-0.134531 0.278536,0 0.486965,0.134531 0.208428,0.134531 0.324011,0.371381 0.117478,0.236851 0.117478,0.543809 0,0.305064 -0.117478,0.54002 -0.115583,0.234955 -0.324011,0.369487 -0.208429,0.132636 -0.486965,0.132636 z m 0,-0.2918 q 0.18948,0 0.324011,-0.09284 0.134532,-0.09285 0.206534,-0.261484 0.072,-0.170532 0.072,-0.396014 0,-0.229271 -0.072,-0.397909 -0.072,-0.170532 -0.206534,-0.265272 -0.134531,-0.09474 -0.324011,-0.09474 -0.187586,0 -0.324012,0.09474 -0.134531,0.09285 -0.206533,0.263378 -0.072,0.170532 -0.072,0.399803 0,0.227377 0.072,0.396014 0.072,0.168638 0.206533,0.261484 0.134531,0.09284 0.324012,0.09284 z m 2.03881,0.284221 q -0.200849,0 -0.369487,-0.08716 -0.166743,-0.08906 -0.267167,-0.265273 -0.09853,-0.178112 -0.09853,-0.443384 v -1.242992 h 0.322117 v 1.220254 q 0,0.259588 0.125057,0.392225 0.125057,0.130741 0.348644,0.130741 0.1459,0 0.265272,-0.05874 0.119373,-0.05874 0.189481,-0.185691 0.072,-0.126952 0.072,-0.327801 v -1.170989 h 0.322117 v 2.000914 H 55.02498 v -0.48507 h 0.09095 q -0.09853,0.269062 -0.274746,0.396014 -0.174322,0.126952 -0.411173,0.126952 z m 1.709114,-2.861155 v 2.823259 h -0.322117 v -2.823259 z m 1.303624,2.868734 q -0.293695,0 -0.502123,-0.134531 -0.206534,-0.134531 -0.316433,-0.369487 -0.109898,-0.236851 -0.109898,-0.538125 0,-0.305063 0.115583,-0.541914 0.115583,-0.23685 0.320222,-0.371382 0.204639,-0.136425 0.469911,-0.136425 0.208429,0 0.375172,0.07579 0.168637,0.07579 0.28801,0.216007 0.119373,0.140216 0.181901,0.333486 0.06442,0.191375 0.06442,0.424436 v 0.08906 h -1.64469 v -0.276641 h 1.464684 l -0.138321,0.09664 q 0,-0.204639 -0.0739,-0.354329 -0.072,-0.151584 -0.204639,-0.233061 -0.132636,-0.08337 -0.312643,-0.08337 -0.178111,0 -0.310748,0.08337 -0.130741,0.08148 -0.204639,0.233061 -0.072,0.14969 -0.072,0.354329 v 0.136426 q 0,0.206533 0.07011,0.365697 0.072,0.159163 0.208428,0.250114 0.136426,0.08906 0.331591,0.08906 0.14211,0 0.250114,-0.04358 0.108004,-0.04547 0.178112,-0.125057 0.072,-0.07958 0.102319,-0.183796 h 0.322117 q -0.0379,0.191376 -0.157269,0.337275 -0.119373,0.144006 -0.299379,0.225482 -0.178112,0.08148 -0.396014,0.08148 z m 1.951651,0 q -0.214113,0 -0.388435,-0.07011 -0.174322,-0.07011 -0.282326,-0.212218 -0.108004,-0.144005 -0.121267,-0.361908 h 0.318327 q 0.01705,0.178112 0.136426,0.272852 0.119372,0.09474 0.329696,0.09474 0.208428,0 0.327801,-0.08716 0.121267,-0.08716 0.121267,-0.219797 0,-0.113688 -0.08337,-0.181901 -0.08337,-0.06821 -0.217903,-0.09853 l -0.322116,-0.07579 q -0.278537,-0.06632 -0.422542,-0.208429 -0.14211,-0.14211 -0.14211,-0.360013 0,-0.170532 0.09095,-0.301274 0.09285,-0.132636 0.255799,-0.206533 0.164848,-0.07579 0.378961,-0.07579 0.208429,0 0.373277,0.07958 0.166742,0.07769 0.263377,0.221692 0.09853,0.144006 0.104215,0.34296 h -0.314538 q -0.0019,-0.159163 -0.117478,-0.263378 -0.115583,-0.104214 -0.308853,-0.104214 -0.183796,0 -0.293695,0.08906 -0.109898,0.08906 -0.109898,0.217902 0,0.113689 0.08337,0.183796 0.08337,0.06821 0.227377,0.10232 l 0.322116,0.07579 q 0.288011,0.06821 0.422542,0.204639 0.134531,0.134531 0.134531,0.350539 0,0.185691 -0.100425,0.318327 -0.100424,0.132636 -0.274746,0.202744 -0.172428,0.07011 -0.39033,0.07011 z m 1.841747,0 q -0.214113,0 -0.388435,-0.07011 -0.174322,-0.07011 -0.282326,-0.212218 -0.108004,-0.144005 -0.121267,-0.361908 h 0.318327 q 0.01705,0.178112 0.136426,0.272852 0.119373,0.09474 0.329696,0.09474 0.208428,0 0.327801,-0.08716 0.121268,-0.08716 0.121268,-0.219797 0,-0.113688 -0.08337,-0.181901 -0.08337,-0.06821 -0.217902,-0.09853 l -0.322117,-0.07579 q -0.278536,-0.06632 -0.422542,-0.208429 -0.14211,-0.14211 -0.14211,-0.360013 0,-0.170532 0.09095,-0.301274 0.09284,-0.132636 0.255798,-0.206533 0.164848,-0.07579 0.378961,-0.07579 0.208429,0 0.373277,0.07958 0.166743,0.07769 0.263378,0.221692 0.09853,0.144006 0.104214,0.34296 h -0.314538 q -0.0019,-0.159163 -0.117478,-0.263378 -0.115583,-0.104214 -0.308853,-0.104214 -0.183796,0 -0.293694,0.08906 -0.109899,0.08906 -0.109899,0.217902 0,0.113689 0.08337,0.183796 0.08337,0.06821 0.227377,0.10232 l 0.322117,0.07579 q 0.28801,0.06821 0.422541,0.204639 0.134531,0.134531 0.134531,0.350539 0,0.185691 -0.100424,0.318327 -0.100425,0.132636 -0.274747,0.202744 -0.172427,0.07011 -0.39033,0.07011 z"
            id="path6" />
         <path
            d="m 2.715106,30.554187 v 0.276641 H 1.6312778 V 30.554187 Z M 1.987501,32.5551 v -2.357137 q 0,-0.144005 0.064423,-0.248219 0.064423,-0.104214 0.1819012,-0.161058 0.1193727,-0.05684 0.2804311,-0.05684 0.066318,0 0.1250571,0 0.058739,0 0.075792,0 v 0.276641 q -0.017053,0 -0.077687,0 -0.058739,0 -0.092845,0 -0.1269519,0 -0.1819013,0.05495 -0.053055,0.05495 -0.053055,0.183796 V 32.5551 Z m 1.8303813,0.04548 q -0.2766415,0 -0.4869648,-0.132637 Q 3.122489,32.333408 3.0050111,32.098453 2.889428,31.863497 2.889428,31.558433 q 0,-0.306958 0.1155831,-0.543809 0.1174779,-0.23685 0.3259064,-0.371381 0.2103233,-0.134532 0.4869648,-0.134532 0.2785362,0 0.4869648,0.134532 0.2084285,0.134531 0.3240116,0.371381 0.1174778,0.236851 0.1174778,0.543809 0,0.305064 -0.1174778,0.54002 -0.1155831,0.234955 -0.3240116,0.369486 -0.2084286,0.132637 -0.4869648,0.132637 z m 0,-0.2918 q 0.1894804,0 0.3240116,-0.09285 0.1345311,-0.09284 0.2065337,-0.261483 0.072002,-0.170532 0.072002,-0.396014 0,-0.229271 -0.072002,-0.397909 -0.072003,-0.170532 -0.2065337,-0.265272 -0.1345312,-0.09474 -0.3240116,-0.09474 -0.1875857,0 -0.3240116,0.09474 -0.1345312,0.09285 -0.2065337,0.263377 -0.072003,0.170533 -0.072003,0.399804 0,0.227377 0.072003,0.396014 0.072002,0.168638 0.2065337,0.261483 0.1345311,0.09285 0.3240116,0.09285 z M 5.1215078,32.5551 v -2.000913 h 0.3069584 v 0.314537 h 0.00758 q 0.054949,-0.155374 0.174322,-0.250114 0.1193727,-0.09474 0.3069584,-0.09474 0.043581,0 0.079582,0.0038 0.037896,0.0038 0.056844,0.0076 v 0.322116 q -0.018948,-0.0057 -0.073897,-0.01326 -0.053055,-0.0095 -0.1231623,-0.0095 -0.1098986,0 -0.2046389,0.05116 -0.09474,0.05116 -0.1515844,0.159163 -0.056844,0.108004 -0.056844,0.278536 V 32.5551 Z m 2.1847099,-2.000913 v 0.276641 H 6.2223894 v -0.276641 z m -0.727605,-0.545704 h 0.3221168 v 2.061547 q 0,0.115584 0.04737,0.162954 0.049265,0.04547 0.1724272,0.04547 0.043581,0 0.092845,0 0.05116,0 0.092846,0 V 32.5551 q -0.049265,0 -0.1080039,0 -0.058739,0 -0.1080039,0 -0.2576934,0 -0.3846453,-0.111793 -0.1269519,-0.113688 -0.1269519,-0.33917 z m 1.796275,2.584514 q -0.2008493,0 -0.369487,-0.08716 -0.1667428,-0.08906 -0.2671674,-0.265273 -0.09853,-0.178112 -0.09853,-0.443384 v -1.242992 h 0.3221168 v 1.220254 q 0,0.259588 0.1250571,0.392224 0.1250572,0.130742 0.3486441,0.130742 0.1459,0 0.2652727,-0.05874 0.1193726,-0.05874 0.1894804,-0.185691 0.072003,-0.126952 0.072003,-0.327801 V 30.554187 H 9.2843939 V 32.5551 H 8.9698563 v -0.48507 h 0.090951 q -0.09853,0.269063 -0.2747466,0.396015 -0.1743221,0.126952 -0.4111726,0.126952 z M 10.084001,31.384111 V 32.5551 H 9.7618844 v -2.000913 h 0.3145376 v 0.48507 h -0.090951 q 0.09853,-0.270957 0.2728517,-0.396014 0.176217,-0.126952 0.413068,-0.126952 0.202744,0 0.369487,0.08906 0.166742,0.08716 0.265272,0.263378 0.100425,0.176217 0.100425,0.443385 V 32.5551 h -0.322117 v -1.220254 q 0,-0.259588 -0.125057,-0.39033 -0.123162,-0.132636 -0.348644,-0.132636 -0.1459,0 -0.265273,0.05874 -0.119372,0.05874 -0.191375,0.185691 -0.07011,0.125057 -0.07011,0.327801 z m 2.626199,1.216465 q -0.293695,0 -0.502123,-0.134531 -0.206534,-0.134532 -0.316432,-0.369487 -0.109899,-0.236851 -0.109899,-0.538125 0,-0.305063 0.115583,-0.541914 0.115583,-0.236851 0.320222,-0.371382 0.204639,-0.136426 0.469911,-0.136426 0.208429,0 0.375172,0.07579 0.168637,0.07579 0.28801,0.216007 0.119373,0.140216 0.181901,0.333486 0.06442,0.191375 0.06442,0.424436 v 0.08906 h -1.644691 v -0.276641 h 1.464684 l -0.13832,0.09664 q 0,-0.204639 -0.0739,-0.354329 -0.072,-0.151584 -0.204639,-0.233061 -0.132636,-0.08337 -0.312643,-0.08337 -0.178111,0 -0.310747,0.08337 -0.130742,0.08148 -0.204639,0.233061 -0.072,0.14969 -0.072,0.354329 v 0.136426 q 0,0.206533 0.07011,0.365697 0.072,0.159163 0.208428,0.250114 0.136426,0.08906 0.331591,0.08906 0.142111,0 0.250114,-0.04358 0.108004,-0.04547 0.178112,-0.125057 0.072,-0.07958 0.102319,-0.183796 h 0.322117 q -0.0379,0.191375 -0.157269,0.337275 -0.119372,0.144006 -0.299379,0.225482 -0.178111,0.08148 -0.396014,0.08148 z m 3.109375,-0.0076 q -0.270957,0 -0.486964,-0.111794 -0.216008,-0.113688 -0.344855,-0.306958 -0.128847,-0.19327 -0.140215,-0.4377 h 0.341064 q 0.01516,0.159163 0.09853,0.284221 0.08527,0.125057 0.221692,0.197059 0.138321,0.072 0.310748,0.072 0.183796,0 0.320222,-0.08527 0.138321,-0.08527 0.216008,-0.233061 0.07769,-0.14969 0.07769,-0.341065 0,-0.191375 -0.0739,-0.33917 -0.0739,-0.147795 -0.206534,-0.231166 -0.132636,-0.08527 -0.308853,-0.08527 -0.233061,0 -0.399804,0.09474 -0.166743,0.09285 -0.233061,0.272851 h -0.327801 l 0.09474,-1.610583 h 1.629532 v 0.303168 h -1.320679 l -0.06821,0.915191 h 0.0038 q 0.134531,-0.144005 0.299379,-0.212218 0.164848,-0.07011 0.363803,-0.07011 0.195164,0 0.356223,0.07011 0.161058,0.07011 0.276641,0.198954 0.117478,0.128847 0.180007,0.305064 0.06442,0.174322 0.06442,0.384645 0,0.284221 -0.119373,0.502123 -0.117477,0.217903 -0.329696,0.341065 -0.212218,0.123163 -0.494544,0.123163 z m 2.304083,0.0076 q -0.312643,0 -0.541914,-0.178112 -0.227377,-0.180006 -0.352434,-0.505913 -0.125057,-0.325906 -0.125057,-0.771185 0,-0.447174 0.125057,-0.773081 0.125057,-0.327801 0.352434,-0.505912 0.229271,-0.180007 0.541914,-0.180007 0.312643,0 0.541914,0.180007 0.229271,0.178111 0.352434,0.505912 0.125057,0.325907 0.125057,0.773081 0,0.445279 -0.125057,0.771185 -0.123163,0.325907 -0.352434,0.505913 -0.229271,0.178112 -0.541914,0.178112 z m 0,-0.303169 q 0.216008,0 0.371382,-0.138321 0.157268,-0.140215 0.24064,-0.397909 0.08527,-0.257693 0.08527,-0.615811 0,-0.360013 -0.08527,-0.617707 -0.08337,-0.259588 -0.24064,-0.397909 -0.155374,-0.140215 -0.371382,-0.140215 -0.216008,0 -0.373277,0.140215 -0.155374,0.138321 -0.24064,0.397909 -0.08337,0.257694 -0.08337,0.617707 0,0.358118 0.08337,0.615811 0.08527,0.257694 0.24064,0.397909 0.157269,0.138321 0.373277,0.138321 z m 2.379874,0.303169 q -0.312643,0 -0.541914,-0.178112 -0.227377,-0.180006 -0.352434,-0.505913 -0.125057,-0.325906 -0.125057,-0.771185 0,-0.447174 0.125057,-0.773081 0.125057,-0.327801 0.352434,-0.505912 0.229271,-0.180007 0.541914,-0.180007 0.312643,0 0.541914,0.180007 0.229272,0.178111 0.352434,0.505912 0.125057,0.325907 0.125057,0.773081 0,0.445279 -0.125057,0.771185 -0.123162,0.325907 -0.352434,0.505913 -0.229271,0.178112 -0.541914,0.178112 z m 0,-0.303169 q 0.216008,0 0.371382,-0.138321 0.157269,-0.140215 0.24064,-0.397909 0.08527,-0.257693 0.08527,-0.615811 0,-0.360013 -0.08527,-0.617707 -0.08337,-0.259588 -0.24064,-0.397909 -0.155374,-0.140215 -0.371382,-0.140215 -0.216008,0 -0.373276,0.140215 -0.155374,0.138321 -0.240641,0.397909 -0.08337,0.257694 -0.08337,0.617707 0,0.358118 0.08337,0.615811 0.08527,0.257694 0.240641,0.397909 0.157268,0.138321 0.373276,0.138321 z m 2.398824,0.257693 v -2.000913 h 0.314537 v 0.409278 h -0.03979 q 0.05874,-0.1459 0.153479,-0.24443 0.09663,-0.100425 0.219797,-0.151585 0.123162,-0.05116 0.259588,-0.05116 0.234956,0 0.397909,0.134531 0.164848,0.132636 0.204639,0.312643 h -0.06632 q 0.04358,-0.123163 0.136426,-0.223587 0.09285,-0.10232 0.227376,-0.162954 0.136426,-0.06063 0.305064,-0.06063 0.183796,0 0.333486,0.07958 0.151584,0.07958 0.24064,0.240641 0.09095,0.161058 0.09095,0.407383 V 32.5551 h -0.322116 v -1.311204 q 0,-0.233061 -0.130742,-0.331591 -0.130741,-0.100425 -0.303169,-0.100425 -0.1459,0 -0.252009,0.06063 -0.106109,0.06063 -0.162953,0.166743 -0.05684,0.106109 -0.05684,0.242535 V 32.5551 h -0.322117 v -1.345311 q 0,-0.180006 -0.121267,-0.28801 -0.119373,-0.109899 -0.301274,-0.109899 -0.125057,0 -0.236851,0.05874 -0.109898,0.05874 -0.178111,0.176217 -0.06821,0.115583 -0.06821,0.28801 V 32.5551 Z m 4.081408,0.04548 q -0.293694,0 -0.502123,-0.134531 -0.206533,-0.134532 -0.316432,-0.369487 -0.109899,-0.236851 -0.109899,-0.538125 0,-0.305063 0.115583,-0.541914 0.115583,-0.236851 0.320222,-0.371382 0.204639,-0.136426 0.469912,-0.136426 0.208428,0 0.375171,0.07579 0.168638,0.07579 0.28801,0.216007 0.119373,0.140216 0.181902,0.333486 0.06442,0.191375 0.06442,0.424436 v 0.08906 h -1.64469 v -0.276641 h 1.464684 l -0.138321,0.09664 q 0,-0.204639 -0.0739,-0.354329 -0.072,-0.151584 -0.204639,-0.233061 -0.132637,-0.08337 -0.312643,-0.08337 -0.178112,0 -0.310748,0.08337 -0.130742,0.08148 -0.204639,0.233061 -0.072,0.14969 -0.072,0.354329 v 0.136426 q 0,0.206533 0.07011,0.365697 0.072,0.159163 0.208429,0.250114 0.136426,0.08906 0.33159,0.08906 0.142111,0 0.250115,-0.04358 0.108004,-0.04547 0.178111,-0.125057 0.072,-0.07958 0.10232,-0.183796 h 0.322117 q -0.0379,0.191375 -0.157269,0.337275 -0.119373,0.144006 -0.299379,0.225482 -0.178112,0.08148 -0.396015,0.08148 z m 2.091865,0.77308 q -0.225482,0 -0.407383,-0.07011 -0.180006,-0.06821 -0.295589,-0.204639 -0.113689,-0.134531 -0.138321,-0.33159 h 0.329696 q 0.02842,0.108003 0.100425,0.178111 0.072,0.072 0.176216,0.108004 0.106109,0.036 0.234956,0.036 0.261483,0 0.411173,-0.140215 0.149689,-0.138321 0.149689,-0.39412 v -0.303168 h -0.0019 q -0.0739,0.115583 -0.170533,0.191375 -0.09663,0.07579 -0.212218,0.111793 -0.115583,0.0379 -0.248219,0.0379 -0.259589,0 -0.456648,-0.130742 -0.195165,-0.132636 -0.303169,-0.365697 -0.108004,-0.234956 -0.108004,-0.541914 0,-0.308854 0.108004,-0.541915 0.108004,-0.234955 0.303169,-0.365697 0.197059,-0.130741 0.456648,-0.130741 0.130741,0 0.248219,0.036 0.119373,0.036 0.217903,0.113688 0.100424,0.07769 0.168637,0.200849 h 0.0019 v -0.312642 h 0.314538 V 32.5551 q 0,0.29559 -0.123163,0.475596 -0.121267,0.180007 -0.322117,0.261483 -0.200849,0.08148 -0.43391,0.08148 z m -0.02274,-1.070565 q 0.185691,0 0.322117,-0.09285 0.136426,-0.09284 0.210324,-0.261483 0.0739,-0.168638 0.0739,-0.394119 0,-0.227377 -0.0739,-0.396015 -0.0739,-0.168637 -0.210324,-0.261483 -0.136426,-0.09285 -0.322117,-0.09285 -0.172427,0 -0.306958,0.08527 -0.132636,0.08527 -0.208428,0.252009 -0.07579,0.166743 -0.07579,0.413068 0,0.244429 0.07579,0.411172 0.07579,0.166743 0.208428,0.252009 0.134531,0.08527 0.306958,0.08527 z m 1.989545,0.282326 q -0.198955,0 -0.356223,-0.06821 -0.157269,-0.06821 -0.250115,-0.202744 -0.09095,-0.136426 -0.09095,-0.33538 0,-0.172427 0.06632,-0.280431 0.06821,-0.108004 0.180006,-0.168638 0.113689,-0.06253 0.255799,-0.09474 0.144005,-0.03221 0.293695,-0.05116 0.191375,-0.02653 0.301274,-0.03979 0.109898,-0.01326 0.155374,-0.04358 0.04737,-0.03032 0.04737,-0.106109 v -0.01895 q 0,-0.109899 -0.05306,-0.19327 -0.05116,-0.08527 -0.151584,-0.132637 -0.09853,-0.04926 -0.238745,-0.04926 -0.138321,0 -0.246325,0.04737 -0.106109,0.04548 -0.170532,0.125058 -0.06253,0.07958 -0.07011,0.180006 h -0.327801 q 0.0095,-0.183796 0.113688,-0.325906 0.104214,-0.144006 0.284221,-0.227377 0.180006,-0.08337 0.416857,-0.08337 0.174322,0 0.314537,0.04737 0.14211,0.04737 0.24064,0.134531 0.100425,0.08716 0.153479,0.208428 0.05306,0.121268 0.05306,0.269063 V 32.5551 h -0.318327 v -0.28422 h -0.0076 q -0.036,0.072 -0.106109,0.1459 -0.07011,0.072 -0.189481,0.121267 -0.117478,0.04737 -0.299379,0.04737 z m 0.04547,-0.28801 q 0.19706,0 0.320222,-0.07011 0.123163,-0.072 0.180007,-0.185691 0.05684,-0.113688 0.05684,-0.244429 v -0.250115 q -0.01895,0.01705 -0.07011,0.03221 -0.04926,0.01516 -0.123162,0.03032 -0.072,0.01326 -0.157269,0.02653 -0.08337,0.01326 -0.168638,0.02463 -0.115583,0.01516 -0.219797,0.05305 -0.102319,0.036 -0.166743,0.104214 -0.06442,0.06632 -0.06442,0.180007 0,0.09285 0.04926,0.161058 0.05116,0.06632 0.144005,0.10232 0.09285,0.036 0.219797,0.036 z m 2.179026,0.303169 q -0.276641,0 -0.486965,-0.132637 -0.208428,-0.134531 -0.325906,-0.369486 -0.115583,-0.234956 -0.115583,-0.54002 0,-0.306958 0.115583,-0.543809 0.117478,-0.23685 0.325906,-0.371381 0.210324,-0.134532 0.486965,-0.134532 0.170533,0 0.314538,0.05305 0.1459,0.05116 0.255798,0.1459 0.111794,0.09285 0.181902,0.219797 0.07011,0.126952 0.09095,0.278537 h -0.325906 q -0.01705,-0.08906 -0.05874,-0.162954 -0.04169,-0.0739 -0.108004,-0.126952 -0.06442,-0.05495 -0.151584,-0.08527 -0.08716,-0.03032 -0.198955,-0.03032 -0.187586,0 -0.324011,0.09474 -0.134532,0.09285 -0.206534,0.263377 -0.072,0.170533 -0.072,0.399804 0,0.227377 0.072,0.396014 0.072,0.168638 0.206534,0.261483 0.134531,0.09285 0.324011,0.09285 0.111794,0 0.19706,-0.02842 0.08527,-0.02842 0.1459,-0.08148 0.06253,-0.05495 0.104214,-0.128847 0.04169,-0.07579 0.06442,-0.166742 h 0.331591 q -0.02084,0.147794 -0.09095,0.274746 -0.07011,0.126952 -0.181902,0.221692 -0.111793,0.09474 -0.257693,0.147795 -0.144005,0.05305 -0.312643,0.05305 z m 2.029335,0 q -0.276641,0 -0.486965,-0.132637 -0.208428,-0.134531 -0.325906,-0.369486 -0.115583,-0.234956 -0.115583,-0.54002 0,-0.306958 0.115583,-0.543809 0.117478,-0.23685 0.325906,-0.371381 0.210324,-0.134532 0.486965,-0.134532 0.278536,0 0.486965,0.134532 0.208428,0.134531 0.324012,0.371381 0.117477,0.236851 0.117477,0.543809 0,0.305064 -0.117477,0.54002 -0.115584,0.234955 -0.324012,0.369486 -0.208429,0.132637 -0.486965,0.132637 z m 0,-0.2918 q 0.189481,0 0.324012,-0.09285 0.134531,-0.09284 0.206533,-0.261483 0.072,-0.170532 0.072,-0.396014 0,-0.229271 -0.072,-0.397909 -0.072,-0.170532 -0.206533,-0.265272 -0.134531,-0.09474 -0.324012,-0.09474 -0.187586,0 -0.324011,0.09474 -0.134532,0.09285 -0.206534,0.263377 -0.072,0.170533 -0.072,0.399804 0,0.227377 0.072,0.396014 0.072,0.168638 0.206534,0.261483 0.134531,0.09285 0.324011,0.09285 z m 1.303626,0.246324 v -2.000913 h 0.306958 v 0.314537 h 0.0076 q 0.05495,-0.155374 0.174322,-0.250114 0.119372,-0.09474 0.306958,-0.09474 0.04358,0 0.07958,0.0038 0.0379,0.0038 0.05684,0.0076 v 0.322116 q -0.01895,-0.0057 -0.0739,-0.01326 -0.05306,-0.0095 -0.123163,-0.0095 -0.109898,0 -0.204639,0.05116 -0.09474,0.05116 -0.151584,0.159163 -0.05684,0.108004 -0.05684,0.278536 V 32.5551 Z m 1.250572,0.792029 v -2.792942 h 0.314538 v 0.295589 h 0.0038 q 0.06442,-0.111793 0.162954,-0.185691 0.09853,-0.0739 0.219797,-0.109898 0.121267,-0.0379 0.250114,-0.0379 0.261483,0 0.456648,0.130741 0.195165,0.130742 0.303169,0.365697 0.108004,0.233061 0.108004,0.541915 0,0.306958 -0.108004,0.541914 -0.108004,0.233061 -0.303169,0.365697 -0.195165,0.130742 -0.456648,0.130742 -0.128847,0 -0.24443,-0.0379 -0.115583,-0.036 -0.212218,-0.111793 -0.09663,-0.07579 -0.168637,-0.191375 h -0.0038 v 1.095197 z m 0.901927,-1.044038 q 0.174322,0 0.306959,-0.08527 0.132636,-0.08527 0.208428,-0.252009 0.07579,-0.166743 0.07579,-0.411172 0,-0.246325 -0.07579,-0.413068 -0.07579,-0.166743 -0.208428,-0.252009 -0.132637,-0.08527 -0.306959,-0.08527 -0.185691,0 -0.322117,0.09285 -0.136425,0.09285 -0.210323,0.261483 -0.0739,0.168638 -0.0739,0.396015 0,0.225481 0.0739,0.394119 0.0739,0.168638 0.210323,0.261483 0.136426,0.09285 0.322117,0.09285 z"
            id="path7" />
      </g>
      <rect
         style="fill:#343a40;fill-opacity:1;stroke:none;stroke-width:0.270875"
         id="rect4"
         width="72.85955"
         height="18.168541"
         x="-0.37078652"
         y="-0.37078652" />
      <path
         style="font-size:3.52778px;font-family:'Inter Variable';-inkscape-font-specification:'Inter Variable';fill:#ffffff;stroke-width:0.264583"
         d="M 9.0971726,15.38764 8.3943727,13.568628 h 0.3169489 l 0.3927412,1.04731 q 0.049954,0.130914 0.09474,0.261828 0.044786,0.130913 0.08785,0.261827 h -0.070624 q 0.044786,-0.130914 0.08785,-0.261827 0.044786,-0.130914 0.093018,-0.261828 l 0.3875735,-1.04731 h 0.3117814 l -0.7028,1.819012 z m 1.9499254,0.04134 q -0.266995,0 -0.456476,-0.122301 -0.187757,-0.122301 -0.287665,-0.335897 -0.09991,-0.215318 -0.09991,-0.489204 0,-0.27733 0.105075,-0.492649 0.105076,-0.215318 0.291111,-0.337619 0.186035,-0.124024 0.427192,-0.124024 0.189481,0 0.341065,0.0689 0.153307,0.0689 0.261827,0.196371 0.108521,0.127468 0.165365,0.303168 0.05857,0.173978 0.05857,0.385851 v 0.08096 h -1.495173 v -0.251492 h 1.331531 l -0.125746,0.08785 q 0,-0.186035 -0.06718,-0.322117 -0.06546,-0.137804 -0.186035,-0.211873 -0.120579,-0.07579 -0.284221,-0.07579 -0.161919,0 -0.282498,0.07579 -0.118856,0.07407 -0.186035,0.211873 -0.06546,0.136082 -0.06546,0.322117 v 0.124023 q 0,0.187758 0.06373,0.332452 0.06546,0.144695 0.189481,0.227377 0.124023,0.08096 0.301446,0.08096 0.129191,0 0.227376,-0.03962 0.09819,-0.04134 0.16192,-0.113688 0.06546,-0.07235 0.09302,-0.167087 h 0.292833 q -0.03445,0.173977 -0.142972,0.306613 -0.10852,0.130914 -0.272162,0.204984 -0.16192,0.07407 -0.360013,0.07407 z m 1.140327,-0.04134 v -1.819012 h 0.279053 v 0.285944 h 0.0069 q 0.04995,-0.141249 0.158475,-0.227377 0.10852,-0.08613 0.279053,-0.08613 0.03962,0 0.07235,0.0034 0.03445,0.0034 0.05168,0.0069 v 0.292833 q -0.01722,-0.0052 -0.06718,-0.01206 -0.04823,-0.0086 -0.111966,-0.0086 -0.09991,0 -0.186035,0.04651 -0.08613,0.04651 -0.137804,0.144695 -0.05168,0.09819 -0.05168,0.253214 v 1.119657 z m 1.770781,0.04134 q -0.194648,0 -0.353123,-0.06373 -0.158474,-0.06373 -0.25666,-0.192926 -0.09819,-0.130913 -0.110243,-0.329006 h 0.289388 q 0.0155,0.161919 0.124024,0.248047 0.10852,0.08613 0.299723,0.08613 0.189481,0 0.298001,-0.07924 0.110243,-0.07924 0.110243,-0.199816 0,-0.103353 -0.07579,-0.165365 -0.07579,-0.06201 -0.198093,-0.08957 l -0.292833,-0.0689 q -0.253215,-0.06029 -0.384129,-0.18948 -0.129191,-0.129192 -0.129191,-0.327285 0,-0.155029 0.08268,-0.273885 0.08441,-0.120578 0.232544,-0.187758 0.149862,-0.0689 0.34451,-0.0689 0.18948,0 0.339342,0.07235 0.151584,0.07062 0.239434,0.201539 0.08957,0.130913 0.09474,0.311781 h -0.285943 q -0.0017,-0.144694 -0.106798,-0.239434 -0.105075,-0.09474 -0.280775,-0.09474 -0.167088,0 -0.266996,0.08096 -0.09991,0.08096 -0.09991,0.198093 0,0.103353 0.07579,0.167088 0.07579,0.06201 0.206706,0.09302 l 0.292833,0.0689 q 0.261827,0.06201 0.384128,0.186035 0.122301,0.122301 0.122301,0.318672 0,0.16881 -0.09129,0.289388 -0.0913,0.120579 -0.249769,0.184313 -0.156752,0.06373 -0.354845,0.06373 z m 1.040419,-0.04134 v -1.819012 h 0.292833 v 1.819012 z m 0.146417,-2.173857 q -0.08268,0 -0.141249,-0.05857 -0.05857,-0.05857 -0.05857,-0.141249 0,-0.08268 0.05857,-0.141249 0.05857,-0.05857 0.141249,-0.05857 0.08268,0 0.141249,0.05857 0.05857,0.05857 0.05857,0.141249 0,0.08268 -0.05857,0.141249 -0.05857,0.05857 -0.141249,0.05857 z m 1.33153,2.215198 q -0.251493,0 -0.442695,-0.120578 -0.189481,-0.122301 -0.296279,-0.335897 -0.105075,-0.213596 -0.105075,-0.490927 0,-0.279053 0.105075,-0.494371 0.106798,-0.215319 0.296279,-0.33762 0.191202,-0.122301 0.442695,-0.122301 0.253214,0 0.442695,0.122301 0.18948,0.122301 0.294556,0.33762 0.106798,0.215318 0.106798,0.494371 0,0.277331 -0.106798,0.490927 -0.105076,0.213596 -0.294556,0.335897 -0.189481,0.120578 -0.442695,0.120578 z m 0,-0.265272 q 0.172254,0 0.294555,-0.08441 0.122301,-0.08441 0.187758,-0.237712 0.06546,-0.155029 0.06546,-0.360013 0,-0.208428 -0.06546,-0.361735 -0.06546,-0.155029 -0.187758,-0.241157 -0.122301,-0.08613 -0.294555,-0.08613 -0.170533,0 -0.294556,0.08613 -0.122301,0.08441 -0.187758,0.239434 -0.06546,0.15503 -0.06546,0.363458 0,0.206706 0.06546,0.360013 0.06546,0.153307 0.187758,0.237712 0.122301,0.08441 0.294556,0.08441 z m 1.477946,-0.840604 v 1.064535 h -0.292833 v -1.819012 h 0.285943 v 0.440973 h -0.08268 q 0.08957,-0.246325 0.248047,-0.360013 0.160197,-0.115411 0.375516,-0.115411 0.184312,0 0.335897,0.08096 0.151584,0.07924 0.241156,0.239435 0.0913,0.160197 0.0913,0.403076 v 1.129992 h -0.292834 v -1.109321 q 0,-0.23599 -0.113688,-0.354846 -0.111966,-0.120578 -0.316949,-0.120578 -0.132636,0 -0.241157,0.0534 -0.10852,0.0534 -0.173977,0.16881 -0.06374,0.113688 -0.06374,0.298001 z m 2.390899,0.444417 v -0.254937 l 1.228177,-1.691543 h 0.18948 v 0.347955 h -0.110243 l -0.956014,1.319472 v 0.0034 h 1.648479 v 0.275607 z m 1.310859,0.620118 v -0.69591 -0.120578 -1.75011 h 0.296279 v 2.566598 z"
         id="text2"
         aria-label="version 4" />
      <g fill="#fff" stroke-width=".26458">
         <path d="m42.525 12.292q-0.97978 0-1.6991-0.44028t-1.11-1.2092q-0.38447-0.77515-0.38447-1.7673 0-0.99839 0.39688-1.7735 0.40308-0.77515 1.11-1.2154 0.70693-0.44028 1.6247-0.44028 0.70693 0 1.2836 0.24805 0.57671 0.24805 0.99219 0.70693 0.41548 0.45269 0.63872 1.079 0.22324 0.62012 0.22324 1.3705v0.42788h-5.6493v-1.079h4.8679l-0.70073 0.29146q0-0.55811-0.20464-0.96118-0.19844-0.40308-0.56431-0.62012-0.35967-0.22324-0.86196-0.22324-0.49609 0-0.86196 0.22324-0.36587 0.21704-0.56431 0.62012-0.19844 0.40308-0.19844 0.96118v0.67593q0 0.56431 0.19844 0.99219 0.19844 0.42788 0.57671 0.66353 0.38447 0.23564 0.92398 0.23564 0.39067 0 0.69453-0.11782 0.30386-0.11782 0.5085-0.32866 0.20464-0.21084 0.29146-0.48989h1.4635q-0.12402 0.63872-0.5457 1.1286-0.41548 0.48989-1.048 0.76895-0.63252 0.27285-1.4015 0.27285z">
            <animate attributeName="fill" values="#00ffea;#0084ff;#00ffea" dur="3s" repeatCount="indefinite" begin="-0.6s" />
         </path>
         <path d="m38.751 5.5948v1.2588h-4.0432v-1.2588zm-2.9021-1.7859h1.5689v6.4554q0 0.34727 0.14263 0.48369 0.14263 0.13643 0.5209 0.13643 0.15503 0 0.35347 0 0.19844 0 0.31626 0v1.2588q-0.16123 0-0.42788 0-0.26045 0-0.5147 0-1.0046 0-1.4821-0.40308-0.47749-0.40928-0.47749-1.2464z">
            <animate attributeName="fill" values="#00ffea;#0084ff;#00ffea" dur="3s" repeatCount="indefinite" begin="-0.8s" />
         </path>
         <path d="m33.025 4.6212q-0.40308 0-0.66973-0.25425-0.26665-0.26045-0.26665-0.63872t0.26665-0.63252q0.26665-0.25425 0.66352-0.25425 0.40308 0 0.66973 0.25425 0.26665 0.25425 0.26665 0.63872 0 0.37827-0.26665 0.63252-0.26665 0.25425-0.66353 0.25425z">
            <animate attributeName="fill" values="#00ffea;#0084ff;#00ffea" dur="3s" repeatCount="indefinite" begin="-1.0s" />
         </path>
         <path d="m32.243 12.143v-6.5484h1.5627v6.5484z">
            <animate attributeName="fill" values="#00ffea;#0084ff;#00ffea" dur="3s" repeatCount="indefinite" begin="-1.0s" />
         </path>
         <path d="m28.399 12.298q-0.79375 0-1.4263-0.24805-0.63252-0.25425-1.017-0.73794-0.38447-0.48989-0.43408-1.1906h1.5441q0.04961 0.47749 0.38447 0.74414 0.34106 0.26045 0.92398 0.26045 0.56431 0 0.88677-0.22324 0.32866-0.22324 0.32866-0.57051 0-0.29766-0.24185-0.47749-0.23564-0.17983-0.65112-0.26665l-1.1162-0.22944q-0.94258-0.19844-1.4263-0.67593-0.48369-0.47749-0.48369-1.2154 0-0.60151 0.32246-1.0542 0.32866-0.45269 0.91777-0.70693 0.59531-0.25425 1.3953-0.25425 0.79375 0 1.3953 0.26665 0.60772 0.26665 0.94878 0.75654 0.34727 0.48369 0.36587 1.1596h-1.4697q-0.006201-0.44028-0.34106-0.72554-0.32866-0.28525-0.86196-0.28525-0.5147 0-0.81235 0.22944-0.29766 0.22944-0.29766 0.56431 0 0.29146 0.22944 0.47749 0.22944 0.17983 0.63872 0.27285l1.1782 0.24185q0.97358 0.20464 1.4325 0.64492 0.46509 0.44028 0.46509 1.1596 0 0.63872-0.35967 1.11-0.35347 0.46509-0.97978 0.71934-0.62632 0.25425-1.4387 0.25425z">
            <animate attributeName="fill" values="#00ffea;#0084ff;#00ffea" dur="3s" repeatCount="indefinite" begin="-1.3s" />
         </path>
         <path d="m19.115 12.298q-0.79375 0-1.4263-0.24805-0.63252-0.25425-1.017-0.73794-0.38447-0.48989-0.43408-1.1906h1.5441q0.04961 0.47749 0.38447 0.74414 0.34106 0.26045 0.92398 0.26045 0.56431 0 0.88677-0.22324 0.32866-0.22324 0.32866-0.57051 0-0.29766-0.24184-0.47749-0.23564-0.17983-0.65112-0.26665l-1.1162-0.22944q-0.94258-0.19844-1.4263-0.67593-0.48369-0.47749-0.48369-1.2154 0-0.60151 0.32246-1.0542 0.32866-0.45269 0.91777-0.70693 0.59531-0.25425 1.3953-0.25425 0.79375 0 1.3953 0.26665 0.60772 0.26665 0.94878 0.75654 0.34726 0.48369 0.36587 1.1596h-1.4697q-0.006201-0.44028-0.34106-0.72554-0.32866-0.28525-0.86196-0.28525-0.5147 0-0.81235 0.22944-0.29766 0.22944-0.29766 0.56431 0 0.29146 0.22944 0.47749 0.22944 0.17983 0.63872 0.27285l1.1782 0.24185q0.97358 0.20464 1.4325 0.64492 0.46509 0.44028 0.46509 1.1596 0 0.63872-0.35967 1.11-0.35347 0.46509-0.97978 0.71934t-1.4387 0.25425z">
            <animate attributeName="fill" values="#00ffea;#0084ff;#00ffea" dur="3s" repeatCount="indefinite" begin="-1.4s" />
         </path>
         <path d="m13.963 6.2707-0.16123-3.3672h1.4573l-0.15503 3.3672z">
            <animate attributeName="fill" values="#00ffea;#0084ff;#00ffea" dur="3s" repeatCount="indefinite" begin="-1.6s" />
         </path>
         <path d="m10.153 12.273q-0.42788 0-0.80615-0.12402-0.37207-0.12402-0.67593-0.37207-0.29766-0.25425-0.50229-0.63252h-0.012402v0.99839h-1.5379v-9.2397h1.5627v3.6215h0.012402q0.21084-0.35967 0.5085-0.59531 0.29766-0.23564 0.66353-0.34727 0.37207-0.11782 0.79375-0.11782 0.84956 0 1.4821 0.42788 0.63872 0.42788 0.99219 1.1968t0.35347 1.7735q0 1.017-0.35347 1.7859-0.34727 0.76894-0.98599 1.1968-0.63872 0.42788-1.4945 0.42788zm-0.36587-1.3084q0.48369 0 0.84336-0.24184 0.36587-0.24185 0.57051-0.71314 0.20464-0.47129 0.20464-1.1472t-0.20464-1.141q-0.20464-0.47129-0.57051-0.71313-0.35967-0.24805-0.84336-0.24805-0.5147 0-0.89297 0.26045t-0.58911 0.73174q-0.21084 0.47129-0.21084 1.11t0.21084 1.1162q0.21084 0.47129 0.58911 0.73174 0.37827 0.25425 0.89297 0.25425z">
            <animate attributeName="fill" values="#00ffea;#0084ff;#00ffea" dur="3s" repeatCount="indefinite" begin="-1.8s" />
         </path>
         <path d="m4.4484 4.6212q-0.40308 0-0.66973-0.25425-0.26665-0.26045-0.26665-0.63872t0.26665-0.63252q0.26665-0.25425 0.66353-0.25425 0.40308 0 0.66973 0.25425 0.26665 0.25425 0.26665 0.63872 0 0.37827-0.26665 0.63252-0.26665 0.25425-0.66353 0.25425z">
            <animate attributeName="fill" values="#00ffea;#0084ff;#00ffea" dur="3s" repeatCount="indefinite" />
         </path>
         <path d="m3.6608 5.5948h1.5689v7.2182q0 0.58911-0.23564 1.017-0.22944 0.43408-0.68213 0.66973-0.45269 0.23564-1.1224 0.23564h-0.63872v-1.2712h0.39688q0.37827 0 0.5457-0.19844 0.16743-0.19844 0.16743-0.63872z">
            <animate attributeName="fill" values="#00ffea;#0084ff;#00ffea" dur="3s" repeatCount="indefinite" />
         </path>
      </g>
      <g
         id="g3"
         style="fill:#999999"
         transform="matrix(1.345291,-0.14139578,0.14139578,1.345291,-28.44094,-7.8640456)">
         <path
            style="font-size:3.175px;font-family:'Patrick Hand';-inkscape-font-specification:'Patrick Hand';stroke-width:0.264583"
            d="m 52.555261,42.086491 q 0.0508,-0.0381 0.08572,-0.04127 0.0381,-0.0064 0.168275,-0.0064 0.13335,0 0.219075,0.0381 0.08572,0.0381 0.08572,0.1524 0,0.1143 -0.09208,0.1143 -0.01905,0 -0.10795,-0.03175 -0.0889,-0.03492 -0.1143,-0.03492 -0.111125,0 -0.13335,0.13335 -0.0064,0.04762 -0.0064,0.19685 0,0.14605 0,0.2413 h 0.22225 q 0.1397,0.0063 0.1397,0.09842 0,0.13335 -0.1905,0.1397 -0.02857,0.0032 -0.06985,0.0032 -0.04128,0 -0.09525,-0.0032 0.0063,0.127 0.02857,0.454025 0.02222,0.32385 0.02222,0.631825 0,0.0635 -0.0508,0.1016 -0.0508,0.0381 -0.104775,0.0381 -0.08572,0 -0.08572,-0.1016 0,-0.28575 -0.02223,-0.555625 -0.02222,-0.269875 -0.03175,-0.568325 -0.28575,0 -0.333375,-0.05715 -0.01905,-0.02222 -0.01905,-0.05715 0,-0.08255 0.06668,-0.107949 0.06985,-0.0254 0.15875,-0.0254 0.0889,0 0.127,0 0.0095,-0.517525 0.05715,-0.64135 0.02857,-0.0762 0.0762,-0.111125 z m 1.269998,0.74295 q 0.2286,0 0.37465,0.219074 0.149225,0.219075 0.149225,0.52705 0,0.3048 -0.1524,0.5207 -0.149225,0.2159 -0.40005,0.2159 -0.24765,0 -0.40005,-0.219075 -0.1524,-0.22225 -0.1524,-0.492125 0,-0.346075 0.1397,-0.55245 0.149225,-0.219074 0.441325,-0.219074 z m -0.0381,0.260349 q -0.13335,0 -0.219075,0.1397 -0.08572,0.1397 -0.08572,0.295275 0,0.2413 0.09525,0.3683 0.09525,0.127 0.2159,0.127 0.2159,0 0.276225,-0.187325 0.0254,-0.0889 0.0254,-0.22225 0,-0.5207 -0.307975,-0.5207 z m 1.908175,0.746125 q 0.111125,0 0.111125,0.187325 0,0.1016 -0.111125,0.2032 -0.10795,0.09843 -0.238125,0.09843 -0.193675,0 -0.28575,-0.19685 -0.04127,0.07937 -0.13335,0.1397 -0.0889,0.05715 -0.180975,0.05715 -0.0889,0 -0.155575,-0.03493 -0.0635,-0.0381 -0.104775,-0.111125 -0.0381,-0.07303 -0.0635,-0.1397 -0.02222,-0.06985 -0.03493,-0.168275 -0.01588,-0.15875 -0.0254,-0.508 -0.0064,-0.352425 -0.0064,-0.669924 0,-0.320675 0.0064,-0.43815 0.0095,-0.12065 0.0381,-0.155575 0.03175,-0.0381 0.09525,-0.0381 0.1397,0 0.1397,0.111125 0,0.08573 -0.01588,0.447675 -0.0127,0.361949 -0.0127,0.647699 0,0.28575 0.02223,0.460375 0.0381,0.3048 0.10795,0.3048 0.06985,0 0.10795,-0.09842 0.0127,-0.0381 0.04762,-0.06667 0.03493,-0.03175 0.0889,-0.03175 h 0.0063 q -0.02857,-0.2794 -0.02857,-0.86995 0,-0.593724 0.0063,-0.711199 0.0095,-0.12065 0.0381,-0.155575 0.03175,-0.0381 0.09525,-0.0381 0.1397,0 0.1397,0.111125 0,0.08573 -0.01588,0.447675 -0.0127,0.361949 -0.0127,0.647699 0,0.28575 0.02222,0.460375 0.0381,0.3048 0.10795,0.3048 0.06985,0 0.10795,-0.09842 0.0127,-0.0381 0.04763,-0.06667 0.03493,-0.03175 0.0889,-0.03175 z m 0.777874,-1.006474 q 0.2286,0 0.37465,0.219074 0.149225,0.219075 0.149225,0.52705 0,0.3048 -0.1524,0.5207 -0.149225,0.2159 -0.40005,0.2159 -0.24765,0 -0.40005,-0.219075 -0.1524,-0.22225 -0.1524,-0.492125 0,-0.346075 0.1397,-0.55245 0.149225,-0.219074 0.441325,-0.219074 z m -0.0381,0.260349 q -0.13335,0 -0.219075,0.1397 -0.08573,0.1397 -0.08573,0.295275 0,0.2413 0.09525,0.3683 0.09525,0.127 0.2159,0.127 0.2159,0 0.276225,-0.187325 0.0254,-0.0889 0.0254,-0.22225 0,-0.5207 -0.307975,-0.5207 z m 1.019174,1.216025 q -0.10795,0 -0.20955,-0.4191 -0.09842,-0.422275 -0.09842,-0.94615 0,-0.05398 0.04445,-0.08255 0.04763,-0.03175 0.08573,-0.03175 0.0381,0 0.06032,0.0254 0.0254,0.02222 0.0254,0.06032 0,0.4953 0.168275,0.9525 0.0254,-0.0381 0.07937,-0.1524 0.05398,-0.117475 0.1016,-0.17145 0.04762,-0.05398 0.1143,-0.05398 0.06667,0 0.1397,0.09842 0.07303,0.09842 0.123825,0.212725 0.05398,0.111125 0.06033,0.117475 0.08572,-0.2667 0.08572,-0.4953 l -0.01905,-0.4826 q -0.0032,-0.04763 0.04445,-0.07937 0.04763,-0.03493 0.09208,-0.03493 0.09208,0 0.09208,0.358774 v 0.174625 q 0,0.42545 -0.130175,0.758825 -0.06985,0.1905 -0.174625,0.1905 -0.06032,0 -0.111125,-0.0762 -0.0508,-0.07938 -0.1143,-0.22225 -0.0635,-0.142875 -0.09842,-0.19685 l -0.09525,0.187325 q -0.05398,0.111125 -0.08255,0.161925 -0.02858,0.04762 -0.07937,0.09842 -0.0508,0.04763 -0.104775,0.04763 z m 2.117722,0.0063 q -0.08255,0 -0.09842,-0.09208 0,-0.64135 -0.0762,-1.143 0,-0.0635 0.04445,-0.1143 0.04763,-0.0508 0.104775,-0.0508 0.06032,0 0.0889,0.06667 0.117475,-0.155574 0.314325,-0.155574 0.250825,0 0.38735,0.241299 0.15875,-0.228599 0.4191,-0.228599 0.263525,0 0.3937,0.209549 0.08572,0.130175 0.12065,0.3429 0.03493,0.212725 0.03493,0.60325 0,0.1524 -0.03175,0.238125 -0.03175,0.08255 -0.13335,0.08255 -0.08255,0 -0.08255,-0.104775 l 0.0095,-0.396875 q 0,-0.714375 -0.371475,-0.714375 -0.117475,0 -0.1651,0.08255 -0.05398,0.09842 -0.0635,0.206375 -0.0127,0.1905 -0.0127,0.346075 v 0.460375 q 0,0.0508 -0.0508,0.08572 -0.0508,0.03493 -0.104775,0.03493 -0.06985,0 -0.0889,-0.09208 l 0.0095,-0.657225 q 0,-0.34925 -0.117475,-0.434975 -0.05715,-0.04127 -0.174625,-0.04127 -0.1143,0 -0.17145,0.08572 -0.05398,0.08573 -0.05398,0.276225 l 0.01905,0.59055 q 0,0.27305 -0.149225,0.27305 z m 2.435225,-1.473199 q 0.168275,0 0.320675,0.09842 0.1524,0.09842 0.1524,0.244475 0,0.142875 -0.123825,0.2794 -0.123825,0.13335 -0.3302,0.161925 -0.0889,0.0127 -0.2667,0.0127 0.03493,0.269875 0.136525,0.3556 0.03175,0.03493 0.08572,0.03493 0.19685,0 0.3302,-0.123825 0.13335,-0.127 0.1905,-0.127 0.0254,0 0.0762,0.04762 0.0508,0.04763 0.0508,0.0889 0,0.08255 -0.200025,0.238125 -0.0889,0.07303 -0.2159,0.123825 -0.123825,0.04762 -0.231775,0.04762 -0.276225,0 -0.4064,-0.3556 -0.08255,-0.219075 -0.08255,-0.4826 0,-0.263525 0.123825,-0.454025 0.123825,-0.190499 0.390525,-0.190499 z m 0.01587,0.219074 q -0.12065,0 -0.206375,0.136525 -0.03175,0.04763 -0.06032,0.2159 0.4445,0 0.4445,-0.219075 0,-0.13335 -0.1778,-0.13335 z m 1.190628,-0.933449 -0.02858,1.082674 q 0,0.174625 0.0032,0.2286 -0.0127,0.04127 -0.0508,0.07303 -0.03493,0.03175 -0.07937,0.03175 -0.04445,0 -0.07303,-0.06985 -0.04763,-0.800099 -0.04763,-1.346199 0.02858,-0.07937 0.14605,-0.07937 0.117475,0 0.130175,0.07937 z m -0.219075,2.031999 q -0.04762,-0.05715 -0.04762,-0.1143 0,-0.05715 0.04445,-0.104775 0.04445,-0.04762 0.117475,-0.04762 0.0762,0 0.10795,0.02857 0.03493,0.02858 0.03493,0.123825 0,0.168275 -0.1397,0.168275 -0.06985,0 -0.117475,-0.05398 z m 1.003299,-2.031999 -0.02858,1.082674 q 0,0.174625 0.0032,0.2286 -0.0127,0.04127 -0.0508,0.07303 -0.03493,0.03175 -0.07937,0.03175 -0.04445,0 -0.07303,-0.06985 -0.04763,-0.800099 -0.04763,-1.346199 0.02858,-0.07937 0.14605,-0.07937 0.117475,0 0.130175,0.07937 z m -0.219075,2.031999 q -0.04762,-0.05715 -0.04762,-0.1143 0,-0.05715 0.04445,-0.104775 0.04445,-0.04762 0.117475,-0.04762 0.0762,0 0.10795,0.02857 0.03493,0.02858 0.03493,0.123825 0,0.168275 -0.1397,0.168275 -0.06985,0 -0.117475,-0.05398 z m 1.003299,-2.031999 -0.02858,1.082674 q 0,0.174625 0.0032,0.2286 -0.0127,0.04127 -0.0508,0.07303 -0.03493,0.03175 -0.07937,0.03175 -0.04445,0 -0.07303,-0.06985 -0.04762,-0.800099 -0.04762,-1.346199 0.02858,-0.07937 0.14605,-0.07937 0.117475,0 0.130175,0.07937 z M 64.5631,44.15654 q -0.04762,-0.05715 -0.04762,-0.1143 0,-0.05715 0.04445,-0.104775 0.04445,-0.04762 0.117475,-0.04762 0.0762,0 0.10795,0.02857 0.03493,0.02858 0.03493,0.123825 0,0.168275 -0.1397,0.168275 -0.06985,0 -0.117475,-0.05398 z"
            id="text1"
            aria-label="follow me!!!" />
         <path
            d="m 67.474509,45.409343 q -0.180975,-0.358775 -0.5715,-0.6985 v -0.180975 q 0.339725,0.155575 0.504825,0.3048 v -1.2319 q 0,-0.13335 -0.02222,-0.23495 -0.01905,-0.104775 -0.08255,-0.161925 -0.0635,-0.06033 -0.19685,-0.06033 h -1.222375 v -0.225425 h 1.222375 q 0.20955,0 0.32385,0.0889 0.1143,0.08573 0.15875,0.231775 0.04445,0.14605 0.04445,0.32385 v 1.27 q 0.1651,-0.149225 0.504825,-0.3048 v 0.180975 q -0.390525,0.339725 -0.5715,0.6985 z"
            id="text3"
            style="font-size:3.175px;font-family:'Patrick Hand';-inkscape-font-specification:'Patrick Hand';stroke-width:0.264583"
            aria-label="" />
      </g>
   </g>
</svg>
