<?xml version="1.0" encoding="UTF-8"?>
<!-- Created with Inkscape (http://www.inkscape.org/) -->
<svg width="275" height="190" version="1.1" viewBox="0 0 72.76 50.271" xmlns="http://www.w3.org/2000/svg">
 <path d="m-0.27809-0.37079h72.952v50.89h-72.952z" fill="#1d1f20" stroke-width=".26458"/>
 <rect x="-.37079" y="-.37079" width="72.86" height="18.169" fill="#343a40"/>
 <g transform="translate(-.46348 -.51751)" fill="#fff" stroke-width=".26458" aria-label="just basically a modern website, but with
soul because it's not owned by an corporate
entity">
  <path d="m2.6272 20.614h0.29283v2.0739q0 0.13091-0.056844 0.23599-0.055121 0.1068-0.16192 0.16709-0.1068 0.06201-0.2601 0.06201h-0.12747v-0.25838h0.099908q0.11197 0 0.16192-0.06029 0.051676-0.06029 0.051676-0.1912zm0.14642-0.35484q-0.082682 0-0.14125-0.05857-0.058566-0.05857-0.058566-0.14125 0-0.08268 0.058566-0.14125 0.058566-0.05857 0.14125-0.05857 0.082682 0 0.14125 0.05857 0.058567 0.05857 0.058567 0.14125 0 0.08268-0.058567 0.14125-0.058566 0.05857-0.14125 0.05857zm1.2488 2.2083q-0.18259 0-0.3359-0.07924-0.15158-0.08096-0.24288-0.24116-0.089572-0.16192-0.089572-0.40308v-1.13h0.29283v1.1093q0 0.23599 0.11369 0.35657 0.11369 0.11886 0.31695 0.11886 0.13264 0 0.24116-0.0534t0.17225-0.16881q0.065457-0.11541 0.065457-0.298v-1.0645h0.29283v1.819h-0.28594v-0.44097h0.082682q-0.089572 0.2446-0.24977 0.36001-0.15847 0.11541-0.37379 0.11541zm1.8948 0.0069q-0.19465 0-0.35312-0.06373-0.15847-0.06373-0.25666-0.19292-0.098185-0.13091-0.11024-0.32901h0.28939q0.015503 0.16192 0.12402 0.24805 0.10852 0.08613 0.29972 0.08613 0.18948 0 0.298-0.07924 0.11024-0.07924 0.11024-0.19982 0-0.10335-0.075792-0.16536-0.075792-0.06201-0.19809-0.08957l-0.29283-0.0689q-0.25321-0.06029-0.38413-0.18948-0.12919-0.12919-0.12919-0.32728 0-0.15503 0.082682-0.27388 0.084405-0.12058 0.23254-0.18776 0.14986-0.0689 0.34451-0.0689 0.18948 0 0.33934 0.07235 0.15158 0.07062 0.23943 0.20154 0.089572 0.13091 0.09474 0.31178h-0.28594q-0.00172-0.14469-0.1068-0.23943-0.10508-0.09474-0.28077-0.09474-0.16709 0-0.26699 0.08096-0.099908 0.08096-0.099908 0.19809 0 0.10335 0.075792 0.16709 0.075792 0.06201 0.20671 0.09302l0.29283 0.0689q0.26183 0.06201 0.38413 0.18603 0.1223 0.1223 0.1223 0.31867 0 0.16881-0.091295 0.28939-0.091295 0.12058-0.24977 0.18431-0.15675 0.06373-0.35484 0.06373zm1.869-1.8604v0.25149h-0.9853v-0.25149zm-0.66146-0.49609h0.29283v1.8741q0 0.10508 0.043064 0.14814 0.044786 0.04134 0.15675 0.04134 0.039618 0 0.084405 0 0.046509 0 0.084405 0v0.25149q-0.044786 0-0.098185 0t-0.098185 0q-0.23427 0-0.34968-0.10163-0.11541-0.10335-0.11541-0.30834zm2.7113 2.3496q-0.11713 0-0.22393-0.03445-0.1068-0.03273-0.19637-0.10163-0.089572-0.0689-0.15503-0.17398h-0.00345v0.27561h-0.28594v-2.5666h0.29283v1.0163h0.00344q0.058567-0.10163 0.14642-0.16881 0.08785-0.06718 0.19637-0.09991 0.10852-0.03445 0.22565-0.03445 0.23771 0 0.41513 0.11886t0.27561 0.33245q0.09818 0.21187 0.09818 0.49265 0 0.27905-0.09818 0.49265-0.09819 0.21187-0.27561 0.33245-0.17742 0.11886-0.41513 0.11886zm-0.044786-0.26355q0.15847 0 0.27905-0.07751 0.12058-0.07752 0.18948-0.2291 0.0689-0.15158 0.0689-0.37379 0-0.22393-0.0689-0.37552t-0.18948-0.2291q-0.12058-0.07752-0.27905-0.07752-0.16881 0-0.29283 0.08441-0.12402 0.0844-0.1912 0.23771-0.067179 0.15331-0.067179 0.36001 0 0.20498 0.067179 0.35829 0.067179 0.15331 0.1912 0.23771 0.12402 0.0844 0.29283 0.0844zm1.7467 0.25666q-0.18087 0-0.32384-0.06201t-0.22738-0.18431q-0.08268-0.12402-0.08268-0.30489 0-0.15675 0.06029-0.25494 0.06201-0.09818 0.16364-0.15331 0.10335-0.05684 0.23254-0.08613 0.13091-0.02928 0.26699-0.04651 0.17398-0.02412 0.27388-0.03617 0.09991-0.01206 0.14125-0.03962 0.04306-0.02756 0.04306-0.09646v-0.01722q0-0.09991-0.04823-0.1757-0.04651-0.07751-0.1378-0.12058-0.08957-0.04479-0.21704-0.04479-0.12575 0-0.22393 0.04306-0.09646 0.04134-0.15503 0.11369-0.05684 0.07235-0.06373 0.16364h-0.298q0.0086-0.16709 0.10335-0.29628 0.09474-0.13091 0.25838-0.20671 0.16364-0.07579 0.37896-0.07579 0.15847 0 0.28594 0.04306 0.12919 0.04306 0.21876 0.1223 0.0913 0.07924 0.13953 0.18948 0.04823 0.11024 0.04823 0.2446v1.254h-0.28939v-0.25838h-0.0069q-0.03273 0.06546-0.09646 0.13264-0.06373 0.06546-0.17225 0.11024-0.1068 0.04306-0.27216 0.04306zm0.04134-0.26183q0.17914 0 0.29111-0.06373 0.11196-0.06546 0.16364-0.16881 0.05168-0.10335 0.05168-0.22221v-0.22738q-0.01722 0.0155-0.06373 0.02928-0.04479 0.01378-0.11196 0.02756-0.06546 0.01206-0.14297 0.02412-0.07579 0.01206-0.15331 0.02239-0.10508 0.01378-0.19982 0.04823-0.09302 0.03273-0.15158 0.09474-0.05857 0.06029-0.05857 0.16364 0 0.0844 0.04479 0.14642 0.04651 0.06029 0.13091 0.09302 0.08441 0.03273 0.19982 0.03273zm1.8638 0.27561q-0.19465 0-0.35312-0.06373t-0.25666-0.19292q-0.09818-0.13091-0.11024-0.32901h0.28939q0.0155 0.16192 0.12402 0.24805 0.10852 0.08613 0.29972 0.08613 0.18948 0 0.298-0.07924 0.11024-0.07924 0.11024-0.19982 0-0.10335-0.07579-0.16536-0.07579-0.06201-0.19809-0.08957l-0.29283-0.0689q-0.25321-0.06029-0.38413-0.18948-0.12919-0.12919-0.12919-0.32728 0-0.15503 0.08268-0.27388 0.08441-0.12058 0.23254-0.18776 0.14986-0.0689 0.34451-0.0689 0.18948 0 0.33934 0.07235 0.15158 0.07062 0.23943 0.20154 0.08957 0.13091 0.09474 0.31178h-0.28594q-0.0017-0.14469-0.1068-0.23943-0.10508-0.09474-0.28078-0.09474-0.16709 0-0.26699 0.08096-0.09991 0.08096-0.09991 0.19809 0 0.10335 0.07579 0.16709 0.07579 0.06201 0.20671 0.09302l0.29283 0.0689q0.26183 0.06201 0.38413 0.18603 0.1223 0.1223 0.1223 0.31867 0 0.16881-0.0913 0.28939-0.09129 0.12058-0.24977 0.18431-0.15675 0.06373-0.35484 0.06373zm1.0404-0.04134v-1.819h0.29283v1.819zm0.14642-2.1739q-0.08268 0-0.14125-0.05857-0.05857-0.05857-0.05857-0.14125 0-0.08268 0.05857-0.14125 0.05857-0.05857 0.14125-0.05857 0.08268 0 0.14125 0.05857 0.05857 0.05857 0.05857 0.14125 0 0.08268-0.05857 0.14125-0.05857 0.05857-0.14125 0.05857zm1.3315 2.2152q-0.25149 0-0.44269-0.12058-0.18948-0.1223-0.29628-0.3359-0.10508-0.2136-0.10508-0.49092 0-0.27905 0.10508-0.49437 0.1068-0.21532 0.29628-0.33762 0.1912-0.1223 0.44269-0.1223 0.15503 0 0.28594 0.04823 0.13264 0.04651 0.23254 0.13264 0.10163 0.08441 0.16536 0.19982 0.06373 0.11541 0.08268 0.25321h-0.29627q-0.0155-0.08096-0.0534-0.14814-0.0379-0.06718-0.09819-0.11541-0.05857-0.04995-0.1378-0.07751-0.07924-0.02756-0.18087-0.02756-0.17053 0-0.29456 0.08613-0.1223 0.08441-0.18776 0.23943-0.06546 0.15503-0.06546 0.36346 0 0.2067 0.06546 0.36001 0.06546 0.15331 0.18776 0.23771 0.1223 0.08441 0.29456 0.08441 0.10163 0 0.17914-0.02584 0.07751-0.02584 0.13264-0.07407 0.05684-0.04995 0.09474-0.11713 0.0379-0.0689 0.05857-0.15158h0.30144q-0.01895 0.13436-0.08268 0.24977-0.06373 0.11541-0.16536 0.20154-0.10163 0.08613-0.23427 0.13436-0.13091 0.04823-0.28422 0.04823zm1.6657-0.01378q-0.18087 0-0.32384-0.06201t-0.22738-0.18431q-0.08268-0.12402-0.08268-0.30489 0-0.15675 0.06029-0.25494 0.06201-0.09818 0.16364-0.15331 0.10335-0.05684 0.23254-0.08613 0.13091-0.02928 0.267-0.04651 0.17398-0.02412 0.27388-0.03617 0.09991-0.01206 0.14125-0.03962 0.04306-0.02756 0.04306-0.09646v-0.01722q0-0.09991-0.04823-0.1757-0.04651-0.07751-0.1378-0.12058-0.08957-0.04479-0.21704-0.04479-0.12575 0-0.22393 0.04306-0.09646 0.04134-0.15503 0.11369-0.05684 0.07235-0.06373 0.16364h-0.298q0.0086-0.16709 0.10335-0.29628 0.09474-0.13091 0.25838-0.20671 0.16364-0.07579 0.37896-0.07579 0.15847 0 0.28594 0.04306 0.12919 0.04306 0.21876 0.1223 0.09129 0.07924 0.13953 0.18948 0.04823 0.11024 0.04823 0.2446v1.254h-0.28939v-0.25838h-0.0069q-0.03273 0.06546-0.09646 0.13264-0.06373 0.06546-0.17226 0.11024-0.1068 0.04306-0.27216 0.04306zm0.04134-0.26183q0.17914 0 0.29111-0.06373 0.11197-0.06546 0.16364-0.16881 0.05168-0.10335 0.05168-0.22221v-0.22738q-0.01722 0.0155-0.06373 0.02928-0.04479 0.01378-0.11196 0.02756-0.06546 0.01206-0.14297 0.02412-0.07579 0.01206-0.15331 0.02239-0.10508 0.01378-0.19982 0.04823-0.09302 0.03273-0.15158 0.09474-0.05857 0.06029-0.05857 0.16364 0 0.0844 0.04479 0.14642 0.04651 0.06029 0.13091 0.09302 0.08441 0.03273 0.19982 0.03273zm1.5227-2.3323v2.5666h-0.29283v-2.5666zm0.72691 0v2.5666h-0.29283v-2.5666zm0.46509 3.2866v-0.25838h0.17914q0.05684 0 0.09991-0.02412 0.04479-0.02239 0.08096-0.07062t0.06546-0.12402l0.09991-0.25838-0.70452-1.8035h0.31695l0.39274 1.0473q0.04995 0.13091 0.09646 0.26183 0.04651 0.13091 0.08957 0.26183h-0.077516q0.04306-0.13091 0.08957-0.26183 0.04823-0.13091 0.09646-0.26183l0.38585-1.0473h0.31178l-0.83888 2.1566q-0.04823 0.1223-0.1223 0.20671-0.07407 0.08613-0.17053 0.13091-0.09646 0.04479-0.21187 0.04479-0.04479 0-0.08957 0-0.04479 0-0.08957 0zm3.228-0.69246q-0.18087 0-0.32384-0.06201t-0.22738-0.18431q-0.08268-0.12402-0.08268-0.30489 0-0.15675 0.06029-0.25494 0.06201-0.09818 0.16364-0.15331 0.10335-0.05684 0.23254-0.08613 0.13091-0.02928 0.26699-0.04651 0.17398-0.02412 0.27388-0.03617 0.09991-0.01206 0.14125-0.03962 0.04306-0.02756 0.04306-0.09646v-0.01722q0-0.09991-0.04823-0.1757-0.04651-0.07751-0.1378-0.12058-0.08957-0.04479-0.21704-0.04479-0.12575 0-0.22393 0.04306-0.09646 0.04134-0.15503 0.11369-0.05684 0.07235-0.06373 0.16364h-0.298q0.0086-0.16709 0.10335-0.29628 0.09474-0.13091 0.25838-0.20671 0.16364-0.07579 0.37896-0.07579 0.15847 0 0.28594 0.04306 0.12919 0.04306 0.21876 0.1223 0.0913 0.07924 0.13953 0.18948 0.04823 0.11024 0.04823 0.2446v1.254h-0.28939v-0.25838h-0.0069q-0.03273 0.06546-0.09646 0.13264-0.06373 0.06546-0.17225 0.11024-0.1068 0.04306-0.27216 0.04306zm0.04134-0.26183q0.17914 0 0.29111-0.06373 0.11196-0.06546 0.16364-0.16881 0.05168-0.10335 0.05168-0.22221v-0.22738q-0.01723 0.0155-0.06373 0.02928-0.04479 0.01378-0.11197 0.02756-0.06546 0.01206-0.14297 0.02412-0.07579 0.01206-0.15331 0.02239-0.10508 0.01378-0.19982 0.04823-0.09302 0.03273-0.15158 0.09474-0.05857 0.06029-0.05857 0.16364 0 0.0844 0.04479 0.14642 0.04651 0.06029 0.13091 0.09302 0.08441 0.03273 0.19982 0.03273zm2.1118 0.23427v-1.819h0.28594v0.37207h-0.03617q0.0534-0.13264 0.13953-0.22221 0.08785-0.09129 0.19982-0.1378 0.11196-0.04651 0.23599-0.04651 0.2136 0 0.36174 0.1223 0.14986 0.12058 0.18603 0.28422h-0.06029q0.03962-0.11197 0.12402-0.20326 0.08441-0.09302 0.20671-0.14814 0.12402-0.05512 0.27733-0.05512 0.16709 0 0.30317 0.07235 0.1378 0.07235 0.21876 0.21876 0.08268 0.14642 0.08268 0.37035v1.192h-0.29283v-1.192q0-0.21187-0.11886-0.30144-0.11886-0.0913-0.27561-0.0913-0.13264 0-0.2291 0.05512-0.09646 0.05512-0.14814 0.15158-0.05168 0.09646-0.05168 0.22048v1.1576h-0.29283v-1.223q0-0.16364-0.11024-0.26183-0.10852-0.09991-0.27388-0.09991-0.11369 0-0.21532 0.0534-0.09991 0.0534-0.16192 0.1602-0.06201 0.10508-0.06201 0.26183v1.1093zm3.7104 0.04134q-0.25149 0-0.44269-0.12058-0.18948-0.1223-0.29628-0.3359-0.10508-0.2136-0.10508-0.49092 0-0.27905 0.10508-0.49437 0.1068-0.21532 0.29628-0.33762 0.1912-0.1223 0.44269-0.1223 0.25321 0 0.44269 0.1223 0.18948 0.1223 0.29456 0.33762 0.1068 0.21532 0.1068 0.49437 0 0.27733-0.1068 0.49092-0.10508 0.2136-0.29456 0.3359-0.18948 0.12058-0.44269 0.12058zm0-0.26527q0.17225 0 0.29456-0.08441 0.1223-0.0844 0.18776-0.23771 0.06546-0.15503 0.06546-0.36001 0-0.20843-0.06546-0.36174-0.06546-0.15503-0.18776-0.24116-0.1223-0.08613-0.29456-0.08613-0.17053 0-0.29456 0.08613-0.1223 0.08441-0.18776 0.23943-0.06546 0.15503-0.06546 0.36346 0 0.2067 0.06546 0.36001 0.06546 0.15331 0.18776 0.23771 0.1223 0.08441 0.29456 0.08441zm1.881 0.25838q-0.23599 0-0.41513-0.11886-0.17742-0.12058-0.27561-0.33245-0.09819-0.2136-0.09819-0.49265 0-0.28078 0.09819-0.49265 0.09819-0.2136 0.27561-0.33245 0.17914-0.11886 0.41513-0.11886 0.11886 0 0.22565 0.03445 0.10852 0.03273 0.19637 0.09991 0.08785 0.06718 0.14642 0.16881h0.0034v-1.0163h0.29283v2.5666h-0.28594v-0.27561h-0.0034q-0.06546 0.10508-0.15503 0.17398-0.08957 0.0689-0.19637 0.10163-0.10508 0.03445-0.22393 0.03445zm0.04479-0.26355q0.16881 0 0.29283-0.0844 0.12402-0.08441 0.1912-0.23771 0.06718-0.15331 0.06718-0.35829 0-0.20671-0.06718-0.36001-0.06718-0.15331-0.1912-0.23771-0.12402-0.08441-0.29283-0.08441-0.15675 0-0.27905 0.07752-0.12058 0.07751-0.18948 0.2291-0.0689 0.15158-0.0689 0.37552 0 0.22221 0.0689 0.37379 0.0689 0.15158 0.18948 0.2291 0.1223 0.07751 0.27905 0.07751zm2.005 0.27044q-0.267 0-0.45647-0.1223-0.18776-0.1223-0.28766-0.3359-0.09991-0.21532-0.09991-0.4892 0-0.27733 0.10508-0.49265 0.10508-0.21532 0.29111-0.33762 0.18604-0.12402 0.42719-0.12402 0.18948 0 0.34106 0.0689 0.15331 0.0689 0.26183 0.19637 0.10852 0.12747 0.16536 0.30317 0.05857 0.17398 0.05857 0.38585v0.08096h-1.4952v-0.25149h1.3315l-0.12575 0.08785q0-0.18604-0.06718-0.32212-0.06546-0.1378-0.18604-0.21187-0.12058-0.07579-0.28422-0.07579-0.16192 0-0.2825 0.07579-0.11886 0.07407-0.18604 0.21187-0.06546 0.13608-0.06546 0.32212v0.12402q0 0.18776 0.06373 0.33245 0.06546 0.14469 0.18948 0.22738 0.12402 0.08096 0.30144 0.08096 0.12919 0 0.22738-0.03962 0.09819-0.04134 0.16192-0.11369 0.06546-0.07235 0.09302-0.16709h0.29283q-0.03445 0.17398-0.14297 0.30661-0.10852 0.13091-0.27216 0.20498-0.16192 0.07407-0.36001 0.07407zm1.1403-0.04134v-1.819h0.27905v0.28594h0.0069q0.04995-0.14125 0.15847-0.22738 0.10852-0.08613 0.27905-0.08613 0.03962 0 0.07235 0.0034 0.03445 0.0034 0.05168 0.0069v0.29283q-0.01723-0.0052-0.06718-0.01206-0.04823-0.0086-0.11197-0.0086-0.09991 0-0.18603 0.04651-0.08613 0.04651-0.1378 0.14469-0.05168 0.09819-0.05168 0.25321v1.1197zm1.4297-1.0645v1.0645h-0.29283v-1.819h0.28594v0.44097h-0.08268q0.08957-0.24632 0.24805-0.36001 0.1602-0.11541 0.37551-0.11541 0.18431 0 0.3359 0.08096 0.15158 0.07924 0.24116 0.23943 0.09129 0.1602 0.09129 0.40308v1.13h-0.29283v-1.1093q0-0.23599-0.11369-0.35484-0.11196-0.12058-0.31695-0.12058-0.13264 0-0.24116 0.0534-0.10852 0.0534-0.17398 0.16881-0.06373 0.11369-0.06373 0.298zm2.918 1.0645-0.56499-1.819h0.30661l0.2291 0.79926q0.0534 0.18431 0.10163 0.37724 0.04995 0.19292 0.09991 0.37896h-0.04134q0.04995-0.18604 0.09991-0.37896 0.04995-0.19292 0.10335-0.37724l0.23082-0.79926h0.28939l0.22738 0.79926q0.0534 0.18431 0.10163 0.37724 0.04995 0.19292 0.09991 0.37896h-0.04651q0.05168-0.18604 0.10163-0.37896 0.05168-0.19292 0.10508-0.37724l0.23427-0.79926h0.30661l-0.565 1.819h-0.30661l-0.23943-0.82682q-0.03445-0.12402-0.0689-0.25149-0.03273-0.12747-0.06546-0.25494-0.03273-0.12919-0.06718-0.25321h0.07751q-0.03445 0.12402-0.0689 0.25321-0.03273 0.12747-0.06718 0.25494-0.03273 0.12747-0.0689 0.25149l-0.2446 0.82682zm2.9404 0.04134q-0.26699 0-0.45647-0.1223-0.18776-0.1223-0.28766-0.3359-0.09991-0.21532-0.09991-0.4892 0-0.27733 0.10508-0.49265t0.29111-0.33762q0.18604-0.12402 0.42719-0.12402 0.18948 0 0.34106 0.0689 0.15331 0.0689 0.26183 0.19637 0.10852 0.12747 0.16536 0.30317 0.05857 0.17398 0.05857 0.38585v0.08096h-1.4952v-0.25149h1.3315l-0.12574 0.08785q0-0.18604-0.06718-0.32212-0.06546-0.1378-0.18603-0.21187-0.12058-0.07579-0.28422-0.07579-0.16192 0-0.2825 0.07579-0.11886 0.07407-0.18604 0.21187-0.06546 0.13608-0.06546 0.32212v0.12402q0 0.18776 0.06373 0.33245 0.06546 0.14469 0.18948 0.22738 0.12402 0.08096 0.30144 0.08096 0.12919 0 0.22738-0.03962 0.09819-0.04134 0.16192-0.11369 0.06546-0.07235 0.09302-0.16709h0.29283q-0.03445 0.17398-0.14297 0.30661-0.10852 0.13091-0.27216 0.20498-0.16192 0.07407-0.36001 0.07407zm2.005-0.0069q-0.11713 0-0.22393-0.03445-0.1068-0.03273-0.19637-0.10163-0.08957-0.0689-0.15503-0.17398h-0.0034v0.27561h-0.28594v-2.5666h0.29283v1.0163h0.0034q0.05857-0.10163 0.14642-0.16881 0.08785-0.06718 0.19637-0.09991 0.10852-0.03445 0.22565-0.03445 0.23771 0 0.41513 0.11886t0.27561 0.33245q0.09819 0.21187 0.09819 0.49265 0 0.27905-0.09819 0.49265-0.09819 0.21187-0.27561 0.33245-0.17742 0.11886-0.41513 0.11886zm-0.04479-0.26355q0.15847 0 0.27905-0.07751 0.12058-0.07752 0.18948-0.2291 0.0689-0.15158 0.0689-0.37379 0-0.22393-0.0689-0.37552t-0.18948-0.2291q-0.12058-0.07752-0.27905-0.07752-0.16881 0-0.29283 0.08441-0.12402 0.0844-0.1912 0.23771-0.06718 0.15331-0.06718 0.36001 0 0.20498 0.06718 0.35829 0.06718 0.15331 0.1912 0.23771 0.12402 0.0844 0.29283 0.0844zm1.8087 0.27044q-0.19465 0-0.35312-0.06373t-0.25666-0.19292q-0.09818-0.13091-0.11024-0.32901h0.28939q0.0155 0.16192 0.12402 0.24805 0.10852 0.08613 0.29972 0.08613 0.18948 0 0.298-0.07924 0.11024-0.07924 0.11024-0.19982 0-0.10335-0.07579-0.16536-0.07579-0.06201-0.19809-0.08957l-0.29283-0.0689q-0.25321-0.06029-0.38413-0.18948-0.12919-0.12919-0.12919-0.32728 0-0.15503 0.08268-0.27388 0.0844-0.12058 0.23254-0.18776 0.14986-0.0689 0.34451-0.0689 0.18948 0 0.33934 0.07235 0.15158 0.07062 0.23943 0.20154 0.08957 0.13091 0.09474 0.31178h-0.28594q-0.0017-0.14469-0.1068-0.23943-0.10508-0.09474-0.28078-0.09474-0.16709 0-0.26699 0.08096-0.09991 0.08096-0.09991 0.19809 0 0.10335 0.07579 0.16709 0.07579 0.06201 0.20671 0.09302l0.29283 0.0689q0.26183 0.06201 0.38413 0.18603 0.1223 0.1223 0.1223 0.31867 0 0.16881-0.0913 0.28939-0.09129 0.12058-0.24977 0.18431-0.15675 0.06373-0.35484 0.06373zm1.0404-0.04134v-1.819h0.29283v1.819zm0.14642-2.1739q-0.08268 0-0.14125-0.05857-0.05857-0.05857-0.05857-0.14125 0-0.08268 0.05857-0.14125 0.05857-0.05857 0.14125-0.05857 0.08268 0 0.14125 0.05857 0.05857 0.05857 0.05857 0.14125 0 0.08268-0.05857 0.14125-0.05857 0.05857-0.14125 0.05857zm1.409 0.35484v0.25149h-0.9853v-0.25149zm-0.66146-0.49609h0.29283v1.8741q0 0.10508 0.04306 0.14814 0.04479 0.04134 0.15675 0.04134 0.03962 0 0.08441 0 0.04651 0 0.0844 0v0.25149q-0.04479 0-0.09819 0t-0.09819 0q-0.23427 0-0.34968-0.10163-0.11541-0.10335-0.11541-0.30834zm1.6812 2.3564q-0.267 0-0.45647-0.1223-0.18776-0.1223-0.28766-0.3359-0.09991-0.21532-0.09991-0.4892 0-0.27733 0.10508-0.49265 0.10508-0.21532 0.29111-0.33762 0.18604-0.12402 0.42719-0.12402 0.18948 0 0.34106 0.0689 0.15331 0.0689 0.26183 0.19637 0.10852 0.12747 0.16536 0.30317 0.05857 0.17398 0.05857 0.38585v0.08096h-1.4952v-0.25149h1.3315l-0.12575 0.08785q0-0.18604-0.06718-0.32212-0.06546-0.1378-0.18604-0.21187-0.12058-0.07579-0.28422-0.07579-0.16192 0-0.2825 0.07579-0.11886 0.07407-0.18604 0.21187-0.06546 0.13608-0.06546 0.32212v0.12402q0 0.18776 0.06373 0.33245 0.06546 0.14469 0.18948 0.22738 0.12402 0.08096 0.30144 0.08096 0.12919 0 0.22738-0.03962 0.09819-0.04134 0.16192-0.11369 0.06546-0.07235 0.09302-0.16709h0.29283q-0.03445 0.17398-0.14297 0.30661-0.10852 0.13091-0.27216 0.20498-0.16192 0.07407-0.36001 0.07407zm1.0197 0.44269 0.15158-0.84232h0.3135l-0.25149 0.84232zm2.6424-0.44958q-0.11713 0-0.22393-0.03445-0.1068-0.03273-0.19637-0.10163-0.08957-0.0689-0.15503-0.17398h-0.0034v0.27561h-0.28594v-2.5666h0.29283v1.0163h0.0034q0.05857-0.10163 0.14642-0.16881 0.08785-0.06718 0.19637-0.09991 0.10852-0.03445 0.22565-0.03445 0.23771 0 0.41513 0.11886t0.27561 0.33245q0.09819 0.21187 0.09819 0.49265 0 0.27905-0.09819 0.49265-0.09819 0.21187-0.27561 0.33245-0.17742 0.11886-0.41513 0.11886zm-0.04479-0.26355q0.15847 0 0.27905-0.07751 0.12058-0.07752 0.18948-0.2291 0.0689-0.15158 0.0689-0.37379 0-0.22393-0.0689-0.37552t-0.18948-0.2291q-0.12058-0.07752-0.27905-0.07752-0.16881 0-0.29283 0.08441-0.12402 0.0844-0.1912 0.23771-0.06718 0.15331-0.06718 0.36001 0 0.20498 0.06718 0.35829 0.06718 0.15331 0.1912 0.23771 0.12402 0.0844 0.29283 0.0844zm1.8431 0.26355q-0.18259 0-0.3359-0.07924-0.15158-0.08096-0.24288-0.24116-0.08957-0.16192-0.08957-0.40308v-1.13h0.29283v1.1093q0 0.23599 0.11369 0.35657 0.11369 0.11886 0.31695 0.11886 0.13264 0 0.24116-0.0534 0.10852-0.0534 0.17226-0.16881 0.06546-0.11541 0.06546-0.298v-1.0645h0.29283v1.819h-0.28594v-0.44097h0.08268q-0.08957 0.2446-0.24977 0.36001-0.15847 0.11541-0.37379 0.11541zm2.055-1.8535v0.25149h-0.9853v-0.25149zm-0.66146-0.49609h0.29283v1.8741q0 0.10508 0.04306 0.14814 0.04479 0.04134 0.15675 0.04134 0.03962 0 0.0844 0 0.04651 0 0.0844 0v0.25149q-0.04479 0-0.09819 0t-0.09818 0q-0.23427 0-0.34968-0.10163-0.11541-0.10335-0.11541-0.30834zm2.2462 2.3151-0.565-1.819h0.30661l0.2291 0.79926q0.0534 0.18431 0.10163 0.37724 0.04995 0.19292 0.09991 0.37896h-0.04134q0.04995-0.18604 0.09991-0.37896 0.04995-0.19292 0.10335-0.37724l0.23082-0.79926h0.28939l0.22738 0.79926q0.0534 0.18431 0.10163 0.37724 0.04995 0.19292 0.09991 0.37896h-0.04651q0.05168-0.18604 0.10163-0.37896 0.05168-0.19292 0.10508-0.37724l0.23427-0.79926h0.30661l-0.565 1.819h-0.30661l-0.23943-0.82682q-0.03445-0.12402-0.0689-0.25149-0.03273-0.12747-0.06546-0.25494-0.03273-0.12919-0.06718-0.25321h0.07752q-0.03445 0.12402-0.0689 0.25321-0.03273 0.12747-0.06718 0.25494-0.03273 0.12747-0.0689 0.25149l-0.2446 0.82682zm2.2531 0v-1.819h0.29283v1.819zm0.14642-2.1739q-0.08268 0-0.14125-0.05857-0.05857-0.05857-0.05857-0.14125 0-0.08268 0.05857-0.14125 0.05857-0.05857 0.14125-0.05857 0.08268 0 0.14125 0.05857 0.05857 0.05857 0.05857 0.14125 0 0.08268-0.05857 0.14125-0.05857 0.05857-0.14125 0.05857zm1.409 0.35484v0.25149h-0.9853v-0.25149zm-0.66146-0.49609h0.29283v1.8741q0 0.10508 0.04306 0.14814 0.04479 0.04134 0.15675 0.04134 0.03962 0 0.0844 0 0.04651 0 0.0844 0v0.25149q-0.04479 0-0.09819 0t-0.09819 0q-0.23427 0-0.34968-0.10163-0.11541-0.10335-0.11541-0.30834zm1.2575 1.2506v1.0645h-0.29283v-2.5666h0.29283v1.1886h-0.08957q0.08957-0.24632 0.24805-0.36001 0.1602-0.11541 0.37552-0.11541 0.18431 0 0.3359 0.08096 0.15158 0.07924 0.24116 0.23943 0.0913 0.1602 0.0913 0.40308v1.13h-0.29283v-1.1093q0-0.23599-0.11369-0.35484-0.11197-0.12058-0.31695-0.12058-0.13264 0-0.24116 0.0534-0.10852 0.0534-0.17398 0.16881-0.06373 0.11369-0.06373 0.298z"/>
  <path d="m3.261 26.884q-0.19465 0-0.35312-0.06373-0.15847-0.063738-0.25666-0.19293-0.098185-0.13091-0.11024-0.32901h0.28939q0.015503 0.16192 0.12402 0.24805 0.10852 0.08613 0.29972 0.08613 0.18948 0 0.298-0.07924 0.11024-0.07924 0.11024-0.19982 0-0.10335-0.075792-0.16536-0.075792-0.06201-0.19809-0.08957l-0.29283-0.0689q-0.25321-0.06029-0.38413-0.18948-0.12919-0.12919-0.12919-0.32728 0-0.15503 0.082682-0.27388 0.084405-0.12058 0.23254-0.18776 0.14986-0.0689 0.34451-0.0689 0.18948 0 0.33934 0.07235 0.15158 0.07062 0.23943 0.20154 0.089572 0.13091 0.09474 0.31178h-0.28594q-0.00172-0.14469-0.1068-0.23943-0.10508-0.09474-0.28077-0.09474-0.16709 0-0.26699 0.08096-0.099908 0.08096-0.099908 0.19809 0 0.10335 0.075792 0.16709 0.075792 0.06201 0.20671 0.09302l0.29283 0.0689q0.26183 0.06201 0.38413 0.18604 0.1223 0.1223 0.1223 0.31867 0 0.16881-0.091295 0.28939t-0.24977 0.18431q-0.15675 0.06373-0.35484 0.06373zm1.7914 0q-0.25149 0-0.44269-0.12058-0.18948-0.1223-0.29628-0.3359-0.10508-0.2136-0.10508-0.49092 0-0.27905 0.10508-0.49437 0.1068-0.21532 0.29628-0.33762 0.1912-0.1223 0.44269-0.1223 0.25321 0 0.44269 0.1223 0.18948 0.1223 0.29456 0.33762 0.1068 0.21532 0.1068 0.49437 0 0.27733-0.1068 0.49092-0.10508 0.2136-0.29456 0.3359-0.18948 0.12058-0.44269 0.12058zm0-0.26527q0.17225 0 0.29456-0.08441t0.18776-0.23771q0.065457-0.15503 0.065457-0.36001 0-0.20843-0.065457-0.36173-0.065457-0.15503-0.18776-0.24116-0.1223-0.08613-0.29456-0.08613-0.17053 0-0.29456 0.08613-0.1223 0.0844-0.18776 0.23943-0.065457 0.15503-0.065457 0.36346 0 0.2067 0.065457 0.36001 0.065457 0.15331 0.18776 0.23771 0.1223 0.08441 0.29456 0.08441zm1.8535 0.25838q-0.18259 0-0.3359-0.07924-0.15158-0.08096-0.24288-0.24116-0.089572-0.16192-0.089572-0.40308v-1.13h0.29283v1.1093q0 0.23599 0.11369 0.35657 0.11369 0.11886 0.31695 0.11886 0.13264 0 0.24116-0.0534t0.17225-0.16881q0.065457-0.11541 0.065457-0.298v-1.0645h0.29283v1.819h-0.28594v-0.44097h0.082682q-0.089572 0.2446-0.24977 0.36001-0.15847 0.11541-0.37379 0.11541zm1.5537-2.601v2.5666h-0.29283v-2.5666zm2.1807 2.601q-0.11713 0-0.22393-0.03445-0.1068-0.03273-0.19637-0.10163-0.08957-0.0689-0.15503-0.17398h-0.0034v0.27561h-0.28599v-2.5666h0.29283v1.0163h0.0034q0.05857-0.10163 0.14642-0.16881 0.08785-0.06718 0.19637-0.09991 0.10852-0.03445 0.22565-0.03445 0.23771 0 0.41513 0.11886 0.17742 0.11886 0.27561 0.33245 0.09819 0.21187 0.09819 0.49265 0 0.27905-0.09819 0.49265-0.09818 0.21187-0.27561 0.33245-0.17742 0.11886-0.41513 0.11886zm-0.04479-0.26355q0.15847 0 0.27905-0.07752 0.12058-0.07751 0.18948-0.2291 0.0689-0.15158 0.0689-0.37379 0-0.22393-0.0689-0.37551-0.0689-0.15158-0.18948-0.2291-0.12058-0.07751-0.27905-0.07751-0.16881 0-0.29283 0.0844-0.12402 0.08441-0.1912 0.23771-0.06718 0.15331-0.06718 0.36001 0 0.20498 0.06718 0.35829 0.06718 0.15331 0.1912 0.23771 0.12402 0.08441 0.29283 0.08441zm1.9258 0.27044q-0.26699 0-0.45647-0.1223-0.18776-0.1223-0.28766-0.3359-0.09991-0.21532-0.09991-0.4892 0-0.27733 0.10508-0.49265 0.10508-0.21532 0.29111-0.33762 0.18604-0.12402 0.42719-0.12402 0.18948 0 0.34106 0.0689 0.15331 0.0689 0.26183 0.19637 0.10852 0.12747 0.16536 0.30317 0.05857 0.17398 0.05857 0.38585v0.08096h-1.4952v-0.25149h1.3315l-0.12575 0.08785q0-0.18604-0.06718-0.32212-0.06546-0.1378-0.18604-0.21187-0.12058-0.07579-0.28422-0.07579-0.16192 0-0.2825 0.07579-0.11886 0.07407-0.18604 0.21187-0.06546 0.13608-0.06546 0.32212v0.12402q0 0.18776 0.06373 0.33245 0.06546 0.14469 0.18948 0.22738 0.12402 0.08096 0.30144 0.08096 0.12919 0 0.22738-0.03962 0.09818-0.04134 0.16192-0.11369 0.06546-0.07235 0.09302-0.16709h0.29283q-0.03445 0.17398-0.14297 0.30661-0.10852 0.13091-0.27216 0.20498-0.16192 0.07407-0.36001 0.07407zm1.8914 0q-0.25149 0-0.44269-0.12058-0.18948-0.1223-0.29628-0.3359-0.10508-0.2136-0.10508-0.49092 0-0.27905 0.10508-0.49437 0.1068-0.21532 0.29628-0.33762 0.1912-0.1223 0.44269-0.1223 0.15503 0 0.28594 0.04823 0.13264 0.04651 0.23254 0.13264 0.10163 0.08441 0.16536 0.19982 0.06373 0.11541 0.08268 0.25321h-0.29628q-0.0155-0.08096-0.0534-0.14814-0.0379-0.06718-0.09818-0.11541-0.05857-0.04995-0.1378-0.07752-0.07924-0.02756-0.18087-0.02756-0.17053 0-0.29456 0.08613-0.1223 0.0844-0.18776 0.23943-0.06546 0.15503-0.06546 0.36346 0 0.2067 0.06546 0.36001 0.06546 0.15331 0.18776 0.23771 0.1223 0.08441 0.29456 0.08441 0.10163 0 0.17914-0.02584 0.07752-0.02584 0.13264-0.07407 0.05684-0.04995 0.09474-0.11713 0.0379-0.0689 0.05857-0.15158h0.30145q-0.01895 0.13436-0.08268 0.24977-0.06373 0.11541-0.16536 0.20154-0.10163 0.08613-0.23427 0.13436-0.13091 0.04823-0.28422 0.04823zm1.6657-0.01378q-0.18087 0-0.32384-0.06201-0.14297-0.06201-0.22738-0.18431-0.08268-0.12402-0.08268-0.30489 0-0.15675 0.06029-0.25494 0.06201-0.09819 0.16364-0.15331 0.10335-0.05684 0.23254-0.08613 0.13091-0.02928 0.26699-0.04651 0.17398-0.02411 0.27388-0.03617 0.09991-0.01206 0.14125-0.03962 0.04306-0.02756 0.04306-0.09646v-0.01723q0-0.09991-0.04823-0.1757-0.04651-0.07752-0.1378-0.12058-0.08957-0.04479-0.21704-0.04479-0.12574 0-0.22393 0.04306-0.09646 0.04134-0.15503 0.11369-0.05684 0.07235-0.06373 0.16364h-0.298q0.0086-0.16709 0.10335-0.29628 0.09474-0.13091 0.25838-0.2067 0.16364-0.07579 0.37896-0.07579 0.15847 0 0.28594 0.04306 0.12919 0.04306 0.21876 0.1223 0.09129 0.07924 0.13953 0.18948 0.04823 0.11024 0.04823 0.2446v1.254h-0.28939v-0.25838h-0.0069q-0.03273 0.06546-0.09646 0.13264-0.06373 0.06546-0.17225 0.11024-0.1068 0.04306-0.27216 0.04306zm0.04134-0.26183q0.17914 0 0.29111-0.06373 0.11196-0.06546 0.16364-0.16881 0.05168-0.10335 0.05168-0.22221v-0.22738q-0.01723 0.0155-0.06374 0.02928-0.04479 0.01378-0.11196 0.02756-0.06546 0.01206-0.14297 0.02411-0.07579 0.01206-0.15331 0.02239-0.10508 0.01378-0.19982 0.04823-0.09302 0.03273-0.15158 0.09474-0.05857 0.06029-0.05857 0.16364 0 0.08441 0.04479 0.14642 0.04651 0.06029 0.13091 0.09302 0.0844 0.03273 0.19982 0.03273zm1.8982 0.26872q-0.18259 0-0.3359-0.07924-0.15158-0.08096-0.24288-0.24116-0.08957-0.16192-0.08957-0.40308v-1.13h0.29283v1.1093q0 0.23599 0.11369 0.35657 0.11369 0.11886 0.31695 0.11886 0.13264 0 0.24116-0.0534 0.10852-0.0534 0.17226-0.16881 0.06546-0.11541 0.06546-0.298v-1.0645h0.29283v1.819h-0.28594v-0.44097h0.08268q-0.08957 0.2446-0.24977 0.36001-0.15847 0.11541-0.37379 0.11541zm1.8948 0.0069q-0.19465 0-0.35312-0.06373t-0.25666-0.19292q-0.09819-0.13091-0.11024-0.32901h0.28939q0.0155 0.16192 0.12402 0.24805 0.10852 0.08613 0.29972 0.08613 0.18948 0 0.298-0.07924 0.11024-0.07924 0.11024-0.19982 0-0.10335-0.07579-0.16536-0.07579-0.06201-0.19809-0.08957l-0.29283-0.0689q-0.25321-0.06029-0.38413-0.18948-0.12919-0.12919-0.12919-0.32728 0-0.15503 0.08268-0.27388 0.08441-0.12058 0.23254-0.18776 0.14986-0.0689 0.34451-0.0689 0.18948 0 0.33934 0.07235 0.15158 0.07062 0.23943 0.20154 0.08957 0.13091 0.09474 0.31178h-0.28594q-0.0017-0.14469-0.1068-0.23943-0.10508-0.09474-0.28077-0.09474-0.16709 0-0.267 0.08096-0.09991 0.08096-0.09991 0.19809 0 0.10335 0.07579 0.16709 0.07579 0.06201 0.2067 0.09302l0.29283 0.0689q0.26183 0.06201 0.38413 0.18604 0.1223 0.1223 0.1223 0.31867 0 0.16881-0.09129 0.28939t-0.24977 0.18431q-0.15675 0.06373-0.35484 0.06373zm1.7914 0q-0.26699 0-0.45647-0.1223-0.18776-0.1223-0.28766-0.3359-0.09991-0.21532-0.09991-0.4892 0-0.27733 0.10508-0.49265t0.29111-0.33762q0.18604-0.12402 0.42719-0.12402 0.18948 0 0.34106 0.0689 0.15331 0.0689 0.26183 0.19637 0.10852 0.12747 0.16536 0.30317 0.05857 0.17398 0.05857 0.38585v0.08096h-1.4952v-0.25149h1.3315l-0.12575 0.08785q0-0.18604-0.06718-0.32212-0.06546-0.1378-0.18604-0.21187-0.12058-0.07579-0.28422-0.07579-0.16192 0-0.2825 0.07579-0.11886 0.07407-0.18604 0.21187-0.06546 0.13608-0.06546 0.32212v0.12402q0 0.18776 0.06373 0.33245 0.06546 0.14469 0.18948 0.22738 0.12402 0.08096 0.30144 0.08096 0.12919 0 0.22738-0.03962 0.09819-0.04134 0.16192-0.11369 0.06546-0.07235 0.09302-0.16709h0.29283q-0.03445 0.17398-0.14297 0.30661-0.10852 0.13091-0.27216 0.20498-0.16192 0.07407-0.36001 0.07407zm2.0223-0.04134v-1.819h0.29283v1.819zm0.14642-2.1738q-0.08268 0-0.14125-0.05857-0.05857-0.05857-0.05857-0.14125 0-0.08268 0.05857-0.14125 0.05857-0.05857 0.14125-0.05857 0.08268 0 0.14125 0.05857 0.05857 0.05857 0.05857 0.14125 0 0.08268-0.05857 0.14125-0.05857 0.05857-0.14125 0.05857zm1.409 0.35484v0.25149h-0.9853v-0.25149zm-0.66146-0.49609h0.29283v1.8741q0 0.10508 0.04306 0.14814 0.04479 0.04134 0.15675 0.04134 0.03962 0 0.08441 0 0.04651 0 0.0844 0v0.25149q-0.04479 0-0.09819 0t-0.09818 0q-0.23427 0-0.34968-0.10163-0.11541-0.10335-0.11541-0.30834zm1.0852 0.62012-0.03445-0.87161h0.28939l-0.03445 0.87161zm1.2885 1.7363q-0.19465 0-0.35312-0.06373t-0.25666-0.19292q-0.09819-0.13091-0.11024-0.32901h0.28939q0.0155 0.16192 0.12402 0.24805 0.10852 0.08613 0.29972 0.08613 0.18948 0 0.298-0.07924 0.11024-0.07924 0.11024-0.19982 0-0.10335-0.07579-0.16536-0.07579-0.06201-0.19809-0.08957l-0.29283-0.0689q-0.25321-0.06029-0.38413-0.18948-0.12919-0.12919-0.12919-0.32728 0-0.15503 0.08268-0.27388 0.08441-0.12058 0.23254-0.18776 0.14986-0.0689 0.34451-0.0689 0.18948 0 0.33934 0.07235 0.15158 0.07062 0.23943 0.20154 0.08957 0.13091 0.09474 0.31178h-0.28594q-0.0017-0.14469-0.1068-0.23943-0.10508-0.09474-0.28077-0.09474-0.16709 0-0.267 0.08096-0.09991 0.08096-0.09991 0.19809 0 0.10335 0.07579 0.16709 0.07579 0.06201 0.2067 0.09302l0.29283 0.0689q0.26183 0.06201 0.38413 0.18604 0.1223 0.1223 0.1223 0.31867 0 0.16881-0.09129 0.28939t-0.24977 0.18431q-0.15675 0.06373-0.35484 0.06373zm2.2152-1.1059v1.0645h-0.29283v-1.819h0.28594v0.44097h-0.08268q0.08957-0.24632 0.24805-0.36001 0.1602-0.11541 0.37552-0.11541 0.18431 0 0.3359 0.08096 0.15158 0.07924 0.24116 0.23943 0.0913 0.1602 0.0913 0.40308v1.13h-0.29283v-1.1093q0-0.23599-0.11369-0.35484-0.11197-0.12058-0.31695-0.12058-0.13264 0-0.24116 0.0534-0.10852 0.0534-0.17398 0.16881-0.06373 0.11369-0.06373 0.298zm2.3874 1.1059q-0.25149 0-0.44269-0.12058-0.18948-0.1223-0.29628-0.3359-0.10508-0.2136-0.10508-0.49092 0-0.27905 0.10508-0.49437 0.1068-0.21532 0.29628-0.33762 0.1912-0.1223 0.44269-0.1223 0.25321 0 0.44269 0.1223 0.18948 0.1223 0.29456 0.33762 0.1068 0.21532 0.1068 0.49437 0 0.27733-0.1068 0.49092-0.10508 0.2136-0.29456 0.3359-0.18948 0.12058-0.44269 0.12058zm0-0.26527q0.17225 0 0.29456-0.08441 0.1223-0.08441 0.18776-0.23771 0.06546-0.15503 0.06546-0.36001 0-0.20843-0.06546-0.36173-0.06546-0.15503-0.18776-0.24116-0.1223-0.08613-0.29456-0.08613-0.17053 0-0.29456 0.08613-0.1223 0.0844-0.18776 0.23943-0.06546 0.15503-0.06546 0.36346 0 0.2067 0.06546 0.36001 0.06546 0.15331 0.18776 0.23771 0.1223 0.08441 0.29456 0.08441zm1.9792-1.5951v0.25149h-0.9853v-0.25149zm-0.66146-0.49609h0.29283v1.8741q0 0.10508 0.04306 0.14814 0.04479 0.04134 0.15675 0.04134 0.03962 0 0.08441 0 0.04651 0 0.0844 0v0.25149q-0.04479 0-0.09819 0t-0.09819 0q-0.23427 0-0.34968-0.10163-0.11541-0.10335-0.11541-0.30834zm2.5976 2.3564q-0.25149 0-0.44269-0.12058-0.18948-0.1223-0.29628-0.3359-0.10508-0.2136-0.10508-0.49092 0-0.27905 0.10508-0.49437 0.1068-0.21532 0.29628-0.33762 0.1912-0.1223 0.44269-0.1223 0.25321 0 0.44269 0.1223 0.18948 0.1223 0.29456 0.33762 0.1068 0.21532 0.1068 0.49437 0 0.27733-0.1068 0.49092-0.10508 0.2136-0.29456 0.3359-0.18948 0.12058-0.44269 0.12058zm0-0.26527q0.17226 0 0.29456-0.08441 0.1223-0.08441 0.18776-0.23771 0.06546-0.15503 0.06546-0.36001 0-0.20843-0.06546-0.36173-0.06546-0.15503-0.18776-0.24116-0.1223-0.08613-0.29456-0.08613-0.17053 0-0.29456 0.08613-0.1223 0.0844-0.18776 0.23943-0.06546 0.15503-0.06546 0.36346 0 0.2067 0.06546 0.36001 0.06546 0.15331 0.18776 0.23771 0.1223 0.08441 0.29456 0.08441zm1.521 0.22393-0.56499-1.819h0.30661l0.2291 0.79926q0.0534 0.18431 0.10163 0.37724 0.04995 0.19292 0.09991 0.37896h-0.04134q0.04995-0.18604 0.09991-0.37896 0.04995-0.19292 0.10335-0.37724l0.23082-0.79926h0.28939l0.22738 0.79926q0.0534 0.18431 0.10163 0.37724 0.04995 0.19292 0.09991 0.37896h-0.04651q0.05168-0.18604 0.10163-0.37896 0.05168-0.19292 0.10508-0.37724l0.23427-0.79926h0.30661l-0.565 1.819h-0.30661l-0.23943-0.82682q-0.03445-0.12402-0.0689-0.25149-0.03273-0.12747-0.06546-0.25494-0.03273-0.12919-0.06718-0.25321h0.07752q-0.03445 0.12402-0.0689 0.25321-0.03273 0.12747-0.06718 0.25494-0.03273 0.12747-0.0689 0.25149l-0.2446 0.82682zm2.5459-1.0645v1.0645h-0.29283v-1.819h0.28594v0.44097h-0.08268q0.08957-0.24632 0.24805-0.36001 0.1602-0.11541 0.37552-0.11541 0.18431 0 0.3359 0.08096 0.15158 0.07924 0.24116 0.23943 0.09129 0.1602 0.09129 0.40308v1.13h-0.29283v-1.1093q0-0.23599-0.11369-0.35484-0.11196-0.12058-0.31695-0.12058-0.13264 0-0.24116 0.0534t-0.17398 0.16881q-0.06373 0.11369-0.06373 0.298zm2.3874 1.1059q-0.267 0-0.45648-0.1223-0.18776-0.1223-0.28766-0.3359-0.09991-0.21532-0.09991-0.4892 0-0.27733 0.10508-0.49265t0.29111-0.33762q0.18604-0.12402 0.42719-0.12402 0.18948 0 0.34106 0.0689 0.15331 0.0689 0.26183 0.19637 0.10852 0.12747 0.16536 0.30317 0.05857 0.17398 0.05857 0.38585v0.08096h-1.4952v-0.25149h1.3315l-0.12574 0.08785q0-0.18604-0.06718-0.32212-0.06546-0.1378-0.18604-0.21187-0.12058-0.07579-0.28422-0.07579-0.16192 0-0.2825 0.07579-0.11886 0.07407-0.18604 0.21187-0.06546 0.13608-0.06546 0.32212v0.12402q0 0.18776 0.06374 0.33245 0.06546 0.14469 0.18948 0.22738 0.12402 0.08096 0.30145 0.08096 0.12919 0 0.22738-0.03962 0.09819-0.04134 0.16192-0.11369 0.06546-0.07235 0.09302-0.16709h0.29283q-0.03445 0.17398-0.14297 0.30661-0.10852 0.13091-0.27216 0.20498-0.16192 0.07407-0.36001 0.07407zm1.8362-0.0069q-0.23599 0-0.41513-0.11886-0.17742-0.12058-0.27561-0.33245-0.09819-0.2136-0.09819-0.49265 0-0.28078 0.09819-0.49265 0.09819-0.2136 0.27561-0.33245 0.17914-0.11886 0.41513-0.11886 0.11886 0 0.22565 0.03445 0.10852 0.03273 0.19637 0.09991t0.14642 0.16881h0.0034v-1.0163h0.29283v2.5666h-0.28589v-0.27561h-0.0034q-0.06546 0.10508-0.15503 0.17398-0.08957 0.0689-0.19637 0.10163-0.10508 0.03445-0.22393 0.03445zm0.04479-0.26355q0.16881 0 0.29283-0.08441 0.12402-0.0844 0.1912-0.23771 0.06718-0.15331 0.06718-0.35829 0-0.2067-0.06718-0.36001-0.06718-0.15331-0.1912-0.23771-0.12402-0.0844-0.29283-0.0844-0.15675 0-0.27905 0.07751-0.12058 0.07751-0.18948 0.2291-0.0689 0.15158-0.0689 0.37551 0 0.22221 0.0689 0.37379t0.18948 0.2291q0.1223 0.07752 0.27905 0.07752zm3.0007 0.26355q-0.11713 0-0.22393-0.03445-0.1068-0.03273-0.19637-0.10163-0.08957-0.0689-0.15503-0.17398h-0.0034v0.27561h-0.28594v-2.5666h0.29283v1.0163h0.0034q0.05857-0.10163 0.14642-0.16881 0.08785-0.06718 0.19637-0.09991 0.10852-0.03445 0.22565-0.03445 0.23771 0 0.41513 0.11886 0.17742 0.11886 0.27561 0.33245 0.09819 0.21187 0.09819 0.49265 0 0.27905-0.09819 0.49265-0.09819 0.21187-0.27561 0.33245-0.17742 0.11886-0.41513 0.11886zm-0.04479-0.26355q0.15847 0 0.27905-0.07752 0.12058-0.07751 0.18948-0.2291 0.0689-0.15158 0.0689-0.37379 0-0.22393-0.0689-0.37551-0.0689-0.15158-0.18948-0.2291-0.12058-0.07751-0.27905-0.07751-0.16881 0-0.29283 0.0844-0.12402 0.08441-0.1912 0.23771-0.06718 0.15331-0.06718 0.36001 0 0.20498 0.06718 0.35829 0.06718 0.15331 0.1912 0.23771 0.12402 0.08441 0.29283 0.08441zm1.1197 0.94912v-0.25838h0.17914q0.05684 0 0.09991-0.02412 0.04479-0.02239 0.08096-0.07062t0.06546-0.12402l0.09991-0.25838-0.70452-1.8035h0.31695l0.39274 1.0473q0.04995 0.13091 0.09646 0.26183 0.04651 0.13091 0.08957 0.26183h-0.07752q0.04306-0.13091 0.08957-0.26183 0.04823-0.13091 0.09646-0.26183l0.38585-1.0473h0.31178l-0.83888 2.1566q-0.04823 0.1223-0.1223 0.2067-0.07407 0.08613-0.17053 0.13091-0.09646 0.04479-0.21187 0.04479-0.04479 0-0.08957 0-0.04479 0-0.08957 0zm3.2281-0.69246q-0.18087 0-0.32384-0.06201t-0.22738-0.18431q-0.08268-0.12402-0.08268-0.30489 0-0.15675 0.06029-0.25494 0.06201-0.09819 0.16364-0.15331 0.10335-0.05684 0.23254-0.08613 0.13091-0.02928 0.26699-0.04651 0.17398-0.02411 0.27388-0.03617 0.09991-0.01206 0.14125-0.03962 0.04306-0.02756 0.04306-0.09646v-0.01723q0-0.09991-0.04823-0.1757-0.04651-0.07752-0.1378-0.12058-0.08957-0.04479-0.21704-0.04479-0.12575 0-0.22393 0.04306-0.09646 0.04134-0.15503 0.11369-0.05684 0.07235-0.06373 0.16364h-0.298q0.0086-0.16709 0.10335-0.29628 0.09474-0.13091 0.25838-0.2067 0.16364-0.07579 0.37896-0.07579 0.15847 0 0.28594 0.04306 0.12919 0.04306 0.21876 0.1223 0.09129 0.07924 0.13953 0.18948 0.04823 0.11024 0.04823 0.2446v1.254h-0.28939v-0.25838h-0.0069q-0.03273 0.06546-0.09646 0.13264-0.06374 0.06546-0.17226 0.11024-0.1068 0.04306-0.27216 0.04306zm0.04134-0.26183q0.17914 0 0.29111-0.06373 0.11197-0.06546 0.16364-0.16881 0.05168-0.10335 0.05168-0.22221v-0.22738q-0.01723 0.0155-0.06373 0.02928-0.04479 0.01378-0.11196 0.02756-0.06546 0.01206-0.14297 0.02411-0.07579 0.01206-0.15331 0.02239-0.10508 0.01378-0.19982 0.04823-0.09302 0.03273-0.15158 0.09474-0.05857 0.06029-0.05857 0.16364 0 0.08441 0.04479 0.14642 0.04651 0.06029 0.13091 0.09302 0.0844 0.03273 0.19982 0.03273zm1.5227-0.83027v1.0645h-0.29283v-1.819h0.28594v0.44097h-0.08268q0.08957-0.24632 0.24805-0.36001 0.1602-0.11541 0.37552-0.11541 0.18431 0 0.3359 0.08096 0.15158 0.07924 0.24116 0.23943 0.09129 0.1602 0.09129 0.40308v1.13h-0.29283v-1.1093q0-0.23599-0.11369-0.35484-0.11196-0.12058-0.31695-0.12058-0.13264 0-0.24116 0.0534t-0.17398 0.16881q-0.06373 0.11369-0.06373 0.298zm3.2694 1.1059q-0.25149 0-0.44269-0.12058-0.18948-0.1223-0.29628-0.3359-0.10508-0.2136-0.10508-0.49092 0-0.27905 0.10508-0.49437 0.1068-0.21532 0.29628-0.33762 0.1912-0.1223 0.44269-0.1223 0.15503 0 0.28594 0.04823 0.13264 0.04651 0.23254 0.13264 0.10163 0.08441 0.16536 0.19982 0.06373 0.11541 0.08268 0.25321h-0.29628q-0.0155-0.08096-0.0534-0.14814-0.0379-0.06718-0.09818-0.11541-0.05857-0.04995-0.1378-0.07752-0.07924-0.02756-0.18087-0.02756-0.17053 0-0.29456 0.08613-0.1223 0.0844-0.18776 0.23943-0.06546 0.15503-0.06546 0.36346 0 0.2067 0.06546 0.36001 0.06546 0.15331 0.18776 0.23771 0.1223 0.08441 0.29456 0.08441 0.10163 0 0.17914-0.02584 0.07751-0.02584 0.13264-0.07407 0.05684-0.04995 0.09474-0.11713 0.0379-0.0689 0.05857-0.15158h0.30144q-0.01895 0.13436-0.08268 0.24977-0.06373 0.11541-0.16536 0.20154-0.10163 0.08613-0.23427 0.13436-0.13091 0.04823-0.28422 0.04823zm1.8448 0q-0.25149 0-0.44269-0.12058-0.18948-0.1223-0.29628-0.3359-0.10508-0.2136-0.10508-0.49092 0-0.27905 0.10508-0.49437 0.1068-0.21532 0.29628-0.33762 0.1912-0.1223 0.44269-0.1223 0.25321 0 0.44269 0.1223 0.18948 0.1223 0.29456 0.33762 0.1068 0.21532 0.1068 0.49437 0 0.27733-0.1068 0.49092-0.10508 0.2136-0.29456 0.3359-0.18948 0.12058-0.44269 0.12058zm0-0.26527q0.17225 0 0.29456-0.08441t0.18776-0.23771q0.06546-0.15503 0.06546-0.36001 0-0.20843-0.06546-0.36173-0.06546-0.15503-0.18776-0.24116-0.1223-0.08613-0.29456-0.08613-0.17053 0-0.29456 0.08613-0.1223 0.0844-0.18776 0.23943-0.06546 0.15503-0.06546 0.36346 0 0.2067 0.06546 0.36001 0.06546 0.15331 0.18776 0.23771 0.1223 0.08441 0.29456 0.08441zm1.1851 0.22393v-1.819h0.27905v0.28594h0.0069q0.04995-0.14125 0.15847-0.22738 0.10852-0.08613 0.27905-0.08613 0.03962 0 0.07235 0.0034 0.03445 0.0034 0.05168 0.0069v0.29283q-0.01722-0.0052-0.06718-0.01206-0.04823-0.0086-0.11196-0.0086-0.09991 0-0.18604 0.04651-0.08613 0.04651-0.1378 0.14469-0.05168 0.09819-0.05168 0.25321v1.1197zm1.1369 0.72002v-2.539h0.28594v0.26872h0.0034q0.05857-0.10163 0.14814-0.16881 0.08957-0.06718 0.19982-0.09991 0.11024-0.03445 0.22738-0.03445 0.23771 0 0.41513 0.11886 0.17742 0.11886 0.27561 0.33245 0.09819 0.21187 0.09819 0.49265 0 0.27905-0.09819 0.49265-0.09819 0.21187-0.27561 0.33245-0.17742 0.11886-0.41513 0.11886-0.11713 0-0.22221-0.03445-0.10508-0.03273-0.19292-0.10163-0.08785-0.0689-0.15331-0.17398h-0.0034v0.99563zm0.81993-0.94912q0.15847 0 0.27905-0.07752 0.12058-0.07751 0.18948-0.2291 0.0689-0.15158 0.0689-0.37379 0-0.22393-0.0689-0.37551-0.0689-0.15158-0.18948-0.2291-0.12058-0.07751-0.27905-0.07751-0.16881 0-0.29283 0.0844-0.12402 0.08441-0.1912 0.23771-0.06718 0.15331-0.06718 0.36001 0 0.20498 0.06718 0.35829 0.06718 0.15331 0.1912 0.23771 0.12402 0.08441 0.29283 0.08441zm1.9258 0.27044q-0.25149 0-0.44269-0.12058-0.18948-0.1223-0.29628-0.3359-0.10508-0.2136-0.10508-0.49092 0-0.27905 0.10508-0.49437 0.1068-0.21532 0.29628-0.33762 0.1912-0.1223 0.44269-0.1223 0.25321 0 0.44269 0.1223 0.18948 0.1223 0.29456 0.33762 0.1068 0.21532 0.1068 0.49437 0 0.27733-0.1068 0.49092-0.10508 0.2136-0.29456 0.3359-0.18948 0.12058-0.44269 0.12058zm0-0.26527q0.17226 0 0.29456-0.08441 0.1223-0.08441 0.18776-0.23771 0.06546-0.15503 0.06546-0.36001 0-0.20843-0.06546-0.36173-0.06546-0.15503-0.18776-0.24116-0.1223-0.08613-0.29456-0.08613-0.17053 0-0.29456 0.08613-0.1223 0.0844-0.18776 0.23943-0.06546 0.15503-0.06546 0.36346 0 0.2067 0.06546 0.36001 0.06546 0.15331 0.18776 0.23771 0.1223 0.08441 0.29456 0.08441zm1.1851 0.22393v-1.819h0.27905v0.28594h0.0069q0.04995-0.14125 0.15847-0.22738 0.10852-0.08613 0.27905-0.08613 0.03962 0 0.07235 0.0034 0.03445 0.0034 0.05168 0.0069v0.29283q-0.01723-0.0052-0.06718-0.01206-0.04823-0.0086-0.11197-0.0086-0.09991 0-0.18604 0.04651-0.08613 0.04651-0.1378 0.14469-0.05168 0.09819-0.05168 0.25321v1.1197zm1.6364 0.02756q-0.18087 0-0.32384-0.06201-0.14297-0.06201-0.22738-0.18431-0.08268-0.12402-0.08268-0.30489 0-0.15675 0.06029-0.25494 0.06201-0.09819 0.16364-0.15331 0.10335-0.05684 0.23254-0.08613 0.13091-0.02928 0.26699-0.04651 0.17398-0.02411 0.27388-0.03617 0.09991-0.01206 0.14125-0.03962 0.04306-0.02756 0.04306-0.09646v-0.01723q0-0.09991-0.04823-0.1757-0.04651-0.07752-0.1378-0.12058-0.08957-0.04479-0.21704-0.04479-0.12574 0-0.22393 0.04306-0.09646 0.04134-0.15503 0.11369-0.05684 0.07235-0.06373 0.16364h-0.298q0.0086-0.16709 0.10335-0.29628 0.09474-0.13091 0.25838-0.2067 0.16364-0.07579 0.37896-0.07579 0.15847 0 0.28594 0.04306 0.12919 0.04306 0.21876 0.1223 0.0913 0.07924 0.13953 0.18948 0.04823 0.11024 0.04823 0.2446v1.254h-0.28939v-0.25838h-0.0069q-0.03273 0.06546-0.09646 0.13264-0.06373 0.06546-0.17225 0.11024-0.1068 0.04306-0.27216 0.04306zm0.04134-0.26183q0.17914 0 0.29111-0.06373 0.11196-0.06546 0.16364-0.16881 0.05168-0.10335 0.05168-0.22221v-0.22738q-0.01723 0.0155-0.06373 0.02928-0.04479 0.01378-0.11197 0.02756-0.06546 0.01206-0.14297 0.02411-0.07579 0.01206-0.15331 0.02239-0.10508 0.01378-0.19982 0.04823-0.09302 0.03273-0.15158 0.09474-0.05857 0.06029-0.05857 0.16364 0 0.08441 0.04479 0.14642 0.04651 0.06029 0.13091 0.09302 0.0844 0.03273 0.19982 0.03273zm2.024-1.5847v0.25149h-0.9853v-0.25149zm-0.66146-0.49609h0.29283v1.8741q0 0.10508 0.04306 0.14814 0.04479 0.04134 0.15675 0.04134 0.03962 0 0.08441 0 0.04651 0 0.0844 0v0.25149q-0.04479 0-0.09819 0t-0.09819 0q-0.23427 0-0.34968-0.10163-0.11541-0.10335-0.11541-0.30834zm1.6812 2.3564q-0.26699 0-0.45647-0.1223-0.18776-0.1223-0.28766-0.3359-0.09991-0.21532-0.09991-0.4892 0-0.27733 0.10508-0.49265 0.10508-0.21532 0.29111-0.33762 0.18604-0.12402 0.42719-0.12402 0.18948 0 0.34106 0.0689 0.15331 0.0689 0.26183 0.19637 0.10852 0.12747 0.16536 0.30317 0.05857 0.17398 0.05857 0.38585v0.08096h-1.4952v-0.25149h1.3315l-0.12575 0.08785q0-0.18604-0.06718-0.32212-0.06546-0.1378-0.18604-0.21187-0.12058-0.07579-0.28422-0.07579-0.16192 0-0.2825 0.07579-0.11886 0.07407-0.18604 0.21187-0.06546 0.13608-0.06546 0.32212v0.12402q0 0.18776 0.06373 0.33245 0.06546 0.14469 0.18948 0.22738 0.12402 0.08096 0.30144 0.08096 0.12919 0 0.22738-0.03962 0.09818-0.04134 0.16192-0.11369 0.06546-0.07235 0.09302-0.16709h0.29283q-0.03445 0.17398-0.14297 0.30661-0.10852 0.13091-0.27216 0.20498-0.16192 0.07407-0.36001 0.07407z"/>
  <path d="m3.3782 31.293q-0.26699 0-0.45647-0.1223-0.18776-0.1223-0.28766-0.3359-0.099908-0.21532-0.099908-0.4892 0-0.27733 0.10508-0.49265t0.29111-0.33762q0.18603-0.12402 0.42719-0.12402 0.18948 0 0.34106 0.0689 0.15331 0.0689 0.26183 0.19637 0.10852 0.12747 0.16536 0.30317 0.058566 0.17398 0.058566 0.38585v0.08096h-1.4952v-0.25149h1.3315l-0.12575 0.08785q0-0.18604-0.067179-0.32212-0.065457-0.1378-0.18603-0.21187-0.12058-0.07579-0.28422-0.07579-0.16192 0-0.2825 0.07579-0.11886 0.07407-0.18603 0.21187-0.065457 0.13608-0.065457 0.32212v0.12402q0 0.18776 0.063734 0.33245 0.065457 0.14469 0.18948 0.22738 0.12402 0.08096 0.30145 0.08096 0.12919 0 0.22738-0.03962 0.098185-0.04134 0.16192-0.11369 0.065457-0.07235 0.093017-0.16709h0.29283q-0.034451 0.17398-0.14297 0.30661-0.10852 0.13091-0.27216 0.20498-0.16192 0.07407-0.36001 0.07407zm1.4332-1.1059v1.0645h-0.29283v-1.819h0.28594v0.44097h-0.082682q0.089572-0.24632 0.24805-0.36001 0.1602-0.11541 0.37551-0.11541 0.18431 0 0.3359 0.08096 0.15158 0.07924 0.24116 0.23943 0.091295 0.1602 0.091295 0.40308v1.13h-0.29283v-1.1093q0-0.23599-0.11369-0.35484-0.11197-0.12058-0.31695-0.12058-0.13264 0-0.24116 0.0534t-0.17398 0.16881q-0.063734 0.11369-0.063734 0.298zm2.4305-0.75448v0.25149h-0.9853v-0.25149zm-0.66146-0.49609h0.29283v1.8741q0 0.10508 0.043064 0.14814 0.044786 0.04134 0.15675 0.04134 0.039619 0 0.084405 0 0.046509 0 0.084405 0v0.25149q-0.044786 0-0.098185 0t-0.098185 0q-0.23427 0-0.34968-0.10163-0.11541-0.10335-0.11541-0.30834zm0.96462 2.3151v-1.819h0.29283v1.819zm0.14642-2.1739q-0.082682 0-0.14125-0.05857-0.058566-0.05857-0.058566-0.14125 0-0.08268 0.058566-0.14125 0.058567-0.05857 0.14125-0.05857 0.082682 0 0.14125 0.05857 0.058566 0.05857 0.058566 0.14125 0 0.08268-0.058566 0.14125-0.058567 0.05857-0.14125 0.05857zm1.409 0.35484v0.25149h-0.9853v-0.25149zm-0.66146-0.49609h0.29283v1.8741q0 0.10508 0.043064 0.14814 0.044786 0.04134 0.15675 0.04134 0.039618 0 0.084405 0 0.046509 0 0.084405 0v0.25149q-0.044786 0-0.098185 0t-0.098185 0q-0.23427 0-0.34968-0.10163-0.11541-0.10335-0.11541-0.30834zm1.0818 3.0351v-0.25838h0.17914q0.056844 0 0.099908-0.02412 0.044786-0.02239 0.08096-0.07062 0.036173-0.04823 0.065457-0.12402l0.099906-0.25838-0.70452-1.8035h0.31695l0.39274 1.0473q0.04995 0.13091 0.09646 0.26183t0.08957 0.26183h-0.07751q0.04306-0.13091 0.08957-0.26183 0.04823-0.13091 0.09646-0.26183l0.38585-1.0473h0.31178l-0.83888 2.1566q-0.04823 0.1223-0.1223 0.20671-0.07407 0.08613-0.17053 0.13091-0.096463 0.04479-0.21187 0.04479-0.044786 0-0.089572 0t-0.089572 0z"/>
 </g>
 <path d="m9.0972 15.388-0.7028-1.819h0.31695l0.39274 1.0473q0.049954 0.13091 0.09474 0.26183 0.044786 0.13091 0.08785 0.26183h-0.070624q0.044786-0.13091 0.08785-0.26183 0.044786-0.13091 0.093018-0.26183l0.38757-1.0473h0.31178l-0.7028 1.819zm1.9499 0.04134q-0.267 0-0.45648-0.1223-0.18776-0.1223-0.28766-0.3359-0.09991-0.21532-0.09991-0.4892 0-0.27733 0.10508-0.49265 0.10508-0.21532 0.29111-0.33762 0.18604-0.12402 0.42719-0.12402 0.18948 0 0.34106 0.0689 0.15331 0.0689 0.26183 0.19637 0.10852 0.12747 0.16536 0.30317 0.05857 0.17398 0.05857 0.38585v0.08096h-1.4952v-0.25149h1.3315l-0.12575 0.08785q0-0.18604-0.06718-0.32212-0.06546-0.1378-0.18604-0.21187-0.12058-0.07579-0.28422-0.07579-0.16192 0-0.2825 0.07579-0.11886 0.07407-0.18604 0.21187-0.06546 0.13608-0.06546 0.32212v0.12402q0 0.18776 0.06373 0.33245 0.06546 0.1447 0.18948 0.22738 0.12402 0.08096 0.30145 0.08096 0.12919 0 0.22738-0.03962 0.09819-0.04134 0.16192-0.11369 0.06546-0.07235 0.09302-0.16709h0.29283q-0.03445 0.17398-0.14297 0.30661-0.10852 0.13091-0.27216 0.20498-0.16192 0.07407-0.36001 0.07407zm1.1403-0.04134v-1.819h0.27905v0.28594h0.0069q0.04995-0.14125 0.15848-0.22738 0.10852-0.08613 0.27905-0.08613 0.03962 0 0.07235 0.0034 0.03445 0.0034 0.05168 0.0069v0.29283q-0.01722-0.0052-0.06718-0.01206-0.04823-0.0086-0.11197-0.0086-0.09991 0-0.18604 0.04651-0.08613 0.04651-0.1378 0.1447-0.05168 0.09819-0.05168 0.25321v1.1197zm1.7708 0.04134q-0.19465 0-0.35312-0.06373-0.15847-0.06373-0.25666-0.19293-0.09819-0.13091-0.11024-0.32901h0.28939q0.0155 0.16192 0.12402 0.24805 0.10852 0.08613 0.29972 0.08613 0.18948 0 0.298-0.07924 0.11024-0.07924 0.11024-0.19982 0-0.10335-0.07579-0.16536-0.07579-0.06201-0.19809-0.08957l-0.29283-0.0689q-0.25322-0.06029-0.38413-0.18948-0.12919-0.12919-0.12919-0.32728 0-0.15503 0.08268-0.27388 0.08441-0.12058 0.23254-0.18776 0.14986-0.0689 0.34451-0.0689 0.18948 0 0.33934 0.07235 0.15158 0.07062 0.23943 0.20154 0.08957 0.13091 0.09474 0.31178h-0.28594q-0.0017-0.14469-0.1068-0.23943-0.10508-0.09474-0.28078-0.09474-0.16709 0-0.267 0.08096-0.09991 0.08096-0.09991 0.19809 0 0.10335 0.07579 0.16709 0.07579 0.06201 0.20671 0.09302l0.29283 0.0689q0.26183 0.06201 0.38413 0.18604 0.1223 0.1223 0.1223 0.31867 0 0.16881-0.09129 0.28939-0.0913 0.12058-0.24977 0.18431-0.15675 0.06373-0.35484 0.06373zm1.0404-0.04134v-1.819h0.29283v1.819zm0.14642-2.1739q-0.08268 0-0.14125-0.05857-0.05857-0.05857-0.05857-0.14125 0-0.08268 0.05857-0.14125 0.05857-0.05857 0.14125-0.05857 0.08268 0 0.14125 0.05857 0.05857 0.05857 0.05857 0.14125 0 0.08268-0.05857 0.14125-0.05857 0.05857-0.14125 0.05857zm1.3315 2.2152q-0.25149 0-0.4427-0.12058-0.18948-0.1223-0.29628-0.3359-0.10508-0.2136-0.10508-0.49093 0-0.27905 0.10508-0.49437 0.1068-0.21532 0.29628-0.33762 0.1912-0.1223 0.4427-0.1223 0.25321 0 0.4427 0.1223 0.18948 0.1223 0.29456 0.33762 0.1068 0.21532 0.1068 0.49437 0 0.27733-0.1068 0.49093-0.10508 0.2136-0.29456 0.3359-0.18948 0.12058-0.4427 0.12058zm0-0.26527q0.17225 0 0.29456-0.08441t0.18776-0.23771q0.06546-0.15503 0.06546-0.36001 0-0.20843-0.06546-0.36174-0.06546-0.15503-0.18776-0.24116-0.1223-0.08613-0.29456-0.08613-0.17053 0-0.29456 0.08613-0.1223 0.08441-0.18776 0.23943-0.06546 0.15503-0.06546 0.36346 0 0.20671 0.06546 0.36001t0.18776 0.23771q0.1223 0.08441 0.29456 0.08441zm1.4779-0.8406v1.0645h-0.29283v-1.819h0.28594v0.44097h-0.08268q0.08957-0.24632 0.24805-0.36001 0.1602-0.11541 0.37552-0.11541 0.18431 0 0.3359 0.08096 0.15158 0.07924 0.24116 0.23944 0.0913 0.1602 0.0913 0.40308v1.13h-0.29283v-1.1093q0-0.23599-0.11369-0.35485-0.11197-0.12058-0.31695-0.12058-0.13264 0-0.24116 0.0534-0.10852 0.0534-0.17398 0.16881-0.06374 0.11369-0.06374 0.298zm2.3909 0.44442v-0.25494l1.2282-1.6915h0.18948v0.34796h-0.11024l-0.95601 1.3195v0.0034h1.6485v0.27561zm1.3109 0.62012v-2.5666h0.29628v2.5666z" fill="#fff" stroke-width=".26458" aria-label="version 4"/>
 <g fill="#fff" stroke-width=".26458">
  <path d="m42.525 12.292q-0.97978 0-1.6991-0.44028t-1.11-1.2092q-0.38447-0.77515-0.38447-1.7673 0-0.99839 0.39688-1.7735 0.40308-0.77515 1.11-1.2154 0.70693-0.44028 1.6247-0.44028 0.70693 0 1.2836 0.24805 0.57671 0.24805 0.99219 0.70693 0.41548 0.45269 0.63872 1.079 0.22324 0.62012 0.22324 1.3705v0.42788h-5.6493v-1.079h4.8679l-0.70073 0.29146q0-0.55811-0.20464-0.96118-0.19844-0.40308-0.56431-0.62012-0.35967-0.22324-0.86196-0.22324-0.49609 0-0.86196 0.22324-0.36587 0.21704-0.56431 0.62012-0.19844 0.40308-0.19844 0.96118v0.67593q0 0.56431 0.19844 0.99219 0.19844 0.42788 0.57671 0.66353 0.38447 0.23564 0.92398 0.23564 0.39067 0 0.69453-0.11782 0.30386-0.11782 0.5085-0.32866 0.20464-0.21084 0.29146-0.48989h1.4635q-0.12402 0.63872-0.5457 1.1286-0.41548 0.48989-1.048 0.76895-0.63252 0.27285-1.4015 0.27285z">
   <animate attributeName="fill" values="#00ffea;#0084ff;#00ffea" dur="3s" repeatCount="indefinite" begin="-0.6s" />
  </path>
  <path d="m38.751 5.5948v1.2588h-4.0432v-1.2588zm-2.9021-1.7859h1.5689v6.4554q0 0.34727 0.14263 0.48369 0.14263 0.13643 0.5209 0.13643 0.15503 0 0.35347 0 0.19844 0 0.31626 0v1.2588q-0.16123 0-0.42788 0-0.26045 0-0.5147 0-1.0046 0-1.4821-0.40308-0.47749-0.40928-0.47749-1.2464z">
   <animate attributeName="fill" values="#00ffea;#0084ff;#00ffea" dur="3s" repeatCount="indefinite" begin="-0.8s" />
  </path>
  <path d="m33.025 4.6212q-0.40308 0-0.66973-0.25425-0.26665-0.26045-0.26665-0.63872t0.26665-0.63252q0.26665-0.25425 0.66352-0.25425 0.40308 0 0.66973 0.25425 0.26665 0.25425 0.26665 0.63872 0 0.37827-0.26665 0.63252-0.26665 0.25425-0.66353 0.25425z">
   <animate attributeName="fill" values="#00ffea;#0084ff;#00ffea" dur="3s" repeatCount="indefinite" begin="-1.0s" />
  </path>
  <path d="m32.243 12.143v-6.5484h1.5627v6.5484z">
   <animate attributeName="fill" values="#00ffea;#0084ff;#00ffea" dur="3s" repeatCount="indefinite" begin="-1.0s" />
  </path>
  <path d="m28.399 12.298q-0.79375 0-1.4263-0.24805-0.63252-0.25425-1.017-0.73794-0.38447-0.48989-0.43408-1.1906h1.5441q0.04961 0.47749 0.38447 0.74414 0.34106 0.26045 0.92398 0.26045 0.56431 0 0.88677-0.22324 0.32866-0.22324 0.32866-0.57051 0-0.29766-0.24185-0.47749-0.23564-0.17983-0.65112-0.26665l-1.1162-0.22944q-0.94258-0.19844-1.4263-0.67593-0.48369-0.47749-0.48369-1.2154 0-0.60151 0.32246-1.0542 0.32866-0.45269 0.91777-0.70693 0.59531-0.25425 1.3953-0.25425 0.79375 0 1.3953 0.26665 0.60772 0.26665 0.94878 0.75654 0.34727 0.48369 0.36587 1.1596h-1.4697q-0.006201-0.44028-0.34106-0.72554-0.32866-0.28525-0.86196-0.28525-0.5147 0-0.81235 0.22944-0.29766 0.22944-0.29766 0.56431 0 0.29146 0.22944 0.47749 0.22944 0.17983 0.63872 0.27285l1.1782 0.24185q0.97358 0.20464 1.4325 0.64492 0.46509 0.44028 0.46509 1.1596 0 0.63872-0.35967 1.11-0.35347 0.46509-0.97978 0.71934-0.62632 0.25425-1.4387 0.25425z">
   <animate attributeName="fill" values="#00ffea;#0084ff;#00ffea" dur="3s" repeatCount="indefinite" begin="-1.3s" />
  </path>
  <path d="m19.115 12.298q-0.79375 0-1.4263-0.24805-0.63252-0.25425-1.017-0.73794-0.38447-0.48989-0.43408-1.1906h1.5441q0.04961 0.47749 0.38447 0.74414 0.34106 0.26045 0.92398 0.26045 0.56431 0 0.88677-0.22324 0.32866-0.22324 0.32866-0.57051 0-0.29766-0.24184-0.47749-0.23564-0.17983-0.65112-0.26665l-1.1162-0.22944q-0.94258-0.19844-1.4263-0.67593-0.48369-0.47749-0.48369-1.2154 0-0.60151 0.32246-1.0542 0.32866-0.45269 0.91777-0.70693 0.59531-0.25425 1.3953-0.25425 0.79375 0 1.3953 0.26665 0.60772 0.26665 0.94878 0.75654 0.34726 0.48369 0.36587 1.1596h-1.4697q-0.006201-0.44028-0.34106-0.72554-0.32866-0.28525-0.86196-0.28525-0.5147 0-0.81235 0.22944-0.29766 0.22944-0.29766 0.56431 0 0.29146 0.22944 0.47749 0.22944 0.17983 0.63872 0.27285l1.1782 0.24185q0.97358 0.20464 1.4325 0.64492 0.46509 0.44028 0.46509 1.1596 0 0.63872-0.35967 1.11-0.35347 0.46509-0.97978 0.71934t-1.4387 0.25425z">
   <animate attributeName="fill" values="#00ffea;#0084ff;#00ffea" dur="3s" repeatCount="indefinite" begin="-1.4s" />
  </path>
  <path d="m13.963 6.2707-0.16123-3.3672h1.4573l-0.15503 3.3672z">
   <animate attributeName="fill" values="#00ffea;#0084ff;#00ffea" dur="3s" repeatCount="indefinite" begin="-1.6s" />
  </path>
  <path d="m10.153 12.273q-0.42788 0-0.80615-0.12402-0.37207-0.12402-0.67593-0.37207-0.29766-0.25425-0.50229-0.63252h-0.012402v0.99839h-1.5379v-9.2397h1.5627v3.6215h0.012402q0.21084-0.35967 0.5085-0.59531 0.29766-0.23564 0.66353-0.34727 0.37207-0.11782 0.79375-0.11782 0.84956 0 1.4821 0.42788 0.63872 0.42788 0.99219 1.1968t0.35347 1.7735q0 1.017-0.35347 1.7859-0.34727 0.76894-0.98599 1.1968-0.63872 0.42788-1.4945 0.42788zm-0.36587-1.3084q0.48369 0 0.84336-0.24184 0.36587-0.24185 0.57051-0.71314 0.20464-0.47129 0.20464-1.1472t-0.20464-1.141q-0.20464-0.47129-0.57051-0.71313-0.35967-0.24805-0.84336-0.24805-0.5147 0-0.89297 0.26045t-0.58911 0.73174q-0.21084 0.47129-0.21084 1.11t0.21084 1.1162q0.21084 0.47129 0.58911 0.73174 0.37827 0.25425 0.89297 0.25425z">
   <animate attributeName="fill" values="#00ffea;#0084ff;#00ffea" dur="3s" repeatCount="indefinite" begin="-1.8s" />
  </path>
  <path d="m4.4484 4.6212q-0.40308 0-0.66973-0.25425-0.26665-0.26045-0.26665-0.63872t0.26665-0.63252q0.26665-0.25425 0.66353-0.25425 0.40308 0 0.66973 0.25425 0.26665 0.25425 0.26665 0.63872 0 0.37827-0.26665 0.63252-0.26665 0.25425-0.66353 0.25425z">
   <animate attributeName="fill" values="#00ffea;#0084ff;#00ffea" dur="3s" repeatCount="indefinite" />
  </path>
  <path d="m3.6608 5.5948h1.5689v7.2182q0 0.58911-0.23564 1.017-0.22944 0.43408-0.68213 0.66973-0.45269 0.23564-1.1224 0.23564h-0.63872v-1.2712h0.39688q0.37827 0 0.5457-0.19844 0.16743-0.19844 0.16743-0.63872z">
   <animate attributeName="fill" values="#00ffea;#0084ff;#00ffea" dur="3s" repeatCount="indefinite" />
  </path>
 </g>
 <g transform="matrix(1.2826 -.1348 .1348 1.2826 -23.435 -4.0014)" fill="#999" stroke-width=".26458">
  <path d="m52.555 42.086q0.0508-0.0381 0.08572-0.04127 0.0381-0.0064 0.16828-0.0064 0.13335 0 0.21908 0.0381 0.08572 0.0381 0.08572 0.1524t-0.09208 0.1143q-0.01905 0-0.10795-0.03175-0.0889-0.03492-0.1143-0.03492-0.11112 0-0.13335 0.13335-0.0064 0.04762-0.0064 0.19685 0 0.14605 0 0.2413h0.22225q0.1397 0.0063 0.1397 0.09842 0 0.13335-0.1905 0.1397-0.02857 0.0032-0.06985 0.0032t-0.09525-0.0032q0.0063 0.127 0.02857 0.45402 0.02222 0.32385 0.02222 0.63182 0 0.0635-0.0508 0.1016t-0.10478 0.0381q-0.08572 0-0.08572-0.1016 0-0.28575-0.02223-0.55562-0.02222-0.26988-0.03175-0.56832-0.28575 0-0.33338-0.05715-0.01905-0.02222-0.01905-0.05715 0-0.08255 0.06668-0.10795 0.06985-0.0254 0.15875-0.0254t0.127 0q0.0095-0.51752 0.05715-0.64135 0.02857-0.0762 0.0762-0.11112zm1.27 0.74295q0.2286 0 0.37465 0.21907 0.14922 0.21908 0.14922 0.52705 0 0.3048-0.1524 0.5207-0.14922 0.2159-0.40005 0.2159-0.24765 0-0.40005-0.21908-0.1524-0.22225-0.1524-0.49212 0-0.34608 0.1397-0.55245 0.14922-0.21907 0.44132-0.21907zm-0.0381 0.26035q-0.13335 0-0.21908 0.1397-0.08572 0.1397-0.08572 0.29528 0 0.2413 0.09525 0.3683t0.2159 0.127q0.2159 0 0.27622-0.18732 0.0254-0.0889 0.0254-0.22225 0-0.5207-0.30798-0.5207zm1.9082 0.74612q0.11112 0 0.11112 0.18732 0 0.1016-0.11112 0.2032-0.10795 0.09843-0.23812 0.09843-0.19368 0-0.28575-0.19685-0.04127 0.07937-0.13335 0.1397-0.0889 0.05715-0.18098 0.05715-0.0889 0-0.15558-0.03493-0.0635-0.0381-0.10478-0.11112-0.0381-0.07303-0.0635-0.1397-0.02222-0.06985-0.03493-0.16828-0.01588-0.15875-0.0254-0.508-0.0064-0.35242-0.0064-0.66992 0-0.32068 0.0064-0.43815 0.0095-0.12065 0.0381-0.15558 0.03175-0.0381 0.09525-0.0381 0.1397 0 0.1397 0.11112 0 0.08573-0.01588 0.44768-0.0127 0.36195-0.0127 0.6477t0.02223 0.46038q0.0381 0.3048 0.10795 0.3048t0.10795-0.09842q0.0127-0.0381 0.04762-0.06667 0.03493-0.03175 0.0889-0.03175h0.0063q-0.02857-0.2794-0.02857-0.86995 0-0.59372 0.0063-0.7112 0.0095-0.12065 0.0381-0.15558 0.03175-0.0381 0.09525-0.0381 0.1397 0 0.1397 0.11112 0 0.08573-0.01588 0.44768-0.0127 0.36195-0.0127 0.6477t0.02222 0.46038q0.0381 0.3048 0.10795 0.3048t0.10795-0.09842q0.0127-0.0381 0.04763-0.06667 0.03493-0.03175 0.0889-0.03175zm0.77787-1.0065q0.2286 0 0.37465 0.21907 0.14922 0.21908 0.14922 0.52705 0 0.3048-0.1524 0.5207-0.14922 0.2159-0.40005 0.2159-0.24765 0-0.40005-0.21908-0.1524-0.22225-0.1524-0.49212 0-0.34608 0.1397-0.55245 0.14922-0.21907 0.44132-0.21907zm-0.0381 0.26035q-0.13335 0-0.21908 0.1397-0.08573 0.1397-0.08573 0.29528 0 0.2413 0.09525 0.3683t0.2159 0.127q0.2159 0 0.27622-0.18732 0.0254-0.0889 0.0254-0.22225 0-0.5207-0.30798-0.5207zm1.0192 1.216q-0.10795 0-0.20955-0.4191-0.09842-0.42228-0.09842-0.94615 0-0.05398 0.04445-0.08255 0.04763-0.03175 0.08573-0.03175t0.06032 0.0254q0.0254 0.02222 0.0254 0.06032 0 0.4953 0.16828 0.9525 0.0254-0.0381 0.07937-0.1524 0.05398-0.11748 0.1016-0.17145 0.04762-0.05398 0.1143-0.05398 0.06667 0 0.1397 0.09842t0.12382 0.21272q0.05398 0.11112 0.06033 0.11748 0.08572-0.2667 0.08572-0.4953l-0.01905-0.4826q-0.0032-0.04763 0.04445-0.07937 0.04763-0.03493 0.09208-0.03493 0.09208 0 0.09208 0.35877v0.17462q0 0.42545-0.13018 0.75882-0.06985 0.1905-0.17462 0.1905-0.06032 0-0.11112-0.0762-0.0508-0.07938-0.1143-0.22225-0.0635-0.14288-0.09842-0.19685l-0.09525 0.18732q-0.05398 0.11112-0.08255 0.16192-0.02858 0.04762-0.07937 0.09842-0.0508 0.04763-0.10478 0.04763zm2.1177 0.0063q-0.08255 0-0.09842-0.09208 0-0.64135-0.0762-1.143 0-0.0635 0.04445-0.1143 0.04763-0.0508 0.10478-0.0508 0.06032 0 0.0889 0.06667 0.11748-0.15557 0.31432-0.15557 0.25082 0 0.38735 0.2413 0.15875-0.2286 0.4191-0.2286 0.26352 0 0.3937 0.20955 0.08572 0.13018 0.12065 0.3429t0.03493 0.60325q0 0.1524-0.03175 0.23812-0.03175 0.08255-0.13335 0.08255-0.08255 0-0.08255-0.10478l0.0095-0.39688q0-0.71438-0.37148-0.71438-0.11748 0-0.1651 0.08255-0.05398 0.09842-0.0635 0.20638-0.0127 0.1905-0.0127 0.34608v0.46038q0 0.0508-0.0508 0.08572-0.0508 0.03493-0.10478 0.03493-0.06985 0-0.0889-0.09208l0.0095-0.65722q0-0.34925-0.11748-0.43498-0.05715-0.04127-0.17462-0.04127-0.1143 0-0.17145 0.08572-0.05398 0.08573-0.05398 0.27622l0.01905 0.59055q0 0.27305-0.14922 0.27305zm2.4352-1.4732q0.16828 0 0.32068 0.09842t0.1524 0.24448q0 0.14288-0.12382 0.2794-0.12382 0.13335-0.3302 0.16192-0.0889 0.0127-0.2667 0.0127 0.03493 0.26988 0.13652 0.3556 0.03175 0.03493 0.08572 0.03493 0.19685 0 0.3302-0.12382 0.13335-0.127 0.1905-0.127 0.0254 0 0.0762 0.04762 0.0508 0.04763 0.0508 0.0889 0 0.08255-0.20002 0.23812-0.0889 0.07303-0.2159 0.12382-0.12382 0.04762-0.23178 0.04762-0.27622 0-0.4064-0.3556-0.08255-0.21908-0.08255-0.4826t0.12382-0.45402q0.12382-0.1905 0.39052-0.1905zm0.01587 0.21907q-0.12065 0-0.20638 0.13652-0.03175 0.04763-0.06032 0.2159 0.4445 0 0.4445-0.21908 0-0.13335-0.1778-0.13335zm1.1906-0.93345-0.02858 1.0827q0 0.17462 0.0032 0.2286-0.0127 0.04127-0.0508 0.07303-0.03493 0.03175-0.07937 0.03175-0.04445 0-0.07303-0.06985-0.04763-0.8001-0.04763-1.3462 0.02858-0.07937 0.14605-0.07937 0.11748 0 0.13018 0.07937zm-0.21908 2.032q-0.04762-0.05715-0.04762-0.1143t0.04445-0.10478q0.04445-0.04762 0.11748-0.04762 0.0762 0 0.10795 0.02857 0.03493 0.02858 0.03493 0.12382 0 0.16828-0.1397 0.16828-0.06985 0-0.11748-0.05398zm1.0033-2.032-0.02858 1.0827q0 0.17462 0.0032 0.2286-0.0127 0.04127-0.0508 0.07303-0.03493 0.03175-0.07937 0.03175-0.04445 0-0.07303-0.06985-0.04763-0.8001-0.04763-1.3462 0.02858-0.07937 0.14605-0.07937 0.11748 0 0.13018 0.07937zm-0.21908 2.032q-0.04762-0.05715-0.04762-0.1143t0.04445-0.10478q0.04445-0.04762 0.11748-0.04762 0.0762 0 0.10795 0.02857 0.03493 0.02858 0.03493 0.12382 0 0.16828-0.1397 0.16828-0.06985 0-0.11748-0.05398zm1.0033-2.032-0.02858 1.0827q0 0.17462 0.0032 0.2286-0.0127 0.04127-0.0508 0.07303-0.03493 0.03175-0.07937 0.03175-0.04445 0-0.07303-0.06985-0.04762-0.8001-0.04762-1.3462 0.02858-0.07937 0.14605-0.07937 0.11748 0 0.13018 0.07937zm-0.21908 2.032q-0.04762-0.05715-0.04762-0.1143t0.04445-0.10478q0.04445-0.04762 0.11748-0.04762 0.0762 0 0.10795 0.02857 0.03493 0.02858 0.03493 0.12382 0 0.16828-0.1397 0.16828-0.06985 0-0.11748-0.05398z" aria-label="follow me!!!"/>
  <path d="m67.475 45.409q-0.18098-0.35878-0.5715-0.6985v-0.18098q0.33972 0.15558 0.50482 0.3048v-1.2319q0-0.13335-0.02222-0.23495-0.01905-0.10478-0.08255-0.16192-0.0635-0.06033-0.19685-0.06033h-1.2224v-0.22542h1.2224q0.20955 0 0.32385 0.0889 0.1143 0.08573 0.15875 0.23178 0.04445 0.14605 0.04445 0.32385v1.27q0.1651-0.14922 0.50482-0.3048v0.18098q-0.39052 0.33972-0.5715 0.6985z" aria-label=""/>
 </g>
</svg>
